<?xml version="1.0" encoding="utf-8"?>
<!-- Generator: Adobe Illustrator 24.1.2, SVG Export Plug-In . SVG Version: 6.00 Build 0)  -->
<svg version="1.1" id="Layer_1" xmlns="http://www.w3.org/2000/svg" xmlns:xlink="http://www.w3.org/1999/xlink" x="0px" y="0px"
	 viewBox="0 0 512 512" style="enable-background:new 0 0 512 512;" xml:space="preserve">
<style type="text/css">
	.st0{fill:#FEFEFE;}
	.st1{fill:#010101;}
</style>
<path d="M218.3,304.2c-0.1,6-0.1,11.9,0,17.9c0,2-0.6,2.7-2.6,2.6c-4.3-0.1-8.6,0-12.9,0c-4.3,0-8.6-0.1-12.9,0
	c-1.9,0.1-2.7-0.4-2.7-2.5c0.1-6.1,0.1-12.2,0-18.2c0-1.6,0.4-2.2,2.1-2.2c8.9,0.1,17.7,0.1,26.6,0
	C217.8,301.7,218.3,302.4,218.3,304.2z"/>
<path d="M290.9,391.3c0.9,2.3,0.7,3.3-1.9,3.9c-5.5,1.3-10.9,3-16.4,4.6c-1.5,0.4-2.6,0.7-3.5-1.4c-2.7-5.9-7.6-8.6-14-8.6
	c-7.2,0-14.4-0.1-21.6,0c-2.3,0-3.1-0.5-3-2.9c0.2-5.8,0.1-11.6,0-17.5c0-2,0.5-2.6,2.5-2.5c4.4,0.1,8.8,0,13.3,0
	c7.8,0.1,15.7-0.5,23.2,2.6C279.6,373.8,286.8,381,290.9,391.3z"/>
<path d="M324.1,304.7c-0.2,5.7-0.1,11.4,0,17.1c0,2-0.4,2.9-2.7,2.8c-8.5-0.1-17-0.1-25.4,0c-2,0-3-0.3-3-2.6c0.2-6,0.1-11.9,0-17.8
	c0-1.8,0.6-2.4,2.4-2.4c4.4,0.1,8.9,0,13.3,0c4.2,0,8.4,0.2,12.5-0.1C323.7,301.6,324.1,302.5,324.1,304.7z"/>
<path d="M267,154.2c0-9.9-0.1-19.8,0-29.6c0-2.2-0.4-3.1-2.9-3c-5.7,0.2-11.4,0.2-17.1,0c-2.3-0.1-3,0.5-3,2.9
	c0.1,19.8,0.1,39.5,0,59.3c0,2.1,0.4,2.8,2.7,2.8c5.7-0.2,11.4-0.2,17.1,0c2.4,0.1,3.2-0.5,3.2-3.1C266.9,173.7,267,164,267,154.2z
	 M267.1,207.5c0-2-0.3-2.9-2.6-2.8c-5.8,0.2-11.7,0.1-17.5,0c-2,0-2.9,0.3-2.8,2.6c0.2,5.8,0.2,11.6,0,17.5c-0.1,2.5,0.8,2.9,3,2.8
	c2.9-0.2,5.8,0,8.7,0c2.7,0,5.3-0.1,8,0c2.3,0.2,3.3-0.3,3.2-3C266.9,218.8,266.9,213.2,267.1,207.5z M267.1,207.5
	c0-2-0.3-2.9-2.6-2.8c-5.8,0.2-11.7,0.1-17.5,0c-2,0-2.9,0.3-2.8,2.6c0.2,5.8,0.2,11.6,0,17.5c-0.1,2.5,0.8,2.9,3,2.8
	c2.9-0.2,5.8,0,8.7,0c2.7,0,5.3-0.1,8,0c2.3,0.2,3.3-0.3,3.2-3C266.9,218.8,266.9,213.2,267.1,207.5z M244.2,183.7
	c0,2.1,0.4,2.8,2.7,2.8c5.7-0.2,11.4-0.2,17.1,0c2.4,0.1,3.2-0.5,3.2-3.1c-0.2-9.8-0.1-19.5-0.1-29.3c0-9.9-0.1-19.8,0-29.6
	c0-2.2-0.4-3.1-2.9-3c-5.7,0.2-11.4,0.2-17.1,0c-2.3-0.1-3,0.5-3,2.9C244.3,144.2,244.3,164,244.2,183.7z M414.5,311.3
	c-1.2-16.8-15.3-31.8-32.5-33.4c-4.6-0.5-5.1-1.9-5-5.8c0.4-20.7-4-40.4-13.8-58.8c-0.9-1.6-0.9-3-0.3-4.6
	c5.7-17.6,6.6-35.4,3.7-53.6C356,88.7,284.8,45.7,221.1,67.2c-59.8,20.3-91.3,81.3-72.8,141.5c0.6,1.8,0.4,3.3-0.5,5
	c-3.2,5.9-5.7,12.1-7.8,18.5c-4.5,13.7-6.2,27.9-5.8,42.3c0.1,2.4-0.5,3.4-3.1,3.3c-3.2-0.1-6.3,0.8-9.3,1.8
	c-17.1,5.9-27.4,22.8-25,40.9c2.3,17.1,16.8,30.6,34.5,32c2.5,0.2,4.9-0.5,6,3.7c12.1,47.4,41.8,77.8,88.9,91.2
	c5.9,1.7,12.1,1.8,18,3.7h22c0.2-0.8,0.9-0.7,1.5-0.7c9.4-0.8,18.5-2.7,27.3-5.9c42-15.7,68.4-45.3,79-88.9c0.5-2,1.2-3,3.4-2.9
	c3.1,0,6.3-0.4,9.4-1.2C404.5,346.6,415.8,330.3,414.5,311.3z M134.2,315.2c0,4-0.1,8.1,0,12.1c0.1,2.2-0.7,2.5-2.7,2.2
	c-6.9-1-12.3-7.3-12.2-14.7c0.1-7.1,5.5-13.5,12.2-14.4c2.3-0.3,2.8,0.5,2.7,2.6C134.1,307.1,134.2,311.1,134.2,315.2z M256.2,84.6
	c49.4,0.2,89.5,40.7,89.3,90.2c-0.2,49.6-40.6,89.8-90,89.6c-49.7-0.2-89.8-40.6-89.7-90.3S206.4,84.4,256.2,84.6z M354.2,331.7
	c-1.1,48.4-36.9,88.5-84.7,95.5c-55.6,8.1-108.2-33.5-111.8-89.4c-1.7-26.4-1.2-52.9,0-79.3c0.3-6.9,2-13.7,4.6-20.6
	c23.5,32,54.4,49.3,93.7,49.2c39.1-0.1,69.8-17.5,93-49.2c3.4,9.4,5.1,18.9,5.2,28.5C354.4,288.2,354.6,310,354.2,331.7z M379,329.6
	c-2.1,0.1-1.9-0.9-1.9-2.2c0-4.2,0-8.3,0-12.5s0.1-8.3,0-12.5c0-1.8,0.6-2.1,2.2-2c6.8,0.5,12.7,7.3,12.6,14.7
	C391.8,322.5,385.8,329.2,379,329.6z M247.2,227.5c2.9-0.2,5.8,0,8.7,0c2.7,0,5.3-0.1,8,0c2.3,0.2,3.3-0.3,3.2-3
	c-0.2-5.7-0.2-11.4,0-17.1c0-2-0.3-2.9-2.6-2.8c-5.8,0.2-11.7,0.1-17.5,0c-2,0-2.9,0.3-2.8,2.6c0.2,5.8,0.2,11.6,0,17.5
	C244.1,227.3,245,227.7,247.2,227.5z M244.2,183.7c0,2.1,0.4,2.8,2.7,2.8c5.7-0.2,11.4-0.2,17.1,0c2.4,0.1,3.2-0.5,3.2-3.1
	c-0.2-9.8-0.1-19.5-0.1-29.3c0-9.9-0.1-19.8,0-29.6c0-2.2-0.4-3.1-2.9-3c-5.7,0.2-11.4,0.2-17.1,0c-2.3-0.1-3,0.5-3,2.9
	C244.3,144.2,244.3,164,244.2,183.7z"/>
<path class="st0" d="M218.3,304.2c-0.1,6-0.1,11.9,0,17.9c0,2-0.6,2.7-2.6,2.6c-4.3-0.1-8.6,0-12.9,0c-4.3,0-8.6-0.1-12.9,0
	c-1.9,0.1-2.7-0.4-2.7-2.5c0.1-6.1,0.1-12.2,0-18.2c0-1.6,0.4-2.2,2.1-2.2c8.9,0.1,17.7,0.1,26.6,0
	C217.8,301.7,218.3,302.4,218.3,304.2z"/>
<path class="st0" d="M290.9,391.3c0.9,2.3,0.7,3.3-1.9,3.9c-5.5,1.3-10.9,3-16.4,4.6c-1.5,0.4-2.6,0.7-3.5-1.4
	c-2.7-5.9-7.6-8.6-14-8.6c-7.2,0-14.4-0.1-21.6,0c-2.3,0-3.1-0.5-3-2.9c0.2-5.8,0.1-11.6,0-17.5c0-2,0.5-2.6,2.5-2.5
	c4.4,0.1,8.8,0,13.3,0c7.8,0.1,15.7-0.5,23.2,2.6C279.6,373.8,286.8,381,290.9,391.3z"/>
<path class="st0" d="M324.1,321.8c0,2-0.4,2.9-2.7,2.8c-8.5-0.1-17-0.1-25.4,0c-2,0-3-0.3-3-2.6c0.2-6,0.1-11.9,0-17.8
	c0-1.8,0.6-2.4,2.4-2.4c4.4,0.1,8.9,0,13.3,0c4.2,0,8.4,0.2,12.5-0.1c2.5-0.1,2.9,0.8,2.9,3C323.9,310.4,323.9,316.1,324.1,321.8z"
	/>
<path class="st0" d="M244.2,124.5c0-2.4,0.7-2.9,3-2.9c5.7,0.2,11.4,0.2,17.1,0c2.5-0.1,2.9,0.8,2.9,3c-0.1,9.9,0,19.8,0,29.6
	c0,9.8-0.1,19.5,0.1,29.3c0,2.6-0.8,3.1-3.2,3.1c-5.7-0.2-11.4-0.2-17.1,0c-2.2,0.1-2.7-0.7-2.7-2.8
	C244.3,164,244.3,144.2,244.2,124.5z"/>
<path class="st0" d="M267.1,224.5c0.1,2.7-0.9,3.2-3.2,3c-2.6-0.2-5.3,0-8,0c-2.9,0-5.8-0.1-8.7,0c-2.2,0.1-3.1-0.3-3-2.8
	c0.2-5.8,0.2-11.6,0-17.5c-0.1-2.3,0.8-2.7,2.8-2.6c5.8,0.1,11.7,0.2,17.5,0c2.3-0.1,2.7,0.8,2.6,2.8
	C266.9,213.2,266.9,218.8,267.1,224.5z"/>
<path d="M289,395.2c-5.5,1.3-10.9,3-16.4,4.6c-1.5,0.4-2.6,0.7-3.5-1.4c-2.7-5.9-7.6-8.6-14-8.6c-7.2,0-14.4-0.1-21.6,0
	c-2.3,0-3.1-0.5-3-2.9c0.2-5.8,0.1-11.6,0-17.5c0-2,0.5-2.6,2.5-2.5c4.4,0.1,8.8,0,13.3,0c7.8,0.1,15.7-0.5,23.2,2.6
	c10.2,4.2,17.4,11.4,21.5,21.7C291.8,393.6,291.6,394.6,289,395.2z"/>
<path d="M218.3,322c0,2-0.6,2.7-2.6,2.6c-4.3-0.1-8.6,0-12.9,0c-4.3,0-8.6-0.1-12.9,0c-1.9,0.1-2.7-0.4-2.7-2.5
	c0.1-6.1,0.1-12.2,0-18.2c0-1.6,0.4-2.2,2.1-2.2c8.9,0.1,17.7,0.1,26.6,0c1.8,0,2.4,0.6,2.3,2.4C218.2,310.1,218.2,316.1,218.3,322z
	"/>
<path class="st1" d="M324.1,321.8c0,2-0.4,2.9-2.7,2.8c-8.5-0.1-17-0.1-25.4,0c-2,0-3-0.3-3-2.6c0.2-6,0.1-11.9,0-17.8
	c0-1.8,0.6-2.4,2.4-2.4c4.4,0.1,8.9,0,13.3,0c4.2,0,8.4,0.2,12.5-0.1c2.5-0.1,2.9,0.8,2.9,3C323.9,310.4,323.9,316.1,324.1,321.8z"
	/>
<path d="M267.1,183.5c0,2.6-0.8,3.1-3.2,3.1c-5.7-0.2-11.4-0.2-17.1,0c-2.2,0.1-2.7-0.7-2.7-2.8c0.1-19.8,0.1-39.5,0-59.3
	c0-2.4,0.7-2.9,3-2.9c5.7,0.2,11.4,0.2,17.1,0c2.5-0.1,2.9,0.8,2.9,3c-0.1,9.9,0,19.8,0,29.6C267,164,266.9,173.7,267.1,183.5z"/>
<path d="M267.1,224.5c0.1,2.7-0.9,3.2-3.2,3c-2.6-0.2-5.3,0-8,0c-2.9,0-5.8-0.1-8.7,0c-2.2,0.1-3.1-0.3-3-2.8
	c0.2-5.8,0.2-11.6,0-17.5c-0.1-2.3,0.8-2.7,2.8-2.6c5.8,0.1,11.7,0.2,17.5,0c2.3-0.1,2.7,0.8,2.6,2.8
	C266.9,213.2,266.9,218.8,267.1,224.5z"/>
</svg>
