<?xml version="1.0" encoding="utf-8"?>
<!-- Generator: Adobe Illustrator 24.1.2, SVG Export Plug-In . SVG Version: 6.00 Build 0)  -->
<svg version="1.0" id="Layer_1" xmlns="http://www.w3.org/2000/svg" xmlns:xlink="http://www.w3.org/1999/xlink" x="0px" y="0px"
	 viewBox="0 0 100 100" style="enable-background:new 0 0 100 100;" xml:space="preserve">
<style type="text/css">
	.st0{fill:#FFFFFF;}
	.st1{fill:#EEF6F6;}
	.st2{fill:#E7E4E5;}
	.st3{fill:#C6C3C3;}
	.st4{fill:#C2C1C1;}
	.st5{fill:#C7C6C6;}
	.st6{fill:#C4C3C3;}
	.st7{fill:#AAAAAA;}
	.st8{fill:#231F20;}
	.st9{fill:#E0E6E8;}
	.st10{fill:#FCD0B4;}
	.st11{fill:#291D16;}
	.st12{fill:#806A5D;}
	.st13{fill:#7B7979;}
	.st14{fill:#5784CC;}
	.st15{fill:#656263;}
	.st16{fill:#E59686;}
	.st17{fill:#A7A5A6;}
	.st18{fill:#24487A;}
	.st19{fill:#F6807F;}
	.st20{fill:#FEFEFE;}
	.st21{fill:#666263;}
	.st22{fill:#DFE5E7;}
	.st23{fill:#403C3D;}
	.st24{fill:#FDFDFD;}
	.st25{fill:#FAFAFA;}
	.st26{fill:#676566;}
	.st27{fill:#DFE4E6;}
	.st28{fill:#F2F3F3;}
	.st29{fill:#636364;}
	.st30{fill:#705C51;}
	.st31{fill:#DADEDE;}
	.st32{fill:#4F4039;}
	.st33{fill:#67554B;}
	.st34{fill:#6E7070;}
	.st35{fill:#C5CCCC;}
	.st36{fill:#7E796B;}
	.st37{fill:#ACB9BA;}
	.st38{fill:#C3D4D4;}
	.st39{fill:#B7C0C1;}
	.st40{fill:#B6AFAF;}
	.st41{fill:#9CA0A2;}
	.st42{fill:#8F9898;}
	.st43{fill:#4D3E36;}
	.st44{fill:#DDB69F;}
	.st45{fill:#BFBEC9;}
	.st46{fill:#775D5E;}
	.st47{fill:#9CA8A9;}
	.st48{fill:#D8DBDB;}
	.st49{fill:#F6F5F5;}
	.st50{fill:#242021;}
	.st51{fill:#ABA7A7;}
	.st52{fill:#DEE4E6;}
	.st53{fill:#DEEDFA;}
</style>
<path class="st0" d="M77.9,86.4c-10.6,0-21.2,0-31.8,0c0,0,0-0.1,0-0.1c0.1-0.1,0.2-0.3,0.4-0.3c0.2-0.1,0.3-0.1,0.5-0.1
	c10,0,20.1,0,30.1,0c0.1,0,0.3,0,0.4,0C77.7,86,77.8,86.2,77.9,86.4C78,86.4,78,86.4,77.9,86.4z"/>
<path class="st0" d="M86.8,86.4c-2.9,0-5.7,0-8.6,0c0,0,0-0.1,0-0.1c0.1-0.2,0.2-0.3,0.4-0.4c0.1,0,0.3,0,0.4,0c2.3,0,4.7,0,7,0
	c0.1,0,0.3,0,0.4,0c0.2,0.1,0.3,0.2,0.4,0.4C86.8,86.4,86.8,86.4,86.8,86.4z"/>
<path class="st1" d="M87.4,86.1c0,0.1,0,0.2,0,0.3c-0.1,0-0.2,0-0.3,0c0,0,0,0,0-0.1C87.1,86.2,87.2,86.2,87.4,86.1
	C87.3,86.1,87.4,86.1,87.4,86.1z"/>
<path class="st2" d="M87.3,85.4C87.4,85.4,87.4,85.4,87.3,85.4c0.1,0.1,0.1,0.2,0.1,0.3c0,0-0.1,0-0.1,0
	C87.3,85.5,87.2,85.4,87.3,85.4z"/>
<path class="st3" d="M87.3,85.6C87.4,85.6,87.4,85.6,87.3,85.6c0.1,0.1,0.1,0.2,0.1,0.3c0,0-0.1,0-0.1,0
	C87.3,85.8,87.2,85.7,87.3,85.6z"/>
<path class="st4" d="M46.1,86.4C46.1,86.4,46.1,86.4,46.1,86.4c-0.1,0.1-0.2,0.1-0.3,0.1c0,0,0,0,0-0.1C45.9,86.3,46,86.3,46.1,86.4
	z"/>
<path class="st5" d="M78.2,86.3C78.2,86.4,78.2,86.4,78.2,86.3c-0.1,0.1-0.2,0.1-0.3,0.1c0,0,0,0,0-0.1C78,86.3,78.1,86.3,78.2,86.3
	z"/>
<path class="st6" d="M87.1,86.4C87.1,86.4,87.1,86.4,87.1,86.4c-0.1,0.1-0.2,0.1-0.3,0.1c0,0,0,0,0-0.1C86.9,86.3,87,86.3,87.1,86.4
	z"/>
<path class="st7" d="M87.3,85.9C87.4,85.9,87.4,85.9,87.3,85.9c0.1,0.1,0.1,0.1,0.1,0.2l0,0l0,0C87.3,86,87.3,86,87.3,85.9z"/>
<path class="st8" d="M87.3,85.9c0,0.1,0,0.1,0,0.2c0,0.2-0.2,0.2-0.3,0.3c-0.1,0-0.2,0-0.3,0c-0.1-0.1-0.2-0.2-0.3-0.3
	c-0.2-0.4-0.1-0.7-0.2-1.1c0-0.8-0.1-1.6-0.2-2.5c0-0.4,0-0.8-0.1-1.2c0-1.1-0.2-2.2-0.2-3.3c0-0.9-0.1-1.9-0.2-2.8c0-0.3,0-0.7,0-1
	c-0.1-0.9-0.2-1.8-0.2-2.8c-0.1-1.6-0.3-3.1-0.9-4.6c-0.4-0.9-1-1.7-1.9-2.2c-1.6-1-3.4-1.8-5.3-2.4c-0.9-0.3-1.9-0.6-2.8-0.9
	c-0.1,0-0.2-0.1-0.3,0c0.2,0.4,0.4,0.8,0.6,1.2c0,0.1,0.1,0.2,0.1,0.2c0.1,0.1,0.1,0.2,0.1,0.3c0.1,0.2,0.2,0.5,0.3,0.7
	c0.4,0.9,0.6,1.8,0.8,2.7c0.3,1.5,0.4,3,0.3,4.5c0,0.7,0,1.4-0.3,2.1c0,0,0,0.1,0,0.1c0,0,0,0.1,0,0.1c0,0.2,0,0.3-0.1,0.5
	c0,0.1,0,0.2,0,0.2c-0.3,1.3-0.8,2.6-1.4,3.9c-0.3,0.5-0.4,0.9,0.1,1.3c0,0,0.1,0.1,0.1,0.2c0,0.1,0.1,0.2,0.1,0.3c0,0,0,0.1,0,0.1
	c0.3,1.2,0.2,2.2-0.7,3.2c-0.2,0.2-0.4,0.5-0.7,0.6c-1.6,1-3.5,1-5.1,0C68,83,67.5,82.6,67.3,82c-0.3-0.4-0.3-0.9-0.4-1.4
	c0,0,0-0.1,0-0.1c0-0.2,0.1-0.4,0.1-0.6c0.1-0.3,0.1-0.5,0.3-0.7c0.2-0.4,0.4-0.7,0.7-1c1.3-1.1,2.7-1.4,4.4-0.9
	c0.3,0.1,0.4,0,0.6-0.2c0.6-1.1,1-2.2,1.2-3.4c0-0.2,0.1-0.5,0.1-0.7c0.3-1.3,0.3-2.6,0.3-3.9c0-0.3-0.1-0.6-0.1-1
	c-0.1-0.6-0.1-1.2-0.3-1.8c0-0.3-0.1-0.6-0.2-0.9c0-0.1,0-0.2-0.1-0.2c-0.1-0.4-0.3-0.8-0.4-1.2c-0.1-0.2-0.2-0.5-0.3-0.7
	c-0.5-0.9-0.9-1.8-1.5-2.7c-0.2-0.2-0.4-0.4-0.6-0.5c-0.7-0.2-1.4-0.4-2.1-0.6c-0.2-0.1-0.2,0-0.2,0.2c0.2,0.6,0.3,1.2,0.3,1.8
	c0,0.8-0.1,1.5-0.3,2.2c-0.5,1.6-1.2,3.1-1.7,4.6c-0.6,1.8-1.3,3.5-1.9,5.3c-0.5,1.4-1,2.8-1.5,4.2c-0.3,0.8-0.6,1.6-0.9,2.5
	c-0.3,0.9-0.7,1.8-1,2.7c0,0.1-0.1,0.1-0.1,0.2c-0.2,0.6-0.4,1.2-0.7,1.9c0,0.1-0.1,0.2-0.1,0.2c-0.1,0.2-0.4,0.3-0.6,0.2
	c-0.2-0.1-0.3-0.3-0.2-0.6c0.3-1,0.7-2,1.1-3c0.1-0.2,0.2-0.5,0.3-0.7c0.1-0.3,0.2-0.5,0.3-0.8c0-0.5-0.3-1-0.5-1.5
	c-0.2-0.6-0.4-1.1-0.6-1.7c0,0.2,0,0.3,0.1,0.4c0,0.7,0,1.4-0.2,2.1c-0.1,0.3-0.1,0.6-0.3,0.9c-0.1,0.3-0.3,0.6-0.6,0.7
	c-0.4,0.3-0.8,0.5-1.3,0.8c-0.5,0.2-1,0.3-1.5,0c-0.7-0.4-0.8-1.1-0.2-1.6c0.4-0.3,0.9-0.4,1.4-0.4c0.2,0,0.4,0,0.5-0.2
	c0.1-0.3,0.2-0.5,0.2-0.8c0-0.3,0.1-0.6,0.1-0.9c0-1.6-0.1-3.2-0.6-4.7c-0.8-2.2-2.2-3.9-4.5-4.7c-1-0.4-2.1-0.3-3.1,0.1
	c-0.2,0.1-0.5,0.2-0.7,0.4c-1,0.7-1.5,1.6-1.9,2.7c-0.5,1.8-0.2,3.5,0.5,5.1c0.1,0.2,0.2,0.5,0.3,0.7c0.5,1,1.1,2,1.8,2.8
	c0.2,0.3,0.5,0.5,0.8,0.8c0.2,0.1,0.3,0.2,0.5,0c0.4-0.3,0.9-0.4,1.4-0.3c0.5,0,0.9,0.3,1,0.7c0.1,0.4,0,0.8-0.5,1.1
	c-0.5,0.3-1,0.4-1.5,0.3c-0.2,0-0.3,0-0.5,0c-0.5,0-1-0.1-1.4-0.4c-0.9-0.6-1.6-1.4-2.2-2.3c-0.7-1.1-1.3-2.3-1.8-3.6
	c-0.4-1.2-0.6-2.4-0.5-3.6c0.1-2.1,0.9-3.9,2.6-5.2c0.1,0,0.1-0.1,0.2-0.1c0.2-0.1,0.5-0.3,0.7-0.4c0,0,0.1-0.1,0.1-0.1
	c0.5-0.1,0.7-0.5,0.7-0.9c0-0.3,0-0.6,0.1-0.8c0-0.3,0.1-0.6,0.1-0.9c0.1-0.3,0.1-0.7,0.3-1c0.1-0.3,0.1-0.5,0.2-0.8
	c0.3-1,0.7-2,1.3-2.9c0,0,0-0.1,0.1-0.1c0,0,0.1-0.1,0.1-0.1c-0.3-0.1-0.5,0.1-0.8,0.1c-0.2,0-0.4,0.1-0.6,0.2c-0.1,0-0.2,0-0.2,0
	c-0.1,0-0.2,0-0.2,0.1c-1.7,0.5-3.5,1-5.2,1.6c-1.3,0.5-2.4,1.2-3.5,1.9c-1.8,1.2-3.6,2.6-5.3,4c-0.6,0.5-1.1,0.9-1.7,1.4
	c-0.2,0.1-0.2,0.2-0.1,0.4c0.2,0.4,0.3,0.8,0.5,1.3c0.2,0.4,0.1,0.6-0.2,0.8c-0.3,0.1-0.6,0-0.7-0.4c-1.2-2.9-2.5-5.9-3.7-8.8
	c-0.3-0.7-0.2-0.6-0.7-0.1c-0.9,0.9-2,1.6-3.2,2.1c-0.8,0.4-1.7,0.7-2.6,0.9c-0.3,0.1-0.6,0-1,0c-0.3,0-0.3,0-0.2,0.3
	c0.5,0.9,0.9,1.7,1.4,2.6c0.5,0.9,0.9,1.8,1.4,2.6c0.9,1.7,1.8,3.4,2.8,5.1c0.4,0.7,1,1.4,1.7,1.9c0.8,0.6,1.6,0.7,2.5,0.5
	c1.1-0.3,2.2-0.7,3.3-1.2c2.6-1.1,5.1-2.6,7.6-4c0.3-0.2,0.4-0.4,0.3-0.8c-0.2-0.9-0.2-1.8-0.4-2.6c-0.1-0.3,0.1-0.6,0.4-0.6
	c0.3,0,0.5,0.1,0.6,0.4c0.2,0.7,0.2,1.4,0.3,2.1c0.2,1.2,0.3,2.4,0.4,3.5c0,0.3,0.1,0.6,0.1,0.9c0.2,1.2,0.3,2.4,0.4,3.6
	c0.1,1.3,0.3,2.6,0.4,3.9c0,0.4,0.1,0.9,0.2,1.3c0,0.2,0.1,0.4-0.1,0.6c-0.1,0.1-0.2,0.2-0.3,0.3c-0.1,0-0.2,0-0.3,0
	c-0.2-0.1-0.3-0.3-0.3-0.5c-0.1-1.1-0.2-2.2-0.4-3.2c-0.1-1.2-0.3-2.4-0.4-3.5c-0.1-1.1-0.3-2.2-0.4-3.3c0-0.5-0.1-1-0.2-1.5
	c-0.3,0.1-0.6,0.3-0.9,0.5c-2.5,1.5-5,2.9-7.7,4c-0.9,0.4-1.8,0.7-2.7,0.9c-1.5,0.3-2.8-0.1-3.8-1.2c-0.6-0.6-1.1-1.3-1.5-2
	c-0.7-1.3-1.4-2.5-2.1-3.8c-0.5-1-1.1-2-1.6-3c-0.6-1.1-1.2-2.3-1.8-3.4c-0.2-0.4-0.4-0.7-0.6-1.1c-0.1-0.3-0.1-0.6,0.1-0.9
	c0.4-0.5,0.9-0.9,1.4-1.3c0.2-0.1,0.4-0.3,0.5-0.4c0.1-0.1,0.1-0.1,0.1-0.2c-0.1-0.1-0.1-0.2-0.2-0.4c-0.1-0.3-0.3-0.4-0.6-0.5
	c-1.9-0.5-3.7-1.4-5.4-2.5c-0.8-0.5-1.6-1.1-2.4-1.8c-0.1-0.1-0.3-0.2-0.4-0.3c-1.8-0.8-3.6-1.7-5.3-2.6c-0.2-0.1-0.4-0.2-0.5-0.4
	c-0.3-0.4-0.2-0.6,0.2-0.9c0.1-0.1,0.3-0.1,0.4-0.2c-0.1-0.1-0.1-0.2-0.2-0.2c-0.3-0.4-0.2-0.9,0.3-1.2c0.2-0.1,0.5-0.2,0.7-0.2
	c0.2,0,0.2-0.1,0.3-0.2c0.3-0.5,0.8-0.7,1.3-0.8c0.3,0,0.6,0,0.8,0c0.1,0,0.2,0,0.2-0.1c0.3-0.6,0.9-0.8,1.5-0.8
	c0.6,0,1.2,0.1,1.8,0.3c1.4,0.4,2.7,1,3.9,1.7c0.8,0.4,1.5,0.9,2.3,1.4c0,0,0.1,0,0.1,0.1c0-0.3-0.1-0.5-0.1-0.8
	c0-0.4,0.1-0.7,0.2-1c0.2-0.6,0.9-0.9,1.5-0.6c0.5,0.2,0.8,0.5,1.1,0.9c0.5,0.6,0.9,1.2,1.4,1.8c0.4,0.5,0.8,1,1.2,1.4
	c0.3,0.3,0.5,0.7,0.7,1.1c0.4,0.8,0.7,1.7,0.7,2.6c0,0.5-0.1,1.1-0.3,1.6c0,0.1-0.1,0.1-0.1,0.2c0,0.1,0,0.2,0.1,0.1
	c0.2,0,0.4-0.1,0.6-0.1c0.5,0,0.8,0.2,1,0.7c0.3,0.8,0.7,1.6,1.1,2.5c0.2,0.5,0.4,1,0.6,1.5c0.4,0.8,0.7,1.7,1.1,2.5
	c0.2,0.6,0.5,1.1,0.7,1.7c0.1,0,0.1,0,0.2-0.1c1.7-1.4,3.4-2.8,5.2-4.1c1.3-0.9,2.5-1.8,3.9-2.6c0.9-0.5,2-0.9,3-1.2
	c2.1-0.7,4.2-1.2,6.4-1.7c0.2,0,0.3-0.1,0.4-0.3c0.5-0.7,1.1-1.4,1.8-2c-0.5-0.2-1-0.4-1.4-0.7c-1.5-0.8-2.9-1.7-4.2-2.8
	c-0.8-0.7-1.5-1.4-2.1-2.2c-0.4-0.5-0.7-1-1-1.5c-0.3-0.5-0.5-1-0.7-1.5c-0.1-0.2-0.1-0.3-0.4-0.3c-0.5,0-1-0.3-1.5-0.5
	c-1-0.6-1.8-1.3-2.6-2.1c-0.6-0.6-1.1-1.3-1.6-2.1c-0.3-0.5-0.5-1-0.7-1.5c-0.3-0.9-0.4-1.8-0.4-2.8c0.1-1,0.4-1.9,1-2.7
	c0.4-0.6,1-1,1.8-1.1c0.2,0,0.2,0,0.2-0.3c-0.2-1-0.4-1.9-0.5-2.9c-0.1-1-0.2-2.1-0.2-3.2c0-1,0-2.1,0.2-3.1
	c0.2-1.2,0.4-2.4,0.9-3.5c0.4-1.1,1-2.1,1.7-3c0.7-0.8,1.4-1.6,2.3-2.1c0.3-0.2,0.4-0.4,0.6-0.7c0.6-0.7,1.2-1.3,1.9-1.8
	c1.9-1.4,3.9-2.6,6.1-3.5c1.6-0.7,3.4-1.1,5.1-1.3c1.5-0.2,3.1-0.2,4.6-0.1c1.9,0.2,3.8,0.5,5.5,1.4c0.9,0.4,1.6,1,2.3,1.7
	c0.3,0.3,0.5,0.6,0.6,1c0.1,0.1,0.1,0.2,0.3,0.2c1.7,0.4,3.3,1.1,4.8,2.1c0.9,0.7,1.8,1.5,2.5,2.4c0.5,0.6,0.9,1.3,1.3,2
	c0.3,0.5,0.5,1,0.7,1.5c0.4,1,0.6,2,0.8,3c0.1,0.5,0.1,1,0.2,1.4c0.1,1.7,0.1,3.4,0,5c-0.1,1.1-0.2,2.2-0.3,3.3c0,0.1,0,0.2,0,0.2
	c0,0.2,0,0.2,0.2,0.2c0.8,0.2,1.4,0.6,1.9,1.3c0.8,1.3,1,2.7,0.7,4.2c-0.2,1.2-0.8,2.2-1.5,3.2c-0.7,1-1.5,1.8-2.4,2.6
	c-0.7,0.5-1.4,1-2.2,1.3c-0.2,0.1-0.4,0.2-0.6,0.1c-0.1,0-0.2,0-0.2,0.1c-0.1,0.2-0.2,0.5-0.3,0.7c-0.6,1.3-1.3,2.4-2.3,3.4
	C74.7,53.7,73,55,71.2,56c-0.3,0.2-0.7,0.4-1.1,0.5c1.2,0.9,2.2,2,3.1,3.2c0.1,0.1,0.2,0.2,0.4,0.2c1.2,0.3,2.3,0.7,3.5,1.1
	c1.5,0.5,3.1,1.1,4.5,1.8c0.8,0.4,1.6,0.9,2.3,1.4c0.6,0.5,1,1,1.3,1.7c0.5,1,0.7,2.1,0.9,3.2c0.2,1,0.2,2,0.3,3
	c0.1,1.3,0.2,2.5,0.3,3.8c0.2,1.5,0.2,3,0.3,4.5c0.1,0.9,0.1,1.8,0.2,2.7c0,0.7,0.1,1.4,0.2,2.2c0,0.1,0,0.2,0,0.3
	C87.3,85.7,87.3,85.8,87.3,85.9z"/>
<path class="st9" d="M46.7,77.2c0.4,0.8,0.7,1.6,1.2,2.4c0.6,1,1.2,2,2,2.8c0.4,0.4,0.8,0.7,1.4,0.9c0.3,0.1,0.6,0.2,0.9,0.1
	c0.2,0,0.3,0,0.4,0.1c0.6,0.1,1.2,0,1.6-0.4c0.5-0.5,0.4-1.1-0.2-1.4c-0.6-0.3-1.2-0.2-1.8,0.2c-0.3,0.2-0.3,0.2-0.5,0
	c-0.3-0.2-0.6-0.5-0.9-0.8c-0.6-0.7-1.1-1.6-1.5-2.4c-0.1-0.2-0.2-0.3-0.2-0.5c0.1-0.1,0.3,0,0.4,0c2.9,0.9,5.8,1.5,8.7,1.8
	c0.2,0,0.4,0,0.6,0.2c-0.1,0.3-0.2,0.3-0.4,0.3c-0.6-0.1-1.2,0-1.6,0.5c-0.4,0.5-0.3,1,0.2,1.3c0.6,0.3,1.2,0.2,1.8-0.2
	c0.2-0.1,0.4-0.3,0.6-0.4c0.4-0.2,0.7-0.5,0.8-0.9c0-0.1,0.1-0.1,0.1,0c0.4,0.4,0.7,0.7,1,1.1c0,0,0,0.1,0,0.1
	c-0.2,0.5-0.4,1.1-0.6,1.6c-0.2,0.5-0.4,1-0.6,1.5c-0.1,0.2,0,0.3,0.2,0.4c0.2,0.1,0.4,0,0.5-0.1c0.1-0.1,0.1-0.2,0.1-0.3
	c0.7-1,1.5-1.8,2.3-2.7c0.5-0.6,0.9-1.1,1.4-1.6c0.1-0.1,0.2-0.3,0.4-0.2c0.5,0,1.1,0,1.6,0c0.1,0,0.2,0,0.3,0.1
	c0,0.3,0.1,0.6,0.2,0.9c0.1,0.2,0.1,0.4,0.2,0.6c0,0.2,0.1,0.5,0.1,0.7c0,0.3,0.1,0.4,0.4,0.4c0.2,0,0.4,0,0.5,0.1
	c0.2,0.1,0.4,0.2,0.6,0.3c1.5,0.7,2.9,0.6,4.3-0.2c0.1,0,0.1-0.1,0.2-0.1c0.2-0.1,0.4-0.1,0.6-0.1c0.9,0,1.7,0,2.6,0
	c0.5,0,0.5,0,0.5-0.5c0-2.9,0-5.7,0-8.6c0-0.2,0-0.4,0.1-0.6c0.1-0.1,0.1,0,0.2,0.1c0,0.1,0,0.3,0,0.4c0,1.4,0,2.7,0,4.1
	c0,0.4,0,0.4,0.4,0.3c0.2-0.1,0.4-0.2,0.6-0.3c0.1,0.1,0.1,0.2,0.1,0.3c-0.1,1.3-0.4,2.6-0.5,3.9c-0.1,1.1-0.3,2.2-0.4,3.3
	c0,0.2,0,0.3-0.2,0.5c-6,0-12,0-18.1,0c-4.2,0-8.5,0-12.7,0c-0.2,0-0.3,0-0.5,0.1c0-0.5-0.1-1-0.2-1.5c0-0.5-0.1-1.1-0.2-1.6
	c-0.2-1-0.2-2.1-0.4-3.1c-0.1-0.7-0.1-1.3-0.2-2c-0.1-0.4-0.1-0.8-0.1-1.2c0.1,0,0.2,0,0.3,0.1C46,76.8,46.3,77,46.7,77.2z"/>
<path class="st8" d="M77.6,86c0.1-0.5,0.1-1.1,0.2-1.6c0.2-0.9,0.2-1.8,0.4-2.6c0.1-0.3,0.1-0.7,0.1-1c0.1-0.9,0.2-1.8,0.4-2.7
	c0-0.1,0-0.1,0-0.2c-0.1-0.3,0-0.6,0.1-1c0.2-1.5,0.4-2.9,0.6-4.4c0.1-0.7,0.2-1.4,0.3-2.2c0-0.2,0-0.3,0.1-0.5
	c0.1-0.3,0.4-0.4,0.6-0.4c0.3,0.1,0.4,0.3,0.4,0.6c0,0.4-0.1,0.8-0.2,1.3c-0.3,1.6-0.4,3.2-0.7,4.7c0,0.1-0.1,0.2,0,0.4
	c0,0.4-0.1,0.9-0.2,1.3c-0.2,1.4-0.4,2.8-0.6,4.2c-0.1,1.1-0.3,2.2-0.4,3.3c0,0.2,0,0.4-0.2,0.6c-0.1,0.1-0.2,0.2-0.3,0.3
	c-0.1,0-0.2,0-0.3,0C77.8,86.3,77.7,86.2,77.6,86z"/>
<path class="st9" d="M78.5,86c0.1-0.7,0.1-1.3,0.2-2c0.1-0.5,0.1-1,0.2-1.5c0.2-0.9,0.2-1.8,0.4-2.7c0.1-0.6,0.2-1.3,0.2-1.9
	c0-0.1,0.1-0.2,0.2-0.2c1.9-0.8,3.7-1.8,5.4-3c0.2-0.2,0.4-0.4,0.5-0.6c0.1,0.4,0.1,0.9,0.1,1.4c0.1,1.1,0.2,2.1,0.2,3.2
	c0.1,1.2,0.2,2.3,0.2,3.5c0.1,1.1,0.1,2.1,0.2,3.2c0,0.2,0,0.5,0,0.7C83.8,86,81.2,86,78.5,86z"/>
<path class="st10" d="M50.3,40C50.3,40,50.3,40,50.3,40l0.1,0.1c0.8,0.5,1.7,0.9,2.6,1c2.1,0.4,4.1,0,5.8-1.4
	c0.9-0.7,1.6-1.7,1.9-2.8c0.1-0.4,0.2-0.8,0.2-1.2c0-0.2,0.1-0.2,0.2-0.3c0.6-0.1,1.3-0.1,1.9,0.1c0.3,0.1,0.3,0.1,0.3,0.4
	c0,0.5,0.1,0.9,0.3,1.4c0.3,0.9,0.9,1.7,1.6,2.3c2.3,1.9,5.8,2.2,8.2,0.7c0.1,0,0.2-0.1,0.3-0.1c0.5,0,0.9,0.1,1.4,0.2
	c1,0,2-0.1,2.8-0.6c0.6-0.4,0.7-0.9,0.1-1.3c-0.5-0.3-1-0.5-1.5-0.6c-0.2,0-0.4,0-0.6-0.2c0.2-0.4,0.3-0.8,0.4-1.2
	c0-0.1,0.1-0.3,0.1-0.4c0-0.1,0.1-0.2,0.2-0.2c0.3,0,0.7,0,1,0c0.5,0,1.1,0,1.6,0c0.2,0,0.2,0.1,0.2,0.2c0,1.6,0,3.1-0.1,4.7
	c-0.1,1-0.2,2-0.4,2.9c-0.2,1-0.4,1.9-0.7,2.9c-0.4,1.4-1,2.7-1.8,3.9c-0.4,0.6-0.9,1.1-1.4,1.7c-0.9,0.9-1.9,1.8-3,2.5
	c-1.8,1.2-3.7,2-5.8,2.5c-1.9,0.4-3.8,0.5-5.7,0.4c-2.5-0.2-4.9-0.9-7.2-2.2c-1.4-0.8-2.7-1.8-3.8-2.9c-0.6-0.6-1.1-1.1-1.6-1.8
	c-0.4-0.5-0.7-1-0.9-1.6c-0.5-1-0.9-2-1.2-3c-0.3-1.1-0.6-2.3-0.7-3.4c-0.1-0.8-0.2-1.6-0.3-2.3c-0.2-1.4-0.1-2.7-0.1-4.1
	c0-0.1,0-0.2,0-0.2c0-0.1,0.1-0.2,0.2-0.1c0,0,0.1,0,0.1,0c0.8,0,1.7,0,2.5,0c0.2,0,0.3,0,0.3,0.2c0.1,0.5,0.2,1,0.4,1.5
	c-0.1,0.2-0.3,0.1-0.4,0.1c-0.7,0-1.3,0.1-1.9,0.5c-0.2,0.1-0.3,0.2-0.4,0.3c-0.3,0.3-0.3,0.7,0,1c0.1,0.1,0.2,0.2,0.4,0.3
	c0.9,0.4,1.8,0.5,2.7,0.5C49.2,40.2,49.7,40.1,50.3,40z"/>
<path class="st10" d="M57.3,17.8c-0.5,0.3-0.9,0.5-1.3,0.8c-0.1,0.1-0.2,0.2-0.4,0.3c-0.3,0.3-0.2,0.7,0.1,0.9
	c0.4,0.3,0.8,0.3,1.2,0.4c1.2,0.2,2.4,0.2,3.5,0.2c1.8-0.1,3.6-0.4,5.3-0.9c1.4-0.4,2.8-0.9,4-1.7c0.4-0.2,0.7-0.5,1.1-0.7
	c0.2,0.3,0.3,0.6,0.4,0.9c0.7,1.3,1.8,2.3,3.1,3.1c0.6,0.4,1.3,0.6,1.9,0.9c0.2,0.1,0.3,0.1,0.3,0.3c0.3,0.7,0.6,1.5,0.8,2.2
	c0.3,0.7,0.5,1.5,0.7,2.2c0.2,0.7,0.3,1.3,0.5,2c0.2,1,0.4,1.9,0.5,2.9c0.2,1.1,0.3,2.2,0.3,3.4c0,0,0,0.1,0,0.1c-0.1,0-0.1,0-0.2,0
	c-0.9,0-1.7,0-2.6,0c-0.1,0-0.2,0-0.3-0.2c-0.2-1.5-1-2.8-2.3-3.7c-2.5-1.7-5.1-1.8-7.7-0.5c-1.2,0.6-2,1.5-2.6,2.6
	c-0.2,0.3-0.3,0.7-0.4,1.1c0,0.1,0,0.2-0.1,0.3c-0.2,0-0.3-0.1-0.5-0.1c-0.6-0.1-1.2-0.1-1.9,0c-0.1,0-0.2,0-0.2-0.2
	c-0.2-1-0.7-1.9-1.4-2.6c-0.9-0.9-2-1.6-3.3-1.9c-1.8-0.4-3.6-0.2-5.3,0.7c-1.1,0.6-1.9,1.4-2.5,2.5c-0.3,0.5-0.4,1.1-0.5,1.6
	c0,0.1,0,0.2-0.2,0.2c-0.9,0-1.9,0-2.8,0c0-0.2,0-0.3,0-0.5c0.1-0.7,0.1-1.4,0.2-2.1c0.1-0.9,0.2-1.8,0.4-2.8
	c0.1-0.7,0.3-1.4,0.5-2.2c0.2-0.8,0.4-1.7,0.7-2.5c0.1-0.3,0.2-0.7,0.3-1c0.3-0.9,0.6-1.7,1-2.5c0.2-0.4,0.4-0.8,0.5-1.1
	c0.1-0.2,0.2-0.2,0.4-0.3c0.9-0.5,1.8-0.9,2.7-1.2c1.8-0.6,3.7-1,5.7-1.2C57.3,17.7,57.3,17.7,57.3,17.8z"/>
<path class="st0" d="M46.7,77.2c-0.3,0-0.5-0.2-0.8-0.3c-0.2-0.1-0.4-0.2-0.6-0.3c-0.1-0.3-0.1-0.6-0.1-0.8
	c-0.1-0.9-0.2-1.7-0.3-2.6c-0.1-1-0.2-2-0.4-3c0-0.2-0.1-0.3-0.3-0.4c-0.2-0.1-0.3,0-0.5,0.1c-0.1,0.1-0.1,0.3-0.1,0.4
	c0.1,0.3,0.1,0.7,0.2,1c0.1,0.6,0.1,1.2,0.2,1.9c0.1,0.3-0.1,0.4-0.3,0.5c-1.3,0.8-2.6,1.5-3.9,2.3c-1.7,0.9-3.4,1.7-5.1,2.4
	c-0.6,0.2-1.2,0.4-1.8,0.6c-1.3,0.4-2.4,0-3.3-1c-0.6-0.6-1-1.3-1.5-2c-0.5-0.9-1.1-1.9-1.6-2.8c-0.3-0.6-0.6-1.2-1-1.8
	c-0.3-0.6-0.7-1.3-1-1.9c-0.3-0.6-0.6-1.2-0.9-1.7c-0.3-0.5-0.5-1-0.8-1.5c-0.1-0.1-0.1-0.2-0.2-0.4c0.3,0,0.5,0,0.7,0
	c0.8,0,1.6-0.3,2.4-0.6c1.3-0.5,2.5-1.2,3.6-2.1c0.3-0.2,0.6-0.5,0.8-0.8c0-0.1,0.1-0.1,0.2-0.1c0.1,0.2,0.2,0.4,0.3,0.6
	c0.3,0.8,0.7,1.6,1,2.4c0.4,1,0.8,1.9,1.3,2.9c0.2,0.6,0.5,1.2,0.7,1.7c0.3,0.6,0.5,1.3,0.8,1.9c0.1,0.2,0.4,0.3,0.6,0.2
	c0.2-0.1,0.3-0.2,0.2-0.5c-0.1-0.3-0.2-0.6-0.4-0.9c-0.1-0.2-0.1-0.3-0.2-0.5c-0.1-0.3-0.1-0.3,0.1-0.5c1.5-1.2,3-2.4,4.5-3.6
	c1.4-1.1,2.9-2.1,4.5-3c1-0.6,2.1-1,3.2-1.3c1.1-0.4,2.3-0.7,3.4-1c0.1,0,0.1,0,0.2,0c0.1,0,0.1,0,0.2,0c0,0.2-0.2,0.3-0.4,0.4
	c-0.7,0.5-1.5,1-2.2,1.5c0,0-0.1,0-0.1,0.1c-0.1,0.1-0.3,0.2-0.2,0.3c0,0.2,0.2,0.2,0.3,0.2c0.7,0.2,1.5,0.5,2.2,0.7
	c0.1,0,0.3,0.1,0.4,0.2c0.1,0.1,0.1,0.1,0.1,0.2c-0.2,0.3-0.1,0.7-0.3,1c-0.2,0.2-0.5,0.4-0.7,0.6c-0.5,0.4-1,0.7-1.5,1.1
	c-0.4,0.3-0.4,0.4-0.1,0.7c0.2,0.2,0.3,0.4,0.5,0.6c0,0.1,0.1,0.1,0.1,0.2c-0.7,0.5-1.3,1.1-1.7,1.9c-0.9,1.5-1.2,3.1-1,4.8
	c0.1,0.7,0.2,1.3,0.4,1.9C46.7,77.1,46.7,77.1,46.7,77.2z"/>
<path class="st11" d="M81.7,23C81.7,23,81.7,23.1,81.7,23c0.3,0.8,0.4,1.6,0.5,2.4c0.1,0.3,0.1,0.7,0.1,1c0,0.6,0,1.1,0.1,1.7
	c0.1,0.7,0,1.4,0,2.1c0,0.3,0,0.7-0.1,1c-0.1,0.4-0.1,0.9-0.1,1.3c0,0.5-0.2,0.9-0.2,1.4c0,0.4-0.1,0.7-0.1,1.1
	c0,0.1-0.1,0.1-0.2,0.1c-0.4,0.1-0.8,0.2-1.2,0.3c-0.1,0.1-0.2,0-0.2-0.1c0-0.1-0.1-0.3-0.1-0.4c0-0.6-0.1-1.2-0.1-1.8
	c0-0.5-0.1-0.9-0.2-1.4c0-0.5-0.1-1-0.2-1.5c-0.1-0.3-0.1-0.7-0.2-1c-0.2-0.6-0.3-1.3-0.4-1.9c-0.1-0.6-0.3-1.1-0.4-1.7
	c-0.2-0.7-0.4-1.4-0.7-2.1c-0.2-0.5-0.4-1.1-0.6-1.6c0-0.1,0-0.2,0-0.3c0-0.3-0.1-0.4-0.4-0.4c-0.6-0.2-1.1-0.4-1.6-0.6
	c-0.9-0.5-1.8-1.1-2.5-1.8c-0.4-0.5-0.8-1-1-1.6c-0.2-0.4-0.3-0.8-0.3-1.1c0-0.2-0.1-0.3-0.3-0.3c-0.2-0.1-0.3-0.1-0.5,0
	c-0.1,0.1-0.2,0.2-0.3,0.3c-0.4,0.4-0.9,0.7-1.3,1c-1.1,0.6-2.3,1.1-3.5,1.5c-0.7,0.2-1.3,0.4-2,0.5c-0.6,0.1-1.2,0.2-1.9,0.3
	c-0.7,0.1-1.3,0.1-2,0.1c-0.2,0-0.5,0.1-0.7,0.1c-0.5-0.1-0.9,0-1.4-0.1c-0.4-0.1-0.8-0.1-1.2-0.2c-0.1,0-0.2,0-0.2-0.1
	c0-0.1,0.1-0.1,0.1-0.2c0.6-0.4,1.3-0.8,1.9-1.1c0.4-0.2,0.8-0.4,1.2-0.6c0.2-0.1,0.3-0.3,0.2-0.5c-0.1-0.2-0.3-0.3-0.5-0.2
	c-0.1,0-0.2,0-0.3,0c-0.9,0-1.7,0.1-2.6,0.2c-1.1,0.1-2.2,0.4-3.3,0.6c-0.8,0.2-1.6,0.4-2.3,0.7c-0.7,0.2-1.3,0.5-1.9,0.8
	c-0.3,0.1-0.5,0.3-0.8,0.4c-0.3,0.1-0.5,0.4-0.7,0.7c-0.3,0.6-0.6,1.2-0.8,1.9c-0.3,0.6-0.5,1.2-0.7,1.9c-0.2,0.7-0.4,1.3-0.6,2
	c-0.1,0.4-0.2,0.8-0.3,1.2c-0.1,0.6-0.3,1.1-0.4,1.7c-0.1,0.6-0.3,1.2-0.3,1.9c-0.1,0.5-0.2,1.1-0.2,1.6c0,0.2-0.1,0.5-0.1,0.7
	c0,0.4-0.1,0.8-0.1,1.2c0,0.4-0.1,0.8-0.1,1.2c0,0.2-0.1,0.3-0.3,0.2c-0.3-0.1-0.7-0.2-1-0.3c-0.1,0-0.1-0.1-0.2-0.1
	c-0.1-0.2,0-0.3-0.1-0.5c-0.2-0.7-0.3-1.4-0.4-2.1c-0.1-0.6-0.1-1.2-0.2-1.9c0-0.5,0-1-0.1-1.5c0-0.1,0-0.2,0-0.3
	c0-0.1-0.1-0.2,0-0.3c0.1-0.4,0-0.7,0.1-1.1c0-0.8,0.1-1.6,0.2-2.4c0.1-0.4,0.1-0.8,0.2-1.2c0.1-0.2,0.1-0.4,0.2-0.6
	c0.1-0.2,0.1-0.4,0.2-0.5c0.8-1.7,2-3.1,3.6-4.2c0.1-0.1,0.3-0.2,0.3-0.3c0.7-1,1.6-1.8,2.6-2.5c1.9-1.3,3.8-2.4,6-3.2
	c1.5-0.6,3.1-0.9,4.8-1.1c1.3-0.2,2.6-0.2,3.9-0.1c2.4,0.1,4.8,0.6,6.8,2c0.7,0.5,1.4,1.1,1.7,1.9c0.1,0.2,0.2,0.3,0.5,0.4
	c1.8,0.4,3.5,1.2,5,2.3c1.5,1.2,2.7,2.6,3.5,4.3c0.1,0.2,0.2,0.3,0.2,0.5C81.7,22.8,81.7,22.9,81.7,23z"/>
<path class="st0" d="M85.7,74.1c0,0.3-0.1,0.4-0.3,0.6c-0.8,0.6-1.7,1.1-2.6,1.6c-0.6,0.3-1.1,0.6-1.7,0.9c-0.5,0.2-0.9,0.4-1.4,0.6
	c-0.1-0.1,0-0.2,0.1-0.3c1-1.5,1.8-3.1,2.5-4.7c0.1-0.1,0.1-0.3,0-0.4c-0.2-0.1-0.3,0.1-0.3,0.2c-0.2,0.5-0.4,0.9-0.7,1.4
	c-0.4,0.8-0.8,1.5-1.2,2.2c-0.1,0.1-0.1,0.3-0.3,0.2c0-0.1,0-0.1,0-0.2c0.1-0.6,0.2-1.2,0.2-1.8c0.1-0.8,0.2-1.5,0.3-2.3
	c0.1-0.7,0.2-1.3,0.3-2c0-0.3,0-0.4-0.3-0.5c-0.2-0.1-0.4,0-0.5,0.3c0,0,0,0.1,0,0.2c0,0.2-0.1,0.4-0.1,0.7
	c-0.1,0.9-0.2,1.8-0.4,2.7c-0.1,0.8-0.2,1.7-0.4,2.5c-0.1,0.4-0.1,0.8-0.2,1.2c0,0.3-0.1,0.5-0.1,0.8c-0.1,0.2-0.2,0.3-0.3,0.3
	c-0.3,0.1-0.5,0.2-0.7,0.3c-0.1-0.1,0-0.3-0.1-0.4c0-1.5,0-3,0-4.5c0-0.1,0-0.2-0.1-0.3c-0.2-0.2-0.5-0.2-0.8-0.2
	c-0.2,0-0.4,0.1-0.6-0.1l0,0c0,0,0,0,0,0c0,0,0,0,0,0c0.4-1.8,0.3-3.6,0.2-5.4c-0.1-0.9-0.3-1.9-0.6-2.8c-0.1-0.4-0.2-0.9-0.4-1.3
	c-0.1-0.2,0.1-0.2,0.2-0.3c0.2-0.1,0.4-0.1,0.7-0.2c0.1-0.1,0.3-0.1,0.3-0.3c0-0.2-0.1-0.2-0.3-0.3c-0.5-0.3-1.1-0.7-1.6-1
	c-0.2-0.1-0.3-0.2-0.5-0.4c0-0.1-0.1-0.1-0.1-0.2c0.4,0.1,0.9,0.3,1.3,0.4c1.7,0.6,3.5,1.2,5.1,1.9c1,0.5,2,1,2.8,1.7
	c0.6,0.5,1,1.1,1.3,1.8c0.4,0.9,0.5,1.7,0.7,2.7c0.1,0.9,0.2,1.8,0.3,2.7C85.6,72.8,85.7,73.4,85.7,74.1z"/>
<path class="st0" d="M74.3,66.4c0.2,0.4,0.2,0.7,0.3,1.1c0,0.2,0,0.4,0.1,0.6c-0.2,0.5-0.6,0.8-0.9,1.2c-1.6,1.9-3.2,3.7-4.7,5.6
	c-1.5,1.8-3.1,3.6-4.6,5.4c-0.1,0.1-0.2,0.2-0.4,0.3c-0.3,0-0.6,0-0.9,0c-0.2,0-0.3,0-0.4-0.2c0.2-0.6,0.4-1.1,0.6-1.7
	c0.1-0.3,0.2-0.7,0.4-1c0.4-0.9,0.7-1.8,1-2.8c0.4-1,0.8-2.1,1.1-3.1c0.4-1.1,0.8-2.1,1.1-3.2c0.4-1,0.7-2,1.1-3
	c0.2-0.6,0.5-1.2,0.7-1.8c0.1-0.4,0.2-0.8,0.2-1.2c0.2-0.9,0-1.8-0.2-2.7c0-0.1-0.1-0.2-0.1-0.4c0.1-0.1,0.1,0,0.2,0
	c0.7,0.2,1.5,0.4,2.2,0.6c0.5,0.1,0.7,0.5,0.9,0.8c0.5,0.7,0.9,1.5,1.2,2.3c0,0.1,0.1,0.1,0.1,0.2c0,0.2-0.1,0.1-0.2,0.2
	c-0.4,0.2-0.8,0.2-1.2,0.4c-0.1,0.1-0.3,0.1-0.3,0.3c0,0.2,0.1,0.3,0.2,0.4c0.7,0.5,1.4,1,2.1,1.6C74.1,66.2,74.2,66.3,74.3,66.4z"
	/>
<path class="st10" d="M15.6,55.5c0,0.1-0.1,0.1-0.2,0.2c-0.2,0.1-0.2,0.3-0.1,0.5c0.1,0.1,0.3,0.2,0.5,0.1c0.1,0,0.2-0.1,0.3-0.2
	c1.8-1.3,3.8-2,5.9-2.3c0.3,0,0.5-0.1,0.8-0.1c0.1,0,0.2,0,0.3,0.1c0.2,0.3,0.5,0.5,0.7,0.8c0.1,0.1,0.1,0.2,0.1,0.3
	c-0.1,0.4-0.2,0.7-0.2,1.1c-0.1,1,0,1.9,0.7,2.6c0.1,0.1,0.2,0.2,0.4,0.3c0.2,0.1,0.4,0.1,0.6,0c0.2-0.1,0.2-0.3,0-0.5
	c-0.2-0.2-0.3-0.3-0.5-0.5c-0.2-0.3-0.4-0.7-0.4-1.1c-0.1-0.7,0.1-1.3,0.3-2c0.1-0.3,0.1-0.4-0.1-0.6c-0.4-0.3-0.7-0.6-1-1.1
	c-0.4-0.6-0.5-1.3-0.2-2c0.1-0.3,0.2-0.3,0.4-0.1c0.4,0.3,0.7,0.6,1,1c0.7,0.9,1.4,1.9,2.2,2.7c0.2,0.2,0.4,0.5,0.6,0.8
	c0.5,0.9,0.7,1.8,0.7,2.8c-0.1,0.7-0.3,1.3-0.8,1.9c-0.1,0.1-0.1,0.2-0.2,0.2c-0.1,0.1-0.1,0.3,0,0.4c0.1,0.1,0.2,0.2,0.4,0.2
	c0.1,0,0.2-0.1,0.3-0.1c0,0.1,0.1,0.1,0.1,0.2c0.1,0.4,0.3,0.8,0.4,1.2c0.1,0.1,0,0.2-0.1,0.2c-1.1,0.9-2.3,1.5-3.7,2
	c-0.3-0.9-0.4-1.9-0.8-2.8c0.2,0,0.3,0,0.4,0c0.3,0,0.4-0.1,0.5-0.3c0-0.2-0.1-0.3-0.4-0.4c-1.8-0.3-3.5-0.9-5.2-1.8
	c-1.4-0.7-2.7-1.6-3.8-2.6c-0.3-0.2-0.6-0.4-1-0.6c-1.6-0.8-3.2-1.5-4.8-2.3c-0.1-0.1-0.2-0.1-0.3-0.2c0.3-0.1,0.7-0.2,1-0.2
	c1.5,0.3,3,0.9,4.3,1.7C15.1,55.4,15.3,55.6,15.6,55.5L15.6,55.5z"/>
<path class="st0" d="M58.7,80.1c-0.5-0.1-1-0.1-1.5-0.2c-0.5-0.1-0.9-0.1-1.4-0.2c-0.8-0.1-1.7-0.3-2.5-0.5
	c-1.4-0.3-2.8-0.6-4.1-1.1c-0.1,0-0.1,0-0.2-0.1c-0.2-0.3-0.3-0.6-0.5-1c-0.5-1.1-0.7-2.3-0.7-3.5c0-1.1,0.3-2.1,0.9-3
	c0.3-0.5,0.7-0.9,1.1-1.2c0,0,0.1,0,0.1,0c0.3,0.1,0.4,0.4,0.6,0.6c1.3,1.5,2.6,2.9,3.9,4.4c1,1.2,2.1,2.3,3.2,3.5
	c0.3,0.4,0.7,0.7,1,1.1c0.1,0.1,0.2,0.2,0.2,0.3C58.9,79.6,58.8,79.9,58.7,80.1z"/>
<path class="st10" d="M49.5,37.8c-0.2-0.2-0.3-0.5-0.4-0.8c-0.1-0.4-0.2-0.7-0.3-1.1c-0.1-0.7,0.1-1.4,0.4-2
	c0.9-1.9,2.4-2.8,4.4-3.1c1.5-0.2,2.8,0.1,4.1,0.9c1.1,0.7,1.9,1.6,2.2,2.9c0.2,0.8,0.2,1.7-0.1,2.5c-0.3,0.9-0.9,1.6-1.7,2.2
	c-1.9,1.4-4.7,1.5-6.7,0.4c0,0,0,0-0.1-0.1c-0.1-0.1,0-0.2,0-0.3c0.1-0.3,0-0.6-0.3-0.8c-0.4-0.3-0.8-0.4-1.2-0.6
	C49.6,37.8,49.5,37.8,49.5,37.8z"/>
<path class="st10" d="M72.8,39.6c-2.1,1.1-4.9,0.9-6.7-0.6c-0.7-0.6-1.3-1.4-1.6-2.3c-0.2-0.7-0.2-1.3-0.1-2c0.2-1,0.7-1.8,1.5-2.5
	c2-1.8,5.2-2,7.4-0.5c0.9,0.6,1.5,1.3,1.9,2.3c0.4,0.9,0.4,1.8,0.1,2.7c-0.1,0.3-0.2,0.7-0.4,1c-0.1,0.1-0.3,0.1-0.5,0.2
	c-0.5,0.1-1,0.2-1.4,0.5c-0.5,0.3-0.6,0.7-0.3,1.2C72.8,39.5,72.9,39.6,72.8,39.6z"/>
<path class="st12" d="M81.4,22.3c-0.5-0.9-1.1-1.7-1.7-2.5c-0.9-1.1-2-2-3.2-2.7c-1.1-0.6-2.3-1.1-3.6-1.4c-0.2,0-0.3-0.1-0.4-0.3
	c-0.2-0.5-0.6-1-1-1.4c-0.6-0.6-1.3-1-2.1-1.3c-1.1-0.5-2.3-0.8-3.5-1c-0.8-0.1-1.6-0.2-2.3-0.2c-0.5,0-1.1,0-1.6,0
	c-1,0-2,0.1-2.9,0.3c-1.1,0.2-2.3,0.5-3.4,0.8c-1.3,0.4-2.5,1.1-3.7,1.7c-1,0.6-2,1.2-3,1.9c-0.8,0.7-1.6,1.3-2.2,2.2
	c-0.1,0.2-0.4,0.3-0.6,0.4c-1,0.7-1.8,1.5-2.4,2.4c-0.4,0.5-0.6,1-0.9,1.6c-0.1,0-0.1-0.1-0.1-0.1c0.1-0.4,0.3-0.8,0.4-1.2
	c0.5-1,1.1-2,1.9-2.8c0.5-0.5,1-0.9,1.5-1.3c0.2-0.1,0.4-0.3,0.6-0.5c0.5-0.7,1.1-1.2,1.7-1.7c0.8-0.6,1.6-1.2,2.4-1.7
	c1.6-0.9,3.2-1.8,5-2.3c1.1-0.3,2.2-0.6,3.3-0.8c0.7-0.1,1.5-0.2,2.2-0.2c0.4,0,0.8-0.1,1.2,0c0.9,0,1.9,0.1,2.8,0.2
	c1.1,0.2,2.1,0.4,3.1,0.8c1,0.4,1.9,0.9,2.6,1.7c0.3,0.3,0.6,0.7,0.8,1.2c0.1,0.2,0.2,0.4,0.5,0.4c0.8,0.1,1.5,0.4,2.2,0.7
	c1.1,0.4,2.1,1,3,1.7c0.9,0.7,1.7,1.6,2.3,2.6c0.5,0.8,1,1.7,1.3,2.6C81.5,22.1,81.5,22.2,81.4,22.3C81.5,22.3,81.5,22.4,81.4,22.3z
	"/>
<path class="st13" d="M56.3,57.4c-0.3,0.3-0.7,0.6-0.9,0.9c-0.5,0.5-0.9,1.1-1.3,1.6c-0.5,0.7-0.9,1.5-1.3,2.3
	c-0.3,0.7-0.5,1.4-0.7,2c-0.2,0.7-0.3,1.5-0.4,2.2c-0.1,0.3-0.1,0.6-0.1,0.8c0,0.3,0,0.3,0.3,0.3c0.5,0,1,0,1.4,0.1
	c0.9,0.2,1.7,0.5,2.5,1c0.7,0.4,1.3,0.9,1.8,1.5c0.7,0.7,1.2,1.5,1.6,2.4c0.1,0.3,0.2,0.6,0.3,0.8c0.2,0.5,0.2,1,0.3,1.4
	c0.1,0.5,0.2,0.9,0.2,1.4c0.1,0.9,0.2,1.8,0.1,2.8c-0.1,0.5-0.1,0.9-0.3,1.3c-0.1,0.3-0.3,0.6-0.6,0.8c-0.1,0.1-0.1,0.1-0.2,0.1
	c-0.1,0-0.1-0.1-0.1-0.2c-0.1-0.2-0.1-0.5,0.1-0.7c0.1-0.1,0.2-0.3,0.2-0.4c0.1-0.5,0.2-1,0.2-1.5c0-0.9-0.1-1.8-0.2-2.7
	c-0.1-0.6-0.2-1.2-0.3-1.8c-0.2-0.8-0.6-1.6-1-2.3c-0.4-0.7-0.9-1.2-1.5-1.8c-1-0.9-2.1-1.5-3.5-1.6c-1.7-0.2-3.2,0.4-4.3,1.8
	c-0.7,0.9-1,1.8-1.2,2.9c-0.1,0.7-0.1,1.4,0,2.1c0.1,0.4,0.1,0.8,0.3,1.3c0.3,0.9,0.7,1.6,1.1,2.4c0.4,0.7,0.8,1.4,1.3,2.1
	c0.3,0.4,0.6,0.7,0.9,1c0.2,0.1,0.3,0.3,0.5,0.3c0.4,0.1,0.4,0.4,0.5,0.6c0,0.1,0,0.2-0.1,0.1c-0.2,0-0.4-0.1-0.6-0.1
	c-0.4-0.2-0.8-0.5-1.1-0.8c-1-1.1-1.8-2.3-2.4-3.7c-0.4-0.8-0.7-1.6-0.9-2.5c-0.1-0.4-0.2-0.8-0.2-1.3c0-0.7,0-1.4,0.1-2.1
	c0.1-0.6,0.4-1.3,0.7-1.8c0.3-0.5,0.6-0.9,0.9-1.3c0.6-0.6,1.2-1.1,2-1.3c0.3-0.1,0.4-0.2,0.4-0.5c0-0.6,0.1-1.2,0.2-1.8
	c0.1-0.6,0.2-1.3,0.4-1.9c0.2-0.6,0.4-1.2,0.7-1.9c0.3-0.6,0.6-1.2,0.9-1.8c0.5-0.8,1-1.5,1.6-2.1c0.3-0.3,0.5-0.5,0.8-0.8
	c0.1-0.1,0.2-0.1,0.3-0.1C55.9,57.3,56.2,57.3,56.3,57.4z"/>
<path class="st14" d="M64.3,74c0,0.2-0.1,0.4-0.2,0.6c-0.3,0.9-0.7,1.9-1,2.8c-0.2,0.6-0.4,1.2-0.6,1.7c0,0,0,0.1-0.1,0.2
	c-0.4-0.8-0.7-1.7-1-2.5c-0.3-0.8-0.6-1.7-1-2.5c0,0,0-0.1-0.1-0.1c0,0,0-0.1,0-0.1c-0.1-0.5,0.1-1,0.2-1.4c0.1-0.8,0.3-1.6,0.4-2.5
	c0.2-1.1,0.4-2.2,0.6-3.3c0.1-0.4,0.2-0.5,0.6-0.5c0.1,0,0.3,0,0.4,0c0.4,0.1,0.5,0.2,0.6,0.6c0.2,1.2,0.4,2.4,0.7,3.5
	c0.2,1,0.4,2.1,0.6,3.1C64.2,73.6,64.3,73.8,64.3,74z"/>
<path class="st0" d="M50.6,69.1c1.5-0.6,2.9-0.4,4.3,0.4c1,0.5,1.7,1.3,2.4,2.2c0.6,0.8,1,1.7,1.3,2.7c0.2,0.7,0.3,1.4,0.4,2.1
	c0,0.7,0.1,1.3,0.1,2c-0.2,0-0.2-0.1-0.3-0.2c-1.5-1.7-3-3.3-4.5-5c-1.1-1.3-2.3-2.5-3.4-3.8C50.7,69.3,50.5,69.2,50.6,69.1z"/>
<path class="st10" d="M81.3,38.6c0.5-0.5,1.2-0.8,1.9-0.6c0.1,0,0.1,0,0.2,0c0.2,0,0.3-0.1,0.4-0.3c0-0.2-0.1-0.3-0.3-0.4
	c-0.5-0.1-0.9-0.1-1.4,0c-0.6,0.2-1.1,0.5-1.6,0.9c0,0-0.1,0.1-0.1,0.1c-0.1-0.1,0-0.1,0-0.2c0-0.5,0-0.9,0-1.4c0-0.1,0-0.3,0.2-0.3
	c0.6-0.3,1.3-0.6,2-0.5c0.6,0,1,0.3,1.4,0.7c0.3,0.4,0.5,0.8,0.7,1.3c0.3,0.8,0.3,1.7,0.2,2.5c-0.1,0.7-0.3,1.3-0.7,1.9
	c-0.4,0.7-0.8,1.3-1.3,1.9c-0.9,1.1-1.9,2-3.1,2.6c-0.2,0.1-0.4,0.2-0.7,0.3c0-0.3,0.1-0.5,0.2-0.8c0.2-0.7,0.4-1.4,0.5-2.1
	c0-0.1,0-0.1,0.1-0.2c0.1-0.1,0.3-0.1,0.5-0.2c1.1-0.4,1.7-1.2,2.2-2.2c0.2-0.6,0.4-1.1,0.3-1.7c-0.1-0.7-0.5-1.1-1.2-1.2
	C81.5,38.7,81.4,38.8,81.3,38.6z"/>
<path class="st0" d="M52.7,63.9c0.4-1.3,1-2.6,1.8-3.7c0.1-0.1,0.2-0.2,0.3-0.4c0.1-0.2,0.2-0.3,0.4-0.3c0.1,0,0.3-0.1,0.5-0.1
	c-0.1,0.3-0.1,0.6-0.2,0.8c-0.2,0.9-0.2,1.8,0,2.8c0.1,0.5,0.2,1,0.4,1.5c0.1,0.4,0.3,0.7,0.4,1.1c0.1,0.3,0.2,0.7,0.4,1
	c0.4,1,0.8,2,1.1,3c0,0,0,0,0,0.1c0,0.1,0,0.1-0.1,0.1c-0.5-0.5-1.1-1-1.8-1.3c-1.1-0.6-2.4-1-3.7-1c-0.1,0-0.1,0-0.2,0
	c0-0.9,0.2-1.8,0.4-2.7C52.7,64.4,52.7,64.1,52.7,63.9z"/>
<path class="st10" d="M44.5,44c0.1,0.2,0.1,0.5,0.2,0.7c0.1,0.8,0.4,1.5,0.6,2.2c0,0.1,0.1,0.2,0,0.3c-0.5-0.1-1-0.4-1.4-0.7
	c-1-0.7-1.9-1.5-2.7-2.5c-0.5-0.7-0.9-1.4-1.3-2.1c-0.5-1.2-0.7-2.5-0.3-3.8c0.1-0.5,0.4-0.9,0.7-1.4c0.5-0.7,1.3-0.9,2.1-0.8
	c0.5,0.1,0.9,0.3,1.3,0.5c0.1,0.1,0.2,0.2,0.2,0.3c0,0.5,0,1.1,0,1.7c-0.1,0-0.2-0.1-0.3-0.2c-0.5-0.5-1.1-0.8-1.8-0.9
	c-0.3,0-0.6,0-0.9,0.1c0,0-0.1,0-0.1,0c-0.2,0.1-0.3,0.3-0.3,0.4c0.1,0.2,0.3,0.3,0.5,0.3c0.4-0.1,0.9-0.1,1.3,0.1
	c0.3,0.1,0.6,0.3,0.8,0.6c-0.1,0.2-0.2,0.1-0.3,0c-1.2-0.3-1.8,0.6-1.8,1.4c0,1.3,0.6,2.4,1.6,3.3c0.5,0.4,1,0.6,1.7,0.5
	C44.4,43.9,44.4,43.9,44.5,44z"/>
<path class="st0" d="M67.4,65.4c-1.4-1.3-2.7-2.5-4.5-3.2c0-0.1,0-0.1,0.1-0.1c0.7-0.6,1.3-1.1,1.8-1.8c0.5-0.7,1.1-1.3,1.3-2.2
	c0-0.1,0.1-0.2,0.3-0.3c0.5-0.1,0.5-0.1,0.8,0.3c0.5,0.8,0.9,1.6,1,2.6c0.1,0.9,0.1,1.8-0.1,2.6C68,64,67.7,64.7,67.4,65.4z"/>
<path class="st0" d="M56.9,65.3c-0.4-0.9-0.7-1.7-0.8-2.6C56,61.9,56,61,56.2,60.2c0.2-0.9,0.6-1.7,1.1-2.4c0.1-0.1,0.1-0.1,0.3-0.1
	c0.3,0,0.6,0.2,0.7,0.5c0.3,0.8,0.8,1.5,1.4,2.1c0.5,0.6,1.1,1.2,1.8,1.8c-0.5,0.2-1,0.4-1.4,0.6c-0.8,0.5-1.6,1.1-2.3,1.8
	C57.5,64.8,57.2,65,56.9,65.3z"/>
<path class="st0" d="M59.9,73.1c-0.1-0.4-0.3-0.8-0.5-1.2c-0.1-0.4-0.3-0.7-0.4-1.1c-0.4-1.1-0.9-2.3-1.3-3.4
	c-0.2-0.4-0.3-0.9-0.5-1.3c-0.1-0.2,0-0.3,0.1-0.5c0.7-0.7,1.4-1.3,2.2-1.9c0,0,0,0,0,0c0.2,0,0.3,0.1,0.3,0.2
	c0.4,0.7,0.8,1.4,1.1,2c0.1,0.2,0.2,0.4,0.1,0.7c-0.3,2-0.7,4-1,6C60.1,72.9,60.2,73.2,59.9,73.1z"/>
<path class="st0" d="M64.8,63.8c0.8,0.6,1.6,1.3,2.3,2c0.1,0.1,0.1,0.2,0.1,0.4c-0.3,0.9-0.7,1.8-1,2.7c-0.2,0.6-0.4,1.2-0.7,1.8
	c-0.3,0.8-0.6,1.5-0.8,2.3c0,0,0,0.1-0.1,0.1l0,0c0,0,0,0,0,0c0,0-0.1,0-0.1-0.1c0-0.1-0.1-0.2-0.1-0.2c-0.3-1.3-0.5-2.6-0.7-3.9
	c-0.1-0.7-0.2-1.5-0.4-2.2c0-0.2,0-0.3,0.1-0.4c0.4-0.8,0.9-1.5,1.3-2.3C64.6,63.9,64.7,63.8,64.8,63.8z"/>
<path class="st13" d="M69,57.1c0.8-0.4,0.6-0.4,1.2,0.1c0.9,0.7,1.6,1.5,2.3,2.4c0.4,0.6,0.8,1.2,1.2,1.8c0.4,0.8,0.8,1.6,1.1,2.4
	c0.3,0.8,0.5,1.7,0.7,2.5c0.3,1.3,0.4,2.6,0.4,3.9c0,0.6-0.1,1.3-0.2,1.9c-0.1,0.7-0.2,1.3-0.4,2c-0.2,0.7-0.4,1.4-0.7,2.1
	c-0.2,0.6-0.5,1.1-0.8,1.7c0,0,0,0.1-0.1,0.1c-0.1,0.1-0.1,0.1-0.2,0c0,0-0.1-0.1-0.1-0.1c-0.3-0.2-0.3-0.2-0.1-0.6
	c0.5-1,0.9-2,1.2-3c0.2-0.8,0.4-1.7,0.5-2.5c0.1-1,0.1-2.1,0-3.2c-0.1-0.7-0.2-1.4-0.3-2.1c-0.2-0.8-0.4-1.6-0.7-2.4
	c-0.2-0.5-0.4-1-0.6-1.4c-0.5-1.1-1.2-2.2-2-3.1C70.8,58.7,70,57.9,69,57.1C69,57.1,69,57.1,69,57.1z"/>
<path class="st0" d="M74.3,73.7c-0.2,0.6-0.4,1.3-0.6,1.9c-0.2,0.6-0.5,1.2-0.8,1.8c-0.1,0.2-0.2,0.1-0.3,0C71.4,77,70.2,77,69,77.6
	c-0.4,0.2-0.7,0.4-1,0.7c-0.2,0-0.1-0.1-0.2-0.2c0-0.3,0-0.6,0-0.9c0-0.2,0.1-0.3,0.2-0.4c0.8-1,1.7-1.9,2.5-2.9
	c0.1-0.1,0.3-0.2,0.5-0.2c1,0,1.9,0,2.9,0C74.1,73.6,74.2,73.6,74.3,73.7z"/>
<path class="st15" d="M74.3,73.7c-0.1-0.1-0.2-0.1-0.3-0.1c-1,0-2,0-3,0c-0.2,0-0.3,0.1-0.4,0.2c-0.6,0.7-1.2,1.4-1.8,2.1
	c-0.2,0.3-0.4,0.5-0.7,0.8c0,0.1-0.1,0.1-0.1,0.2c0,0.4-0.1,0.9,0,1.3c-0.1,0.1-0.2,0.2-0.3,0.3c-0.1,0.2-0.3,0.4-0.4,0.6
	c-0.2-0.2-0.1-0.4-0.1-0.6c0-0.2,0-0.5,0-0.7c-0.7,0.8-1.4,1.6-2,2.4c-0.1,0.1-0.1,0.2-0.3,0.2c-0.7,0.8-1.4,1.6-2.1,2.5
	c-0.6,0.7-1.2,1.4-1.7,2c0,0.1-0.1,0.1-0.2,0.1c0-0.2,0.2-0.4,0.2-0.6c0.1-0.4,0.3-0.8,0.4-1.2c0.1,0,0.1-0.1,0.1-0.1
	c0.6-0.8,1.4-1.6,2-2.4c0.1-0.1,0.2-0.1,0.3-0.2c0.7-0.8,1.4-1.6,2-2.4c0.6-0.7,1.2-1.4,1.8-2.1c0.6-0.7,1.3-1.5,1.9-2.2
	c0.7-0.9,1.5-1.7,2.2-2.6c0.7-0.8,1.4-1.7,2.1-2.5c0.2-0.2,0.4-0.4,0.5-0.6c0,0.3,0.1,0.7,0.1,1c-0.1,0.2-0.1,0.3-0.3,0.4
	c-1,1.1-1.8,2.2-2.8,3.3c0,0.1-0.1,0.1-0.1,0.2c1,0,2,0,2.9,0C74.4,73.3,74.3,73.5,74.3,73.7z"/>
<path class="st16" d="M44.5,44c-0.7,0.2-1.3,0-1.8-0.4c-0.7-0.5-1.1-1.1-1.5-1.9c-0.3-0.6-0.3-1.2-0.3-1.9c0.1-0.7,0.4-1.2,1.3-1.3
	c0.2,0,0.4,0,0.6,0.1c0.1,0,0.2,0.1,0.3,0c0.2,0.1,0.3,0.3,0.5,0.5c0.2,0.2,0.3,0.5,0.5,0.7c0,0.1,0.1,0.1,0.1,0.2
	c0,0.7,0.1,1.4,0.2,2.1c0.1,0.5,0.2,1,0.2,1.5C44.5,43.9,44.5,43.9,44.5,44z"/>
<path class="st17" d="M70.9,77.7c1.3,0,2.3,0.4,3,1.4c0.6,0.8,0.7,1.7,0.2,2.7c-0.6,1.4-2.3,1.9-3.5,1.8c-0.8-0.1-1.5-0.4-2.1-0.9
	c-0.9-0.8-1.1-2.1-0.6-3.2C68.6,78.2,69.7,77.7,70.9,77.7z"/>
<path class="st16" d="M81.3,38.6c0,0,0.1,0.1,0.2,0.1c0.7,0,1.3,0.6,1.3,1.3c0.1,1.4-0.5,2.6-1.5,3.5c-0.4,0.4-0.9,0.6-1.4,0.6
	c0-0.3,0.1-0.5,0.1-0.8c0.1-1.1,0.3-2.1,0.4-3.2c0-0.2,0.1-0.3,0.2-0.5C80.8,39.2,81,38.9,81.3,38.6z"/>
<path class="st14" d="M60,63.5c0.5-0.3,1-0.6,1.5-0.8c0.4-0.1,0.8-0.2,1.2,0c0.6,0.2,1.2,0.5,1.7,0.9c0,0.1,0,0.2-0.1,0.3
	c-0.4,0.6-0.7,1.3-1.1,2c-0.2,0.3-0.2,0.4-0.6,0.3c-0.3-0.1-0.6-0.1-0.9,0c-0.2,0.1-0.4,0-0.5-0.2c-0.4-0.7-0.8-1.3-1.1-1.9
	C60,63.8,59.9,63.7,60,63.5z"/>
<path class="st18" d="M60,63.5c0,0.1,0.1,0.2,0.1,0.4c0.4,0.7,0.8,1.4,1.2,2c0.1,0.1,0.2,0.2,0.3,0.1c0.4-0.1,0.7-0.1,1.1,0
	c0.2,0.1,0.3,0.1,0.4-0.1c0.2-0.4,0.5-0.8,0.7-1.2c0.2-0.4,0.4-0.7,0.6-1.1c0.1,0.1,0.3,0.2,0.4,0.3c-0.2,0.2-0.3,0.4-0.4,0.6
	c-0.4,0.6-0.7,1.3-1.1,1.9c-0.1,0.1-0.1,0.2-0.1,0.3c0.1,0.5,0.2,0.9,0.3,1.4c0.2,0.9,0.4,1.9,0.5,2.8c0.1,0.7,0.3,1.4,0.4,2.1
	c0,0.1,0,0.1,0.1,0.2l0,0c0,0,0,0.1,0.1,0.1c-0.1,0.3-0.2,0.5-0.3,0.8c-0.1-0.3-0.1-0.6-0.2-0.8c-0.2-0.8-0.3-1.6-0.5-2.4
	c-0.1-0.4-0.1-0.9-0.2-1.3c-0.1-0.6-0.2-1.3-0.4-1.9c-0.1-0.3-0.1-0.6-0.2-0.9c0-0.2-0.1-0.2-0.2-0.3c-0.3-0.1-0.6-0.1-0.9,0
	c-0.1,0-0.2,0.1-0.2,0.3c-0.1,0.4-0.2,0.9-0.2,1.3c-0.1,0.6-0.2,1.3-0.3,1.9c-0.1,0.8-0.2,1.5-0.4,2.3c-0.1,0.6-0.2,1.2-0.3,1.8
	c-0.1-0.1-0.1-0.2-0.2-0.3c-0.1-0.2-0.1-0.4-0.2-0.5c0.1,0,0.1-0.1,0.1-0.1c0.2-1,0.3-2,0.5-3c0.1-0.8,0.3-1.6,0.4-2.4
	c0.1-0.4,0.1-0.7,0.2-1.1c0-0.1,0-0.2-0.1-0.3c-0.3-0.5-0.5-0.9-0.8-1.4c-0.2-0.3-0.3-0.5-0.5-0.8c-0.1-0.1-0.1-0.2-0.2-0.3
	C59.7,63.7,59.8,63.6,60,63.5z"/>
<path class="st0" d="M74.7,79.2c-0.1-0.1-0.1-0.3-0.2-0.4c-0.1-0.1-0.3-0.3-0.3-0.4c0-0.1,0.1-0.3,0.2-0.5c0.3-0.6,0.6-1.2,0.8-1.8
	c0.3-0.8,0.5-1.5,0.7-2.3c0.1-0.2,0.4-0.3,0.7-0.2c0.2,0.1,0.2,0.2,0.2,0.4c0,1.5,0,3,0,4.5c0,0.2,0,0.4-0.2,0.4
	c-0.6,0.2-1.1,0.3-1.7,0.5c-0.1,0-0.1,0-0.2,0l0,0C74.8,79.4,74.7,79.3,74.7,79.2z"/>
<path class="st19" d="M50.3,40c-0.1,0.1-0.3,0.1-0.4,0.2c-0.5,0.2-1,0.2-1.6,0.2c-0.8,0-1.5-0.1-2.2-0.4c-0.2-0.1-0.5-0.2-0.7-0.4
	c-0.4-0.3-0.3-0.9,0.1-1.2c0.3-0.2,0.7-0.4,1.1-0.5c0.5-0.1,0.9-0.2,1.4-0.2c0.1,0,0.2,0,0.3-0.1c0.2,0.2,0.2,0.4,0.3,0.6
	c0.4,0.7,1,1.2,1.6,1.7C50.2,39.9,50.3,39.9,50.3,40z"/>
<path class="st15" d="M50.6,69.1c0,0.1,0.1,0.2,0.1,0.2c0.8,0.9,1.6,1.8,2.4,2.6c0.7,0.8,1.4,1.6,2.2,2.4c0.6,0.7,1.2,1.3,1.8,2
	c0.5,0.6,1.1,1.2,1.6,1.8c0.1,0.1,0.2,0.2,0.3,0.3c0,0.3-0.1,0.7-0.1,1c-0.6-0.7-1.2-1.4-1.9-2.1c-0.7-0.8-1.4-1.6-2.1-2.3
	c-0.7-0.8-1.5-1.6-2.2-2.4c-0.6-0.7-1.2-1.4-1.8-2c-0.3-0.4-0.7-0.7-0.9-1.1C50.2,69.2,50.4,69.2,50.6,69.1z"/>
<path class="st10" d="M65.4,58.3c-0.6,1.1-1.4,2-2.3,2.9c-0.2,0.2-0.5,0.4-0.7,0.6c-0.1,0.1-0.2,0.1-0.4,0c-0.5-0.4-0.9-0.8-1.3-1.2
	c-0.3-0.3-0.5-0.6-0.8-0.9c0-0.3,0.2-0.2,0.3-0.2c0.5,0,0.9-0.1,1.4-0.1c1.2-0.2,2.3-0.6,3.4-1.1C65.2,58.2,65.2,58.2,65.4,58.3z"/>
<path class="st19" d="M76.1,37.6c0.3,0.1,0.6,0.1,1,0.2c0.5,0.1,0.9,0.3,1.3,0.6c0.4,0.3,0.4,0.8,0.1,1.1c-0.2,0.2-0.4,0.3-0.6,0.4
	c-0.5,0.2-1.1,0.4-1.7,0.4c-0.5,0.1-0.9,0-1.4,0c-0.3,0-0.7-0.1-1-0.2c0.5-0.4,1-0.8,1.5-1.3C75.6,38.4,75.9,38,76.1,37.6z"/>
<path class="st15" d="M76.1,73.1c0.3,0,0.7,0,1,0c0.2,0,0.4,0,0.4,0.2c0,0.1,0,0.3,0,0.4c0,3,0,5.9,0,8.9c0,0.1,0,0.2,0,0.3
	c0,0.2-0.1,0.3-0.3,0.3c0,0,0,0-0.1,0c-1.2,0-2.4,0-3.6,0c0.2-0.2,0.4-0.4,0.6-0.6c0.7-0.1,1.4,0,2.1,0c0.5,0,0.5,0,0.5-0.5
	c0-2.5,0.1-4.9,0.1-7.4c0-0.3,0-0.5,0-0.8c0-0.2-0.1-0.3-0.3-0.3c-0.2,0-0.4,0-0.6,0C76,73.5,76,73.3,76.1,73.1z"/>
<path class="st9" d="M76,73.7c0.2,0,0.5,0,0.7,0c0.1,0,0.2,0.1,0.2,0.2c0,0.1,0,0.2,0,0.2c0,2.8,0,5.5,0,8.3c0,0.4,0,0.4-0.4,0.4
	c-0.7,0-1.4,0-2.1,0c-0.1,0-0.2,0-0.3-0.1c0.8-0.9,1-1.9,0.7-3c0-0.1-0.1-0.2-0.1-0.3c0.4-0.2,0.9-0.3,1.4-0.4
	c0.6-0.2,0.6-0.2,0.6-0.8c0-1.4,0-2.7,0-4.1c0-0.1,0-0.2,0-0.3c0-0.1,0-0.1-0.1-0.1c-0.3,0-0.5-0.1-0.8,0.1
	C75.9,73.8,76,73.7,76,73.7z"/>
<path class="st10" d="M15.8,55.3c0.1-0.2-0.1-0.4-0.2-0.5c-0.6-0.4-1.3-0.8-2-1c-0.9-0.4-1.9-0.7-2.9-0.9c-0.3-0.1-0.5-0.3-0.6-0.5
	c-0.1-0.1,0-0.3,0.1-0.3c0.2-0.1,0.4-0.1,0.6,0c1,0.1,1.9,0.3,2.8,0.6c1.4,0.4,2.7,1,3.9,1.7c0,0,0.1,0.1,0.2,0.1
	c-0.6,0.3-1.1,0.6-1.7,1C15.9,55.4,15.9,55.3,15.8,55.3z"/>
<path class="st0" d="M74.4,73.1c-0.1,0.1-0.1,0.1-0.2,0.1c-1,0-1.9,0-3,0c0.2-0.3,0.4-0.5,0.6-0.7c0.7-0.9,1.5-1.7,2.2-2.6
	c0.2-0.2,0.4-0.5,0.6-0.7c0.1,1.2,0,2.4-0.2,3.6C74.5,72.9,74.4,73,74.4,73.1z"/>
<path class="st16" d="M65.4,58.3c-0.1-0.1-0.1,0-0.2,0c-0.5,0.3-1.1,0.5-1.6,0.7c-0.6,0.2-1.2,0.4-1.9,0.5c-0.5,0.1-1.1,0.2-1.6,0.1
	c-0.1,0-0.2,0-0.2,0.1c-0.7-0.8-0.9-1.2-1-1.7c2.2,0.4,4.4,0.4,6.7,0C65.5,58.1,65.5,58.2,65.4,58.3z"/>
<path class="st10" d="M13.8,50.4c0.1-0.2,0.3-0.2,0.5-0.2c0.6-0.1,1.1,0,1.7,0.2c1.3,0.3,2.6,0.9,3.7,1.6c0.6,0.3,1.3,0.7,1.9,1.1
	c0,0,0.1,0,0.1,0.1c-0.4,0.1-0.8,0.2-1.2,0.3c-0.2,0-0.2-0.1-0.3-0.2c-0.6-0.5-1.3-0.9-1.9-1.2c-1.3-0.7-2.7-1.2-4.1-1.5
	C13.9,50.5,13.9,50.4,13.8,50.4C13.8,50.4,13.8,50.4,13.8,50.4z"/>
<path class="st10" d="M19.3,53.7c-0.2,0.1-0.5,0.2-0.7,0.3c-0.2,0.1-0.3,0-0.4-0.1c-0.8-0.5-1.6-0.9-2.4-1.2c-1.3-0.6-2.7-1-4.2-1.2
	c-0.1,0-0.2,0-0.2-0.1c0-0.2,0.2-0.3,0.4-0.3c0.3-0.1,0.7-0.1,1,0c2.2,0.3,4.1,1.1,6,2.2C18.9,53.3,19.1,53.5,19.3,53.7
	C19.3,53.6,19.3,53.7,19.3,53.7z"/>
<path class="st15" d="M50.9,64.2c0-0.2-0.1-0.2-0.2-0.2c-0.6-0.2-1.2-0.4-1.8-0.6c-0.3-0.1-0.5-0.2-0.8-0.3c-0.2,0-0.3-0.1-0.3-0.3
	c0-0.2,0.1-0.3,0.2-0.3c0.9-0.6,1.7-1.2,2.6-1.8c0.1,0,0.1-0.1,0.2-0.1c0,0,0.1-0.1,0.1-0.1c0,0,0.1,0,0.1-0.1
	c0.5-0.1,1-0.3,1.5-0.4c0,0.1,0,0.2-0.1,0.2c0,0,0,0.1-0.1,0.1c0,0-0.1,0.1-0.1,0.1c-0.6,0.5-1.2,0.9-1.9,1.3
	c-0.5,0.3-0.9,0.6-1.4,1c0.5,0.2,1,0.3,1.5,0.5c0.2,0.1,0.4,0.1,0.5,0.2C51,63.7,51,63.9,50.9,64.2z"/>
<path class="st0" d="M51.1,63.4c-0.4-0.1-0.9-0.3-1.3-0.4c-0.3-0.1-0.6-0.2-0.9-0.3c0.2-0.2,0.4-0.3,0.6-0.5
	c0.9-0.6,1.8-1.2,2.6-1.8c0.1,0,0.1-0.1,0.2-0.1c0,0,0,0.1,0,0.1c-0.1,0.2-0.2,0.4-0.3,0.6C51.7,61.8,51.4,62.6,51.1,63.4
	C51.1,63.4,51.1,63.4,51.1,63.4z"/>
<path class="st0" d="M65,80.5c0.8-0.9,1.6-1.8,2.4-2.8c0.1,0.3,0,0.5,0.1,0.8c0,0.2,0,0.5,0,0.7c-0.2,0.2-0.2,0.5-0.3,0.7
	C67,80.1,67,80.3,67,80.5c0,0,0,0,0,0c-0.6,0.1-1.1,0.1-1.7,0.1C65.2,80.6,65.1,80.6,65,80.5z"/>
<path class="st15" d="M74.3,66.4c-0.3-0.2-0.6-0.4-0.9-0.7c-0.6-0.4-1.1-0.8-1.7-1.2c-0.1-0.1-0.2-0.1-0.2-0.2c0-0.2,0-0.3,0.3-0.4
	c0.4-0.1,0.9-0.3,1.3-0.4c0.1,0,0.2,0,0.3-0.1c0.1,0.2,0.1,0.4,0.3,0.7c-0.2,0.2-0.6,0.2-0.9,0.4c0.4,0.4,0.8,0.6,1.2,0.9
	c0.1,0.1,0.1,0.1,0.1,0.2C74.2,65.8,74.3,66.1,74.3,66.4z"/>
<path class="st15" d="M48.9,68.3c-0.2-0.3-0.4-0.5-0.7-0.8c0-0.1-0.1-0.1-0.2-0.2c-0.1-0.2-0.1-0.3,0.1-0.5c0.8-0.6,1.5-1.1,2.3-1.7
	c0,0,0.1,0,0.1,0c0,0.3-0.1,0.6-0.2,0.9c-0.2,0.3-0.6,0.5-0.9,0.8c-0.5,0.4-0.5,0.4-0.1,0.8c0.1,0.1,0.2,0.1,0.1,0.2
	C49.4,68.1,49.2,68.2,48.9,68.3z"/>
<path class="st19" d="M72.8,39.6c-0.1-0.2-0.3-0.3-0.3-0.5c0-0.4,0.1-0.6,0.4-0.8c0.5-0.3,1-0.5,1.6-0.6c0.2,0,0.3,0,0.5-0.1
	c-0.3,0.6-0.8,1.1-1.3,1.5C73.4,39.3,73.1,39.5,72.8,39.6z"/>
<path class="st20" d="M70.6,59.2c-0.7-0.2-1.4-0.4-2.1-0.6c-0.1,0-0.2-0.1-0.2-0.2c-0.2-0.3-0.4-0.6-0.6-1c0.2-0.1,0.4-0.1,0.6-0.2
	c0.1,0,0.2,0,0.3,0.1c0.6,0.4,1.2,0.9,1.7,1.5C70.4,58.9,70.6,59,70.6,59.2C70.6,59.2,70.6,59.2,70.6,59.2z"/>
<path class="st20" d="M60.7,77.2c0.4,1,0.7,1.9,1.1,2.9c0,0.1,0.1,0.2,0,0.3c-0.4,0-0.8,0-1.1-0.1c-0.2-0.1-0.4-0.2-0.3-0.5
	c0.2-0.7,0.2-1.5,0.2-2.3C60.7,77.5,60.5,77.4,60.7,77.2z"/>
<path class="st21" d="M74.1,61.2c0.5,0.2,0.9,0.6,1.3,0.8c0.3,0.2,0.6,0.4,0.9,0.6c0.3,0.2,0.3,0.4-0.1,0.6
	c-0.3,0.1-0.6,0.2-0.9,0.3c-0.1,0-0.2,0.1-0.2,0.2c-0.1-0.2-0.2-0.5-0.3-0.7c0-0.1,0.2-0.1,0.2-0.2c-0.1-0.1-0.2-0.1-0.3-0.2
	c-0.1,0-0.1-0.1-0.2-0.1C74.5,62,74.3,61.6,74.1,61.2z"/>
<path class="st22" d="M64,80.5c-0.5,0.6-1,1.2-1.5,1.8c-0.2,0.3-0.5,0.6-0.7,0.9c-0.1,0-0.1,0-0.1-0.1c0.2-0.6,0.4-1.2,0.6-1.8
	c0.1-0.3,0.2-0.6,0.3-0.9c0.1,0.1,0.2,0.1,0.4,0.1C63.4,80.5,63.7,80.5,64,80.5z"/>
<path class="st20" d="M22.2,64.7c0.4-0.6,1-0.9,1.6-1.3c0.1,0.3,0.1,0.5,0.2,0.7c0,0.1,0,0.3,0.1,0.4c0.1,0.4,0.1,0.4-0.3,0.4
	c-0.4,0-0.7,0.1-1.1,0C22.5,64.9,22.4,64.8,22.2,64.7z"/>
<path class="st23" d="M57.9,80.8c0.4,0,0.4,0,0.5,0.4c0,0.1,0,0.1,0.1,0.2c0.1,0.2,0,0.4-0.2,0.5c-0.3,0.2-0.8,0.3-1.2,0.1
	c-0.3-0.2-0.4-0.6-0.1-0.8C57.3,80.9,57.5,80.8,57.9,80.8z"/>
<path class="st23" d="M53.2,81.9c0.3,0,0.5,0,0.7,0.2c0.1,0.2,0.2,0.3,0.1,0.5c-0.2,0.4-0.8,0.6-1.2,0.5c-0.1,0-0.1,0-0.2-0.1
	c-0.1-0.2-0.2-0.5-0.2-0.8c0-0.1,0.1-0.2,0.2-0.2C52.8,81.9,53,81.9,53.2,81.9z"/>
<path class="st20" d="M49.6,68c-0.2-0.2-0.3-0.4-0.5-0.6c-0.1-0.1-0.1-0.2,0-0.3c0.5-0.3,0.9-0.7,1.4-1c0,0.5-0.1,0.9-0.1,1.4
	c0,0.1,0,0.2-0.1,0.2C50,67.8,49.8,67.9,49.6,68z"/>
<path class="st19" d="M49.5,37.8c0.7,0,1.2,0.3,1.7,0.7c0.2,0.2,0.3,0.4,0.2,0.7c0,0.1-0.1,0.2-0.1,0.3c-0.6-0.3-1-0.7-1.4-1.2
	C49.7,38.1,49.5,38,49.5,37.8z"/>
<path class="st15" d="M60.5,79.9c0,0.2,0.2,0.3,0.3,0.4c0.4,0.3,0.7,0.6,0.9,1c-0.1,0.3-0.1,0.5-0.3,0.7c-0.3-0.4-0.7-0.7-1-1.1
	c-0.1-0.1-0.1-0.1-0.2-0.1C60.3,80.5,60.4,80.2,60.5,79.9z"/>
<path class="st24" d="M74,65.4c-0.5-0.3-0.9-0.7-1.4-1c0.4-0.1,0.7-0.3,1.1-0.3C73.8,64.4,74,64.8,74,65.4
	C74.1,65.4,74,65.4,74,65.4z"/>
<path class="st25" d="M29.5,61.9c-0.1-0.4-0.2-0.6-0.3-0.9c0-0.1,0-0.1,0.1-0.1c0.1,0,0.2-0.1,0.4-0.1c0.3,0,0.4,0.1,0.3,0.3
	C29.9,61.4,29.7,61.6,29.5,61.9z"/>
<path class="st26" d="M68.4,83.2c-0.2,0-0.5,0-0.7,0c-0.3,0-0.3-0.1-0.4-0.3c0-0.3,0-0.6,0-0.9c0.2,0.4,0.5,0.8,0.9,1
	C68.3,83.1,68.4,83.2,68.4,83.2z"/>
<path class="st27" d="M61.6,81.3c-0.3-0.3-0.6-0.6-0.9-1c0.3,0.1,0.6,0.1,0.9,0.1c0.1,0,0.2,0,0.3,0.1C61.8,80.8,61.7,81,61.6,81.3z
	"/>
<path class="st28" d="M74.9,62.4c0.2,0.1,0.3,0.2,0.5,0.3c-0.1,0.1-0.3,0.1-0.4,0.2c-0.1-0.1-0.1-0.2-0.1-0.3
	C74.8,62.5,74.8,62.4,74.9,62.4z"/>
<path class="st29" d="M52.7,63.9c0,0,0,0.1,0,0.1c0.1,0.3,0.1,0.4-0.2,0.6C52.5,64.3,52.6,64.1,52.7,63.9z"/>
<path class="st30" d="M42.6,22.8c0,0.1,0,0.1,0.1,0.1c0,0.2-0.2,0.3-0.2,0.5c-0.1,0-0.1-0.1-0.1-0.1C42.5,23.1,42.5,22.9,42.6,22.8z
	"/>
<path class="st31" d="M56.1,58.3c0,0.2-0.1,0.3-0.4,0.3C55.8,58.4,56,58.3,56.1,58.3C56.1,58.2,56.1,58.2,56.1,58.3
	C56.1,58.3,56.1,58.3,56.1,58.3z"/>
<path class="st32" d="M42.4,23.3c0,0,0,0.1,0.1,0.1c-0.1,0.2-0.1,0.4-0.3,0.5C42.3,23.8,42.3,23.5,42.4,23.3z"/>
<path class="st33" d="M81.4,22.3C81.4,22.3,81.5,22.3,81.4,22.3c0.2,0.1,0.2,0.3,0.3,0.5c0,0,0,0-0.1,0
	C81.6,22.6,81.4,22.5,81.4,22.3z"/>
<path class="st9" d="M67,80.5c0-0.2-0.1-0.5,0.1-0.7C67.1,80.1,67,80.3,67,80.5z"/>
<path class="st34" d="M60.7,77.2c-0.1,0.1,0,0.3-0.1,0.4c-0.1-0.2,0-0.4-0.1-0.6C60.7,77.1,60.7,77.2,60.7,77.2z"/>
<path class="st35" d="M74.9,62.4c-0.1,0-0.1,0.1-0.1,0.1c0-0.1-0.1-0.1-0.1-0.2C74.8,62.2,74.8,62.4,74.9,62.4z"/>
<path class="st36" d="M57.3,17.8c0-0.1-0.1,0-0.1-0.1c0.1-0.1,0.2-0.1,0.3,0C57.5,17.8,57.4,17.8,57.3,17.8z"/>
<path class="st37" d="M56.1,58.2c0-0.1,0.1-0.1,0.2-0.2C56.3,58.2,56.2,58.2,56.1,58.2C56.1,58.3,56.1,58.3,56.1,58.2
	C56.1,58.3,56.1,58.2,56.1,58.2z"/>
<path class="st38" d="M50.9,60.6c0,0-0.1,0-0.1,0.1c0-0.1-0.1,0-0.1-0.1C50.7,60.5,50.7,60.5,50.9,60.6
	C50.9,60.5,50.9,60.5,50.9,60.6z"/>
<path class="st9" d="M74.7,79.2c0.1,0,0.1,0.1,0.1,0.2C74.7,79.4,74.7,79.3,74.7,79.2z"/>
<path class="st39" d="M57.7,69.6C57.7,69.6,57.7,69.6,57.7,69.6c0.1,0,0.1,0,0.1,0.1C57.7,69.8,57.7,69.7,57.7,69.6z"/>
<path class="st40" d="M74,65.4C74,65.3,74,65.3,74,65.4c0.2,0,0.1,0,0.1,0.1C74,65.5,74,65.4,74,65.4z"/>
<path class="st41" d="M61.7,83.1C61.7,83.1,61.8,83.2,61.7,83.1c0,0.1,0,0.3-0.1,0.1C61.7,83.2,61.7,83.2,61.7,83.1z"/>
<path class="st42" d="M50.9,60.6C50.9,60.5,50.8,60.5,50.9,60.6c0-0.1,0.1-0.1,0.1-0.1C51,60.5,50.9,60.5,50.9,60.6z"/>
<path class="st43" d="M81.6,22.8C81.6,22.8,81.7,22.8,81.6,22.8c0.1,0.1,0.1,0.1,0.1,0.2C81.7,23,81.6,22.9,81.6,22.8z"/>
<path class="st44" d="M15.8,55.3c0,0,0.1,0,0.1,0c-0.1,0.1-0.1,0.1-0.2,0.1l0,0C15.7,55.4,15.8,55.3,15.8,55.3z"/>
<path class="st45" d="M64.6,73.2c-0.1,0-0.1-0.1-0.1-0.1c0,0,0,0,0.1,0C64.6,73.1,64.6,73.2,64.6,73.2z"/>
<path class="st45" d="M64.6,73.1c0-0.1,0-0.1,0.1-0.1C64.7,73,64.7,73,64.6,73.1z"/>
<path class="st46" d="M70.6,59.2C70.6,59.1,70.6,59.1,70.6,59.2c0.1,0,0.1,0,0.1,0C70.6,59.2,70.6,59.2,70.6,59.2z"/>
<path class="st47" d="M52.4,60.3C52.4,60.3,52.4,60.3,52.4,60.3C52.5,60.3,52.5,60.3,52.4,60.3C52.4,60.4,52.4,60.4,52.4,60.3
	C52.4,60.3,52.4,60.3,52.4,60.3z"/>
<path class="st48" d="M52.4,60.3C52.4,60.3,52.4,60.4,52.4,60.3c0,0.1,0,0.1-0.1,0.1C52.4,60.4,52.4,60.4,52.4,60.3
	C52.4,60.3,52.4,60.3,52.4,60.3z"/>
<path class="st18" d="M60.3,74.1c0,0,0.1,0.1,0.1,0.1C60.3,74.2,60.3,74.2,60.3,74.1z"/>
<path class="st15" d="M76.1,73.1C76.1,73.1,76.1,73.1,76.1,73.1C76,73.1,76,73.1,76.1,73.1z"/>
<path class="st10" d="M15.7,55.4C15.7,55.5,15.7,55.5,15.7,55.4C15.6,55.5,15.7,55.5,15.7,55.4C15.6,55.5,15.7,55.5,15.7,55.4
	C15.7,55.5,15.7,55.4,15.7,55.4z"/>
<path class="st49" d="M56.1,58.3C56.1,58.3,56.1,58.2,56.1,58.3C56.2,58.3,56.1,58.3,56.1,58.3C56.1,58.3,56.1,58.3,56.1,58.3z"/>
<polygon class="st19" points="50.4,40 50.4,40 50.4,40 50.4,40 "/>
<path class="st50" d="M63.5,85.5c-0.3,0-0.6-0.1-0.8-0.3c-0.5-0.4-0.4-1.1,0.1-1.4c0.5-0.3,1.2-0.3,1.6,0.2c0.3,0.4,0.3,1-0.2,1.3
	C64,85.5,63.7,85.5,63.5,85.5z"/>
<path class="st15" d="M79.8,76.4c0.2-0.1,0.3-0.4,0.4-0.6c0.3-0.6,0.7-1.2,1-1.8c0.3-0.5,0.5-1,0.7-1.5c0.1-0.1,0.2-0.2,0.3-0.2
	c0.2,0,0.3,0.2,0.2,0.4c-0.2,0.4-0.4,0.8-0.6,1.2c-0.2,0.5-0.5,0.9-0.7,1.3c-0.4,0.8-0.9,1.6-1.4,2.3c0,0,0,0.1-0.1,0.1
	c-0.1,0-0.1,0.1-0.2,0.1c0.1-0.4,0.1-0.9,0.2-1.3C79.8,76.5,79.8,76.5,79.8,76.4z"/>
<path class="st51" d="M79.8,76.4c0,0.1,0,0.1-0.1,0.1c0-0.1,0-0.2,0-0.3C79.8,76.3,79.8,76.4,79.8,76.4z"/>
<path class="st8" d="M62.2,51c-1.9,0-3.7-0.6-5.2-1.6c-0.9-0.6-1.8-1.4-2.5-2.2c-0.2-0.2-0.3-0.5-0.5-0.7c-0.2-0.2-0.2-0.4,0-0.5
	c0.2-0.2,0.5-0.1,0.6,0.1c0.2,0.3,0.4,0.6,0.6,0.8c1.3,1.5,3,2.7,5,3.2c2.2,0.5,4.2,0.2,6.1-0.9c1.2-0.7,2.2-1.6,3.1-2.7
	c0.1-0.2,0.2-0.3,0.3-0.5c0.2-0.2,0.5-0.2,0.7,0c0.1,0.1,0.1,0.2,0,0.4c-0.4,0.6-0.8,1.1-1.3,1.5c-1,1-2.1,1.8-3.4,2.4
	C64.6,50.7,63.4,51,62.2,51z"/>
<path class="st8" d="M61.8,39.3c0.1,0,0.2,0,0.4,0c0.2,0.1,0.3,0.3,0.2,0.5c0,0.1-0.1,0.2-0.2,0.2c-0.5,0.6-1,1.2-1.5,1.9
	c-0.2,0.3-0.2,0.5,0,0.8c0.3,0.4,0.7,0.8,1.1,1.1c0.2,0.2,0.2,0.4,0.1,0.5c-0.1,0.2-0.4,0.2-0.6,0.1c-0.3-0.2-0.5-0.4-0.8-0.6
	c-0.3-0.3-0.5-0.6-0.7-0.9c-0.2-0.4-0.2-0.8,0-1.2c0.2-0.4,0.5-0.8,0.8-1.2c0.1-0.1,0.1-0.2,0.1-0.3c0.1-0.8,0.1-1.6-0.1-2.4
	c0-0.1,0-0.1,0-0.2c-0.1-0.3,0.1-0.5,0.3-0.5c0.2,0,0.4,0.1,0.5,0.3c0.1,0.5,0.2,1.1,0.3,1.7C61.8,39.2,61.8,39.2,61.8,39.3z"/>
<path class="st11" d="M70.6,25.4c1.1,0,2.3,0.3,3.3,1c0.6,0.5,1.2,1,1.4,1.8c0.1,0.2,0,0.4-0.1,0.5c-0.1,0.1-0.3,0.1-0.5,0.1
	c-0.2-0.1-0.5-0.2-0.7-0.3c-0.8-0.5-1.5-0.9-2.4-1.2c-2-0.5-3.8-0.1-5.4,1c-0.1,0-0.1,0.1-0.2,0.2c-0.1,0.1-0.2,0.1-0.3,0.2
	c-0.2,0.1-0.5,0.1-0.6-0.1c-0.2-0.2-0.2-0.4,0-0.6c0.4-0.7,1-1.2,1.7-1.6C67.9,25.7,69.1,25.4,70.6,25.4z"/>
<path class="st11" d="M54.4,25.4c1.1,0,2.5,0.5,3.8,1.4c0.4,0.3,0.7,0.6,0.9,1c0.1,0.1,0.2,0.3,0.2,0.4c0,0.4-0.2,0.6-0.6,0.5
	c-0.1,0-0.2-0.1-0.3-0.2c-0.8-0.8-1.8-1.2-2.9-1.4c-1.6-0.3-3.1,0-4.5,0.9c-0.3,0.2-0.7,0.4-1,0.6c0,0-0.1,0.1-0.1,0.1
	c-0.3,0.1-0.6,0.1-0.7,0c-0.2-0.2-0.1-0.5,0-0.7c0.3-0.7,0.8-1.2,1.5-1.7C51.6,25.6,52.7,25.4,54.4,25.4z"/>
<path class="st0" d="M56.7,33.8c0.4,0,0.4,0.4,0.4,0.6c0.2,0.8,0.1,1.5-0.3,2.3c-0.5,1-1.3,1.7-2.5,1.9c-0.8,0.1-1.6-0.1-2.3-0.7
	c-0.8-0.7-1.2-1.6-1.2-2.7c0-0.1,0-0.2,0-0.3c0.3-0.2,0.3-0.6,0.5-0.9c1.2-0.9,2.5-1.4,4.1-1.1c0.2,0,0.4,0.1,0.7,0.2
	C56.4,33.3,56.4,33.6,56.7,33.8z"/>
<path class="st8" d="M56.7,33.8c-0.2-0.1-0.3-0.2-0.3-0.4c0-0.1-0.1-0.2-0.2-0.3C56.1,33.1,56,33,56,33c-0.6-0.7-1.3-1-2.2-0.7
	c-0.9,0.2-1.6,0.7-2.1,1.5c-0.1,0.1-0.2,0.3-0.3,0.4c-0.1,0.1-0.1,0.2-0.1,0.4c0,0.3-0.2,0.4-0.4,0.5c0,0-0.1,0-0.1,0
	c-0.3-0.1-0.4-0.2-0.3-0.5c0.1-0.3,0.2-0.6,0.3-0.9c0.8-1.4,2-2.1,3.6-2.1c1.2,0,2,0.6,2.6,1.6c0.1,0.1,0.1,0.2,0.2,0.3
	C57.3,33.6,57.2,33.8,56.7,33.8C56.8,33.8,56.7,33.8,56.7,33.8z"/>
<path class="st0" d="M73.4,34.9c0,0.3,0,0.7-0.1,1c-0.3,1.2-1,2.1-2.2,2.5c-1.2,0.4-2.5-0.1-3.2-1c-0.4-0.4-0.6-0.9-0.7-1.5
	c-0.2-0.6-0.1-1.3,0-1.9c0-0.2,0.2-0.3,0.4-0.3c0.2-0.2,0.3-0.5,0.5-0.7c1-0.5,2-0.5,3-0.2c0.7,0.2,1.3,0.5,1.9,1
	c0.1,0.1,0.1,0.2,0.2,0.3C73.1,34.5,73.3,34.7,73.4,34.9z"/>
<path class="st8" d="M73.4,34.9c-0.2-0.1-0.3-0.2-0.4-0.4c0-0.2-0.1-0.3-0.2-0.4c-0.1-0.1-0.2-0.2-0.2-0.3c-0.5-0.9-1.3-1.4-2.4-1.6
	c-0.7-0.1-1.3,0.1-1.7,0.6c-0.2,0.2-0.3,0.3-0.4,0.5C68,33.3,68,33.4,68,33.5c-0.1,0.2-0.2,0.3-0.4,0.4c0,0-0.1,0-0.1,0
	c-0.4,0-0.5-0.2-0.4-0.5c0.1-0.4,0.4-0.8,0.7-1.1c0.8-0.8,1.8-0.9,2.9-0.7c1.1,0.2,1.9,0.8,2.6,1.7c0.3,0.4,0.5,0.9,0.6,1.3
	c0,0.2,0,0.3-0.2,0.4C73.6,34.9,73.5,34.9,73.4,34.9z"/>
<path class="st45" d="M64.5,73.1c-0.1-0.1-0.1-0.1-0.1-0.2C64.5,72.9,64.5,73,64.5,73.1z"/>
<path class="st50" d="M71,78.3c0.9,0,1.7,0.3,2.3,1.1c0.5,0.8,0.5,1.5,0,2.3c-0.9,1.3-3,1.5-4.3,0.3c-0.6-0.6-0.8-1.3-0.6-2.1
	c0.2-0.7,0.7-1.1,1.4-1.4C70.2,78.4,70.6,78.3,71,78.3z"/>
<path class="st52" d="M63.5,85c-0.3,0-0.5-0.2-0.5-0.4c0-0.2,0.2-0.4,0.5-0.4c0.3,0,0.5,0.2,0.5,0.4C64,84.8,63.8,85,63.5,85z"/>
<path class="st8" d="M55.9,33.9c-0.3,0.3-0.4,0.4-0.3,0.6c0.1,0.2,0.4,0.3,0.8,0.2c0.3,0.8,0,1.9-0.9,2.3c-0.7,0.3-1.5,0.1-1.9-0.6
	c-0.4-0.7-0.4-1.5,0-2.2C54.2,33.3,55.3,33.3,55.9,33.9z"/>
<path class="st53" d="M51.4,34.1c0.5-1.3,1.5-1.9,2.9-2c0.7-0.1,1.5,0.3,1.9,1.1c-0.3,0-0.5-0.2-0.8-0.2c-0.9-0.1-1.8-0.1-2.6,0.3
	C52.3,33.5,51.8,33.8,51.4,34.1z"/>
<path class="st8" d="M70.9,34.6c0.3,0.6,0.2,1.1,0,1.6c-0.3,0.7-1.1,1.2-1.9,0.9c-0.4-0.1-0.7-0.4-0.9-0.8c-0.2-0.4-0.4-0.9-0.2-1.4
	c0.2-0.7,0.6-1.3,1.3-1.4c0.5-0.1,0.9,0,1.3,0.4C70.2,34,70,34,70,34.2c0,0.1,0,0.2,0,0.3C70.2,34.8,70.5,34.9,70.9,34.6z"/>
<path class="st53" d="M68.1,33.2c0.4-0.9,1.3-1.2,2.2-1.1c0.9,0.1,1.6,0.5,2.2,1.1c0.2,0.3,0.4,0.5,0.5,0.8
	c-0.7-0.5-1.5-0.9-2.3-1.1C69.7,32.8,68.9,32.8,68.1,33.2z"/>
<path class="st13" d="M71.1,78.6c0.8,0,1.4,0.3,1.9,0.9c0.4,0.5,0.5,1.1,0.3,1.7c-0.3,0.9-1.1,1.3-2,1.4c-0.7,0.1-1.4-0.1-2-0.6
	c-0.8-0.7-0.9-1.7-0.2-2.6C69.6,78.8,70.3,78.6,71.1,78.6z"/>
</svg>
