<?xml version="1.0" encoding="UTF-8"?>
<svg id="Layer_1" data-name="Layer 1" xmlns="http://www.w3.org/2000/svg" viewBox="0 0 95.23 120">
  <defs>
    <style>
      .cls-1 {
        fill: #fff;
      }

      .cls-2 {
        fill: #010101;
      }
    </style>
  </defs>
  <path class="cls-2" d="M72.75,65.66c0-.74-.15-.99-.96-.96-3.82,.03-7.64,0-11.47,.03-.74,0-.99-.15-.96-.96,.03-3.82,0-7.64,.03-11.47,0-.77-.18-.96-.96-.96-7.18,.03-14.36,.03-21.55,0-.77,0-.96,.18-.96,.96,.03,3.82,0,7.64,.03,11.47,0,.77-.22,.96-.96,.96-3.82-.03-7.64,0-11.47-.03-.77,0-.96,.22-.96,.96,.03,3.58,0,7.18,0,10.76s.03,7.18,0,10.79c0,.74,.15,.99,.96,.96,3.82-.03,7.64,0,11.47-.03,.74,0,.99,.18,.96,.96-.03,3.82,0,7.64-.03,11.47,0,.77,.18,.96,.96,.96,7.18-.03,14.36-.03,21.55,0,.74,0,.99-.18,.96-.96-.03-3.82,0-7.64-.03-11.47,0-.77,.22-.96,.96-.96,3.82,.03,7.64,0,11.47,.03,.77,0,.96-.22,.96-.96-.03-7.18-.03-14.36,0-21.55Zm-7.03,14.64c0,.71-.25,.83-.86,.8-3.79-.03-7.58,.03-11.34-.03-1.02-.03-1.2,.31-1.17,1.23,.06,3.7,0,7.43,.03,11.13,0,.77-.12,1.08-.99,1.05-2.47-.06-4.93-.09-7.37,0-.92,.03-1.05-.31-1.05-1.11,.03-3.7,0-7.4,.03-11.13,0-.86-.15-1.17-1.11-1.17-3.79,.06-7.58,0-11.34,.03-.68,0-.96-.12-.92-.86,.06-2.53,.06-5.09,0-7.61-.03-.8,.28-.92,.99-.92,3.76,.03,7.49-.03,11.25,.03,1.02,.03,1.17-.28,1.17-1.23-.06-3.7,0-7.43-.06-11.13,0-.92,.31-1.08,1.11-1.05,2.37,.06,4.78,.09,7.15,0,1.05-.03,1.2,.31,1.17,1.23-.06,1.82-.03,3.67-.03,5.52s.06,3.76-.03,5.61c-.06,.96,.34,1.05,1.11,1.05,3.79-.03,7.58,0,11.34-.03,.68,0,.96,.09,.92,.86-.06,2.59-.06,5.18,0,7.74Z"/>
  <path class="cls-2" d="M95.19,48.49c-.28-7.83-6.29-14.4-14.06-15.44-2.65-.34-5.3-.12-7.95-.18-.65,0-.99-.06-.96-.86,.06-1.79,.06-3.61,0-5.39-.03-.71,.25-.83,.86-.8,1.76,.03,3.51,0,5.27,.03,.68,.03,.92-.09,.92-.86-.03-8.05-.03-16.09,0-24.14C79.29,.15,79.07,0,78.43,.03c-1.05,.03-2.1,0-3.17,0C55.86,.03,36.44,.03,17.05,0c-.86,0-1.11,.15-1.11,1.05,.03,7.92,.03,15.84,0,23.77,0,.71,.12,1.02,.92,.99,1.73-.06,3.42,0,5.15-.03,.74-.03,1.02,.15,.99,.96-.06,1.73-.06,3.45,0,5.15,.03,.74-.15,1.02-.96,.99-2.07-.06-4.13-.06-6.2,0C7.13,33.17,.13,40.1,.07,48.83-.02,67.23-.02,85.6,.07,104c.03,7.49,5.24,13.78,12.51,15.57,.49,.12,1.08,0,1.51,.43H80.61c.46-.46,1.08-.22,1.63-.34,7.74-1.82,12.88-8.23,12.88-16.24V54c.09-1.88,.12-3.7,.06-5.52ZM23.03,17.82c.03-3.27,.03-6.57,0-9.83,0-.8,.25-.92,.99-.92,7.89,.03,15.75,0,23.64,0s15.6,0,23.43-.03c.92,0,1.26,.12,1.23,1.17-.09,3.21-.03,6.41,0,9.59,0,.68-.06,1.02-.92,.99-15.81-.03-31.6-.03-47.41,0-.83,.03-.96-.25-.96-.96Zm42.23,14.18c0,.59-.06,.89-.8,.89-11.19-.03-22.38-.03-33.57,0-.71,0-.83-.25-.8-.86,.03-1.76,.06-3.51,0-5.27-.03-.8,.25-.96,.99-.96,5.58,.03,11.16,.03,16.74,.03s10.85,.03,16.28-.03c1.08,0,1.26,.31,1.23,1.29-.12,1.6-.09,3.27-.06,4.9Zm22.93,71.14c0,5.89-3.95,9.8-9.86,9.8H16.87c-4.65,0-8.08-2.53-9.34-6.84-.28-.99-.37-2-.37-3.02V49.66c0-5.86,3.98-9.8,9.86-9.83h61.37c5.89,0,9.83,3.98,9.83,9.86-.03,17.85-.03,35.63-.03,53.45Z"/>
  <path class="cls-1" d="M72.75,65.66c0-.74-.15-.99-.96-.96-3.82,.03-7.64,0-11.47,.03-.74,0-.99-.15-.96-.96,.03-3.82,0-7.64,.03-11.47,0-.77-.18-.96-.96-.96-7.18,.03-14.36,.03-21.55,0-.77,0-.96,.18-.96,.96,.03,3.82,0,7.64,.03,11.47,0,.77-.22,.96-.96,.96-3.82-.03-7.64,0-11.47-.03-.77,0-.96,.22-.96,.96,.03,3.58,0,7.18,0,10.76s.03,7.18,0,10.79c0,.74,.15,.99,.96,.96,3.82-.03,7.64,0,11.47-.03,.74,0,.99,.18,.96,.96-.03,3.82,0,7.64-.03,11.47,0,.77,.18,.96,.96,.96,7.18-.03,14.36-.03,21.55,0,.74,0,.99-.18,.96-.96-.03-3.82,0-7.64-.03-11.47,0-.77,.22-.96,.96-.96,3.82,.03,7.64,0,11.47,.03,.77,0,.96-.22,.96-.96-.03-7.18-.03-14.36,0-21.55Zm-7.03,14.64c0,.71-.25,.83-.86,.8-3.79-.03-7.58,.03-11.34-.03-1.02-.03-1.2,.31-1.17,1.23,.06,3.7,0,7.43,.03,11.13,0,.77-.12,1.08-.99,1.05-2.47-.06-4.93-.09-7.37,0-.92,.03-1.05-.31-1.05-1.11,.03-3.7,0-7.4,.03-11.13,0-.86-.15-1.17-1.11-1.17-3.79,.06-7.58,0-11.34,.03-.68,0-.96-.12-.92-.86,.06-2.53,.06-5.09,0-7.61-.03-.8,.28-.92,.99-.92,3.76,.03,7.49-.03,11.25,.03,1.02,.03,1.17-.28,1.17-1.23-.06-3.7,0-7.43-.06-11.13,0-.92,.31-1.08,1.11-1.05,2.37,.06,4.78,.09,7.15,0,1.05-.03,1.2,.31,1.17,1.23-.06,1.82-.03,3.67-.03,5.52s.06,3.76-.03,5.61c-.06,.96,.34,1.05,1.11,1.05,3.79-.03,7.58,0,11.34-.03,.68,0,.96,.09,.92,.86-.06,2.59-.06,5.18,0,7.74Z"/>
  <path class="cls-2" d="M72.75,65.66c0-.74-.15-.99-.96-.96-3.82,.03-7.64,0-11.47,.03-.74,0-.99-.15-.96-.96,.03-3.82,0-7.64,.03-11.47,0-.77-.18-.96-.96-.96-7.18,.03-14.36,.03-21.55,0-.77,0-.96,.18-.96,.96,.03,3.82,0,7.64,.03,11.47,0,.77-.22,.96-.96,.96-3.82-.03-7.64,0-11.47-.03-.77,0-.96,.22-.96,.96,.03,3.58,0,7.18,0,10.76s.03,7.18,0,10.79c0,.74,.15,.99,.96,.96,3.82-.03,7.64,0,11.47-.03,.74,0,.99,.18,.96,.96-.03,3.82,0,7.64-.03,11.47,0,.77,.18,.96,.96,.96,7.18-.03,14.36-.03,21.55,0,.74,0,.99-.18,.96-.96-.03-3.82,0-7.64-.03-11.47,0-.77,.22-.96,.96-.96,3.82,.03,7.64,0,11.47,.03,.77,0,.96-.22,.96-.96-.03-7.18-.03-14.36,0-21.55Zm-7.03,14.64c0,.71-.25,.83-.86,.8-3.79-.03-7.58,.03-11.34-.03-1.02-.03-1.2,.31-1.17,1.23,.06,3.7,0,7.43,.03,11.13,0,.77-.12,1.08-.99,1.05-2.47-.06-4.93-.09-7.37,0-.92,.03-1.05-.31-1.05-1.11,.03-3.7,0-7.4,.03-11.13,0-.86-.15-1.17-1.11-1.17-3.79,.06-7.58,0-11.34,.03-.68,0-.96-.12-.92-.86,.06-2.53,.06-5.09,0-7.61-.03-.8,.28-.92,.99-.92,3.76,.03,7.49-.03,11.25,.03,1.02,.03,1.17-.28,1.17-1.23-.06-3.7,0-7.43-.06-11.13,0-.92,.31-1.08,1.11-1.05,2.37,.06,4.78,.09,7.15,0,1.05-.03,1.2,.31,1.17,1.23-.06,1.82-.03,3.67-.03,5.52s.06,3.76-.03,5.61c-.06,.96,.34,1.05,1.11,1.05,3.79-.03,7.58,0,11.34-.03,.68,0,.96,.09,.92,.86-.06,2.59-.06,5.18,0,7.74Z"/>
</svg>