<?xml version="1.0" encoding="utf-8"?>
<!-- Generator: Adobe Illustrator 24.1.2, SVG Export Plug-In . SVG Version: 6.00 Build 0)  -->
<svg version="1.0" id="Layer_1" xmlns:svgjs="http://svgjs.com/svgjs"
	 xmlns="http://www.w3.org/2000/svg" xmlns:xlink="http://www.w3.org/1999/xlink" x="0px" y="0px" viewBox="0 0 512 512"
	 style="enable-background:new 0 0 512 512;" xml:space="preserve">
<style type="text/css">
	.st0{fill:#FFFFFF;}
</style>
<path class="st0" d="M126.9,122.7C126,86.3,137.5,73.4,147.7,62c0.6-0.6,1.1-1.3,1.7-1.9c15.2-17.2,37.8-27.4,61.9-28.1
	c24.3-0.7,47.6,8.5,64,25.1c17.3,17.5,16.9,37.4,16.5,54.9c0,2.5-0.1,4.8-0.1,7.1c0,2.2-0.3,8-0.8,14.7c-3.4-14.5-8.5-29.5-16-37.5
	l-0.6-1.2c-0.6-1.2-1.6-2.2-2.9-2.8c-3-1.4-6.6,0-8,3c-11.6,25.5-23.7,24.4-42,22.7c-2.1-0.2-4.3-0.4-6.5-0.5
	c-6.4-0.4-8.7,3.2-9.4,4.8c-0.9,2.1-2.8,6.5,8.1,18.6c-21.1-1.3-26.1-15.8-30.6-28.8c-3-8.5-6-17.4-15-17.4
	c-9.1-0.2-17.9,3.6-24,10.4C136,114,132,126.9,130,139C128.3,131.5,127,125,126.9,122.7z"/>
<path class="st0" d="M118.1,186.1c-1.5-6.5,0.6-11.1,3.3-12.5c2.3-1.2,5.1-0.4,7.8,2.4c1,1.1,2.4,1.7,3.9,1.9
	c3.3,0.3,6.2-2.2,6.5-5.5c0.7-1.1,1-2.3,0.9-3.6c-0.4-7.4-0.2-14.8,0.7-22.2c1.7-15.2,5.8-26.7,11.8-33.1c3.8-4.2,9.2-6.6,14.9-6.5
	c1.2,1.3,2.8,6.1,4,9.3c5.5,15.8,14.6,42.1,56.5,36.1c1.4-0.2,2.6-0.9,3.6-1.9c2.2-2.4,2.1-6.2-0.4-8.5c-4-3.7-7.8-7.6-11.3-11.8
	l0.3,0c17.2,1.5,34.8,3.1,49.2-20.6c9.4,16.1,14.3,50.6,15.4,64c0.3,3.1,2.9,5.5,6,5.5c0.2,0,0.3,0,0.5,0c2.3-0.2,4.3-1.7,5.1-3.8
	c1.6-1.6,4.2-3.5,6.8-2.1c2.9,1.5,5.1,6.5,3.5,13c-4.3,18.4-15.9,33.2-25.8,33.2H281c-1.2,0-2.3,0.3-3.3,0.9
	c-1.7,1.1-2.8,2.9-2.8,4.9c-0.3,5.8-3.1,35.5-27.3,50.6c0,0-0.1,0-0.1,0.1c-9.4,5.8-21.2,8.8-34.9,8.8c-13.7,0-25.4-3-34.8-9
	c-23.9-15.1-27.1-44.8-27.5-50.5c-0.1-3.2-2.8-5.8-6-5.8h-0.3C134,219.3,122.5,204.5,118.1,186.1z"/>
<path class="st0" d="M395.5,248.3c-44.7,0-81,34.1-81,75.4c0,41.3,36.4,75,81,75s81.5-33.6,81.5-75
	C477,282.4,440.2,248.3,395.5,248.3z M420.6,337.4l-10.4,9.6l-14.7-13.6L380.8,347l-10.4-9.6l14.7-13.6l-14.7-13.6l10.4-9.6
	l14.7,13.6l14.7-13.6l10.4,9.6l-14.7,13.6L420.6,337.4z"/>
<path class="st0" d="M337.5,393.9c14.2,10.1,31.4,16.8,50.2,18.2c-3.6,38.3-38.3,69-80.7,69c-4.5,0-8.8-0.3-13.1-1H43.9
	c-5.5,0-8.9-10.2-8.9-17.6v-62.7c0-50.2,58-66.4,104.5-79.4c2.3-0.7,4.6-1.3,6.8-1.9c2.1,9.7,8,20.6,16.2,29.4
	c12.8,14,31,21.9,50,21.7c9.1,0.1,18.2-1.6,26.5-5c13.4-18.7,35.7-31.5,61.1-33.6c1.8,20.9,11.6,39.6,26.3,53.9l-26.7,24.8
	L285,395.9l-10.4,9.6l25.1,23.3L337.5,393.9z"/>
<path class="st0" d="M258.4,314.2c2.1,0.7,4.3,1.4,6.7,2.2c-3.7,6.8-6.7,13.9-9,21.2c-6.5,7.8-20.4,19.9-43.5,19.9
	c-15.7,0.2-30.7-6.3-41.3-17.9c-7.8-8.4-12.1-17.9-13.4-24.6c2-0.6,4-1.2,5.9-1.8c1.6-0.5,2.8-1.6,3.5-3.1l10.1-20.8
	c10.1,4.9,21.9,7.4,35.1,7.4c13.1,0,24.7-2.4,34.8-7.1l7.4,20.9C255.3,312.2,256.7,313.6,258.4,314.2z"/>
</svg>
