<?xml version="1.0" encoding="utf-8"?>
<!-- Generator: Adobe Illustrator 24.1.2, SVG Export Plug-In . SVG Version: 6.00 Build 0)  -->
<svg version="1.1" id="Layer_1" xmlns="http://www.w3.org/2000/svg" xmlns:xlink="http://www.w3.org/1999/xlink" x="0px" y="0px"
	 viewBox="0 0 100 100" style="enable-background:new 0 0 100 100;" xml:space="preserve">
<style type="text/css">
	.st0{fill:#FF0000;}
	.st1{fill:#FEFEFE;}
</style>
<path class="st0" d="M20.3,50.1c-0.3-0.3-0.7-0.5-1-0.8c-0.7-0.5-1.3-1.1-1.9-1.6c-0.4-0.3-0.7-0.7-1.1-1.1c-0.3-0.3-0.6-0.7-0.9-1
	c-0.4-0.5-0.9-1.1-1.2-1.6c-0.4-0.6-0.8-1.2-1.2-1.9c-0.3-0.6-0.6-1.2-0.9-1.8c-0.1-0.2-0.1-0.3-0.2-0.5c-0.4-1-0.8-2-1-3
	c-0.6-2.3-0.9-4.7-0.8-7c0.1-1.5,0.2-3,0.6-4.4c0.2-0.8,0.4-1.6,0.7-2.4c0.3-0.8,0.6-1.6,1-2.4c0.3-0.6,0.7-1.3,1-1.8
	c0.5-0.8,1.1-1.6,1.7-2.4c0.3-0.4,0.6-0.8,1-1.2c0.3-0.4,0.7-0.7,1-1.1c0.4-0.3,0.7-0.7,1.1-1c0.5-0.4,1.1-0.9,1.6-1.2
	c0.8-0.6,1.7-1.1,2.6-1.6c0.2-0.1,0.4-0.2,0.6-0.3c1.5-0.7,3.1-1.3,4.7-1.7c2.5-0.6,5.1-0.7,7.7-0.5c1.1,0.1,2.2,0.2,3.2,0.4
	c1.4,0.3,2.9,0.6,4.2,1.1c0.8,0.3,1.7,0.6,2.5,1c1.1,0.5,2.1,1,3.1,1.6c0.6,0.4,1.2,0.7,1.8,1.1c0.8,0.5,1.5,1,2.2,1.6
	c0.4,0.4,0.9,0.7,1.3,1.1c0.4,0.4,0.8,0.7,1.2,1.1c0.5,0.5,1,0.9,1.5,1.4c1.4,1.4,2.8,2.8,4.2,4.2c0.5,0.6,1.1,1.1,1.6,1.7
	c0.4,0.4,0.7,0.8,1,1.2c0.3,0.4,0.7,0.7,1,1.1c0.3,0.3,0.5,0.6,0.8,0.9c0.7,0.8,1.4,1.6,2.2,2.4c0.6,0.7,1.1,1.3,1.7,2
	c0.3,0.4,0.7,0.7,1,1.1c0.3,0.4,0.7,0.7,1,1.1c0.5,0.5,1,1.1,1.5,1.6c1.1,1.2,2.3,2.4,3.5,3.5c0.8,0.8,1.6,1.6,2.5,2.3
	c0.6,0.6,1.2,1.1,1.9,1.7c0.7,0.6,1.5,1.2,2.2,1.9c0.7,0.5,1.3,1.1,2.1,1.6c0.5,0.4,1,0.8,1.6,1.1c0.7,0.4,1.3,0.9,1.9,1.3
	c0.5,0.4,1.1,0.7,1.7,1.1c-0.3,0.2-0.7,0.5-1,0.7c-0.9,0.6-1.8,1.2-2.7,1.9c-1,0.8-2,1.5-3,2.4c-0.4,0.4-0.9,0.7-1.3,1
	c-0.6,0.5-1.2,1.1-1.9,1.6c-0.7,0.7-1.5,1.3-2.2,2c-0.6,0.5-1.1,1.1-1.6,1.6c-0.6,0.6-1.2,1.2-1.8,1.9c-0.7,0.7-1.4,1.5-2.1,2.3
	c-0.5,0.6-1.1,1.2-1.6,1.8c-0.4,0.4-0.7,0.8-1.1,1.2c-0.4,0.4-0.7,0.8-1,1.1c-0.3,0.3-0.5,0.6-0.7,0.8c-0.7,0.9-1.5,1.7-2.2,2.5
	c-0.6,0.6-1.1,1.3-1.7,1.9c-0.8,0.9-1.6,1.7-2.4,2.6c-0.9,1-1.8,1.9-2.8,2.9c-0.9,0.9-1.9,1.8-2.9,2.7c-0.6,0.6-1.3,1.1-1.9,1.6
	c-0.5,0.4-1.1,0.8-1.6,1.2c-0.8,0.6-1.6,1.1-2.4,1.6c-0.6,0.4-1.3,0.8-1.9,1.1c-0.6,0.3-1.3,0.6-1.9,0.9c-0.2,0.1-0.3,0.1-0.5,0.2
	c-0.9,0.4-1.8,0.7-2.7,1c-1,0.3-1.9,0.5-2.9,0.8c-1.8,0.4-3.7,0.6-5.5,0.7c-1.3,0.1-2.5,0-3.8-0.1c-1.1-0.1-2.1-0.2-3.2-0.5
	c-0.8-0.2-1.6-0.4-2.4-0.7c-1.3-0.5-2.5-1-3.7-1.7c-0.9-0.5-1.8-1.1-2.6-1.7c-0.9-0.7-1.8-1.5-2.6-2.3c-0.6-0.6-1.1-1.2-1.6-1.8
	c-0.3-0.4-0.6-0.8-0.9-1.2c-0.5-0.7-0.9-1.3-1.2-2c-0.4-0.7-0.7-1.5-1-2.2c-0.5-1.2-0.9-2.4-1.1-3.7c-0.4-2.1-0.6-4.3-0.5-6.4
	c0.1-1.2,0.2-2.3,0.5-3.4c0.3-1.2,0.6-2.4,1.1-3.5c0.3-0.8,0.7-1.7,1.1-2.5c0.5-0.9,1-1.7,1.6-2.6c0.6-0.8,1.2-1.6,1.9-2.3
	c0.7-0.8,1.5-1.5,2.3-2.1C19.1,51,19.7,50.6,20.3,50.1z"/>
<path class="st1" d="M28.2,50.1c-0.4-0.3-0.8-0.4-1.2-0.6c-1.1-0.5-2.1-1-3.2-1.5c-1.2-0.6-2.3-1.4-3.3-2.2c-1.1-1-2.2-2.1-3.1-3.3
	c-0.6-0.8-1.2-1.7-1.6-2.6c-0.6-1.2-1.1-2.4-1.5-3.6c-0.7-2.2-0.9-4.5-0.7-6.8c0.1-1.1,0.2-2.3,0.5-3.4c0.2-0.9,0.5-1.8,0.9-2.7
	c0.1-0.2,0.2-0.5,0.3-0.7c0.4-1,0.9-1.9,1.5-2.7c0.5-0.8,1.2-1.6,1.8-2.3c0.6-0.6,1.2-1.2,1.8-1.7c0.4-0.4,0.8-0.7,1.2-1
	c0.6-0.5,1.3-0.9,2-1.3c1.4-0.8,2.9-1.3,4.4-1.8c2-0.6,4-0.7,6.1-0.6c1.4,0,2.8,0.2,4.2,0.5c0.9,0.2,1.9,0.4,2.8,0.7
	c1.2,0.4,2.4,0.8,3.5,1.4c0.9,0.5,1.9,1,2.7,1.5c0.5,0.4,1.1,0.7,1.6,1.1c0.6,0.4,1.1,0.8,1.7,1.3c0.7,0.5,1.3,1,1.9,1.6
	c1.1,1,2.2,2,3.3,3.1c0.6,0.6,1.1,1.1,1.7,1.7c0.6,0.6,1.2,1.3,1.8,1.9c0.6,0.6,1.1,1.2,1.7,1.8c0.9,1,1.7,2,2.6,2.9
	c0.5,0.6,1.1,1.2,1.6,1.8c0.3,0.4,0.7,0.8,1,1.1c0.3,0.4,0.7,0.7,1,1.1c0.3,0.3,0.5,0.6,0.8,0.9c0.9,1,1.9,2.1,2.9,3.1
	c0.6,0.7,1.3,1.3,1.9,2c0.9,0.9,1.9,1.8,2.9,2.7c0.6,0.5,1.2,1.1,1.8,1.6c0.4,0.3,0.8,0.7,1.2,1c0.4,0.3,0.7,0.6,1.1,0.9
	c0.5,0.4,1.1,0.9,1.6,1.3c0.4,0.3,0.8,0.6,1.2,0.9c0.2,0.2,0.5,0.3,0.7,0.5c0.1,0.1,0.3,0.2,0.5,0.4c-0.3,0.2-0.6,0.5-0.9,0.7
	c-0.6,0.4-1.2,0.9-1.7,1.3c-0.4,0.3-0.8,0.7-1.3,1c-0.3,0.3-0.7,0.6-1,0.9c-0.5,0.5-1.1,0.9-1.6,1.4c-0.6,0.6-1.2,1.1-1.8,1.7
	c-0.6,0.6-1.3,1.2-1.9,1.8c-0.6,0.5-1.1,1.1-1.6,1.7c-0.3,0.4-0.7,0.7-1,1.1c-0.7,0.7-1.4,1.5-2.1,2.3c-0.3,0.3-0.6,0.7-1,1
	c-0.4,0.4-0.7,0.8-1.1,1.2c-0.2,0.3-0.5,0.5-0.7,0.8c-0.3,0.4-0.7,0.8-1,1.1c-0.7,0.7-1.3,1.5-1.9,2.2c-0.3,0.4-0.6,0.7-1,1.1
	c-0.3,0.4-0.7,0.8-1,1.2c-0.3,0.4-0.7,0.8-1,1.1c-0.3,0.3-0.5,0.6-0.8,0.9c-1.5,1.7-3,3.3-4.7,4.8c-0.7,0.6-1.3,1.3-2.1,1.8
	c-1,0.9-2.1,1.7-3.2,2.5c-1,0.7-2,1.3-3,1.9c-1.3,0.7-2.6,1.3-4,1.8c-0.9,0.3-1.8,0.5-2.7,0.7c-2.6,0.7-5.3,0.8-8,0.7
	c-1.2-0.1-2.3-0.2-3.5-0.5c-1-0.3-2-0.6-3-1c-0.7-0.3-1.3-0.6-2-1c-0.9-0.5-1.7-1.1-2.5-1.7c-0.6-0.5-1.2-1-1.7-1.5
	c-0.4-0.4-0.8-0.9-1.2-1.3c-0.4-0.5-0.8-1-1.1-1.5c-0.7-1.1-1.3-2.2-1.8-3.4c-0.4-1.1-0.8-2.1-1-3.3c-0.4-1.8-0.5-3.6-0.4-5.5
	c0.1-1,0.2-1.9,0.4-2.9c0.3-1.2,0.6-2.3,1.1-3.5c0.5-1.2,1.1-2.3,1.8-3.3c0.9-1.2,1.8-2.4,3-3.4c0.6-0.6,1.3-1.1,1.9-1.6
	c0.5-0.4,1.1-0.7,1.7-1c1.1-0.6,2.3-1.1,3.4-1.6C27.3,50.5,27.8,50.3,28.2,50.1z"/>
<polygon id="XMLID_27_" class="st0" points="26.6,50.1 31.4,50.1 31.4,50.1 31.4,50.1 33,59.2 34.4,52 36,44 36.3,42.7 36.5,44 
	37.7,49.1 38.5,53.1 39.4,50 39.5,49.7 39.8,49.7 42,49.7 43.1,42.1 43.4,40 43.9,42.1 45.4,49 46.5,54.2 47.5,50 47.5,49.7 
	47.9,49.7 55,49.6 55.7,47.2 56.2,45.2 56.5,47.3 57.2,53.1 58.8,43.8 59.2,41.4 59.6,43.8 61.3,53.9 62.8,50 62.9,49.7 63.2,49.7 
	65.2,49.7 65.6,49.7 65.6,50.1 66.5,58 67.1,55 68,50.1 70,40.1 70.2,39.1 70.3,40.1 72.2,50.1 76.7,50.2 84,50.2 76.7,50.3 
	72.1,50.4 72,50.4 72,50.3 70.2,41.2 68.6,50.2 67.7,55.2 66.8,60.2 66.4,62.2 66.1,60.1 64.9,50.6 63.4,50.6 61.5,55.5 61.1,56.9 
	60.8,55.5 59.2,46.4 57.6,56.2 57.1,59 56.7,56.2 55.9,49.6 55.7,50.3 55.6,50.6 55.3,50.6 48.2,50.6 46.8,56.2 46.4,58 46,56.2 
	44.6,49.2 43.5,44.3 42.6,50.2 42.6,50.5 42.3,50.5 40,50.5 38.8,54.5 38.4,55.7 38.1,54.5 37.1,49.3 36.3,45.4 34.9,52.1 
	33.2,60.1 33,61 32.9,60.1 31.3,50.2 "/>
</svg>
