<?xml version="1.0" encoding="utf-8"?>
<!-- Generator: Adobe Illustrator 24.1.2, SVG Export Plug-In . SVG Version: 6.00 Build 0)  -->
<svg version="1.1" id="Layer_1" xmlns="http://www.w3.org/2000/svg" xmlns:xlink="http://www.w3.org/1999/xlink" x="0px" y="0px"
	 viewBox="0 0 512 512" style="enable-background:new 0 0 512 512;" xml:space="preserve">
<style type="text/css">
	.st0{fill:#FEFEFE;}
</style>
<path d="M170.5,227.3c0.2-4.9,0.2-9.9,0-14.8c-0.1-2.8,0.8-3.3,3.4-3.3c27.2,0.1,54.5,0.1,81.7,0.1c27,0,54,0.1,80.9-0.1
	c3.1,0,3.8,0.9,3.6,3.8c-0.2,4.8-0.2,9.6,0,14.4c0.1,2.7-0.7,3.3-3.3,3.3c-35.8-0.1-71.7-0.1-107.5-0.1c-18.5,0-37-0.1-55.5,0.1
	C171.2,230.6,170.4,229.9,170.5,227.3z"/>
<path d="M170.5,181.7c0.2-4.9,0.2-9.9,0-14.8c-0.1-2.8,0.8-3.3,3.4-3.3c27.2,0.1,54.5,0.1,81.7,0.1c27,0,54,0.1,80.9-0.1
	c3.1,0,3.8,0.9,3.6,3.8c-0.2,4.8-0.2,9.6,0,14.4c0.1,2.7-0.7,3.3-3.3,3.3c-36.1-0.1-72.2-0.1-108.3-0.1c-18.2,0-36.5-0.1-54.7,0.1
	C171.2,185,170.4,184.3,170.5,181.7z"/>
<path d="M340.2,258.4c-0.3,4.7-0.3,9.4,0,14c0.1,2.9-0.6,3.8-3.6,3.8c-27.1-0.1-54.2-0.1-81.3-0.1c-27,0-54,0-80.9,0.1
	c-2.9,0-4-0.6-3.8-3.7c0.3-4.8,0.2-9.6,0-14.4c-0.1-2.6,0.6-3.4,3.3-3.4c14,0.1,28.1,0.1,42.2,0.1c40.1,0,80.3,0,120.4-0.1
	C339.4,254.7,340.4,255.4,340.2,258.4z"/>
<path d="M437.9,139c0-12.9-4.1-24.4-12.7-34c-10.7-12-24.3-17-40.3-17c-57,0.1-114,0-171,0c-29.5,0-59,0.3-88.5-0.1
	c-31-0.4-53.3,24.2-52.3,52.4c0.4,13.5,0.1,27.1,0.1,40.7c0,40.4-0.2,80.8,0.2,121.2c0.3,25.1,21.2,46.3,46.2,47.7
	c3.2,0.2,3.6,1.4,3.6,4.1c-0.1,15.6,0,31.2,0,46.7v22.8c1.8-1.2,2.9-1.9,4.1-2.7c32.7-22.8,65.4-45.5,98.1-68.3
	c2.4-1.7,4.8-2.4,7.7-2.4c50.9,0.1,101.8-0.2,152.7,0.2c29.3,0.2,52.3-22,52.3-51C437.9,245.9,437.9,192.5,437.9,139z M416.5,297.7
	c0,15.6-8.2,26.6-22.4,30.3c-3.1,0.8-6.3,0.8-9.4,0.8c-52.9,0-105.9,0-158.8,0c-2.7,0-4.8,0.6-7,2.2c-23.5,16.5-47.1,32.8-70.7,49.2
	c-1,0.7-2,1.4-3.7,2.5c0-12.4,0.1-24.2,0-36c0-5.8,0.4-11.6-0.3-17.4c-5.8-1.1-11.6-0.2-17.3-0.5c-1.8-0.1-3.5,0-5.3-0.2
	c-14.5-0.9-25.8-12.1-26.9-26.5c-0.1-1.4-0.1-2.8-0.1-4.2c0-52.6,0-105.1,0-157.7c0-12.5,5-21.9,16.3-27.8c4.4-2.3,9.1-2.9,14-2.9
	c87.1,0,174.3,0,261.4,0c15.1,0,25.7,8,29.4,21.9c0.8,2.9,1,6,1,9C416.5,192.9,416.5,245.3,416.5,297.7z"/>
<path class="st0" d="M170.5,227.3c0.2-4.9,0.2-9.9,0-14.8c-0.1-2.8,0.8-3.3,3.4-3.3c27.2,0.1,54.5,0.1,81.7,0.1
	c27,0,54,0.1,80.9-0.1c3.1,0,3.8,0.9,3.6,3.8c-0.2,4.8-0.2,9.6,0,14.4c0.1,2.7-0.7,3.3-3.3,3.3c-35.8-0.1-71.7-0.1-107.5-0.1
	c-18.5,0-37-0.1-55.5,0.1C171.2,230.6,170.4,229.9,170.5,227.3z"/>
<path class="st0" d="M170.5,181.7c0.2-4.9,0.2-9.9,0-14.8c-0.1-2.8,0.8-3.3,3.4-3.3c27.2,0.1,54.5,0.1,81.7,0.1
	c27,0,54,0.1,80.9-0.1c3.1,0,3.8,0.9,3.6,3.8c-0.2,4.8-0.2,9.6,0,14.4c0.1,2.7-0.7,3.3-3.3,3.3c-36.1-0.1-72.2-0.1-108.3-0.1
	c-18.2,0-36.5-0.1-54.7,0.1C171.2,185,170.4,184.3,170.5,181.7z"/>
<path class="st0" d="M340.2,272.5c0.1,2.9-0.6,3.8-3.6,3.8c-27.1-0.1-54.2-0.1-81.3-0.1c-27,0-54,0-80.9,0.1c-2.9,0-4-0.6-3.8-3.7
	c0.3-4.8,0.2-9.6,0-14.4c-0.1-2.6,0.6-3.4,3.3-3.4c14,0.1,28.1,0.1,42.2,0.1c40.1,0,80.3,0,120.4-0.1c2.9,0,3.9,0.6,3.7,3.7
	C339.9,263.1,340,267.8,340.2,272.5z"/>
<path d="M340.2,181.8c0.1,2.7-0.7,3.3-3.3,3.3c-36.1-0.1-72.2-0.1-108.3-0.1c-18.2,0-36.5-0.1-54.7,0.1c-2.7,0-3.4-0.7-3.3-3.4
	c0.2-4.9,0.2-9.9,0-14.8c-0.1-2.8,0.8-3.3,3.4-3.3c27.2,0.1,54.5,0.1,81.7,0.1c27,0,54,0.1,80.9-0.1c3.1,0,3.8,0.9,3.6,3.8
	C340,172.1,340,177,340.2,181.8z"/>
<path d="M340.2,227.3c0.1,2.7-0.7,3.3-3.3,3.3c-35.8-0.1-71.7-0.1-107.5-0.1c-18.5,0-37-0.1-55.5,0.1c-2.7,0-3.4-0.7-3.3-3.4
	c0.2-4.9,0.2-9.9,0-14.8c-0.1-2.8,0.8-3.3,3.4-3.3c27.2,0.1,54.5,0.1,81.7,0.1c27,0,54,0.1,80.9-0.1c3.1,0,3.8,0.9,3.6,3.8
	C340,217.7,340,222.5,340.2,227.3z"/>
<path d="M340.2,272.5c0.1,2.9-0.6,3.8-3.6,3.8c-27.1-0.1-54.2-0.1-81.3-0.1c-27,0-54,0-80.9,0.1c-2.9,0-4-0.6-3.8-3.7
	c0.3-4.8,0.2-9.6,0-14.4c-0.1-2.6,0.6-3.4,3.3-3.4c14,0.1,28.1,0.1,42.2,0.1c40.1,0,80.3,0,120.4-0.1c2.9,0,3.9,0.6,3.7,3.7
	C339.9,263.1,340,267.8,340.2,272.5z"/>
</svg>
