<?xml version="1.0" encoding="utf-8"?>
<!-- Generator: Adobe Illustrator 24.1.2, SVG Export Plug-In . SVG Version: 6.00 Build 0)  -->
<svg version="1.1" id="Layer_1" xmlns="http://www.w3.org/2000/svg" xmlns:xlink="http://www.w3.org/1999/xlink" x="0px" y="0px"
	 viewBox="0 0 100 100" style="enable-background:new 0 0 100 100;" xml:space="preserve">
<style type="text/css">
	.st0{fill:#EAD6C7;}
	.st1{fill:#B07454;}
	.st2{fill:#C6DFF1;}
	.st3{fill:#F05B6C;}
	.st4{fill:#78CCD3;}
	.st5{fill:#1F212B;}
</style>
<path class="st0" d="M28.2,62.4c0.5,0.8,1,1.4,1.9,1.7l0.4,0.1v5.3c0,3.3,8.8,15.9,20.2,15.9s20.2-12.6,20.2-15.9v-5.3l0.4-0.1
	c1.9-0.6,2.5-2.8,3.1-5l0-0.2l0.8,0.4l0.2-0.7c0.6-2.2,1.4-5.5,1.4-7.2c0-1.2-0.7-2.2-2-3c0.2-2.7,0.5-13.9-6-21.4
	c-4-4.7-9.8-7.1-17.2-7.1c-7.4,0-13.4,2.4-17.6,7.1c-6.9,7.6-7.3,18.7-7.3,21.4c-1.4,0.8-2.1,1.8-2.1,3c0,1.8,0.7,5,1.4,7.2l0.2,0.7
	c0.3,1.2,0.7,2.5,1.3,3.6L28.2,62.4z"/>
<path class="st1" d="M73.1,29.8c1.6-1.3,2.9-3.7,2.9-5.4c0-0.5-0.4-0.9-0.8-0.9c-2.1,0-4-1.4-6.3-3.3c-3.7-2.9-8.2-6.5-16.5-6.5
	c-11.9,0-17.2,6-18.3,8.2c-5.5,2.6-9.5,9.6-9.5,16.6c0,11.4,5.2,15.6,5.4,15.8c0.1,0.1,0.3,0.2,0.5,0.2c0.1,0,0.3,0,0.4-0.1
	c0.3-0.2,0.5-0.5,0.5-0.8c0-7.7,2.7-13.4,4.6-17.6c0.7-1.6,1.4-3,1.8-4.2c3.2,3.5,9.3,5.9,15.5,5.9c6.7,0,10.3-1.6,13.2-3.3
	c3.5,5.7,4.5,19.1,4.5,19.3c0,0.4,0.2,0.7,0.6,0.8c0.3,0.1,0.7,0,0.9-0.2c0.2-0.2,4.4-5.3,4.4-13.9C76.8,34.7,74.4,31.3,73.1,29.8z"
	/>
<path class="st2" d="M27.6,48c0-8.2,0-23.6,0-25c0-2-1.5-3.5-3.4-3.5S20.8,21,20.8,23c0,1.5,0,17.9,0,25c-1.5,1.1-2.5,3-2.5,5.1
	c0,3.4,2.6,6.2,5.9,6.2s5.9-2.8,5.9-6.2C30.1,51,29.1,49.1,27.6,48z"/>
<path class="st3" d="M27.6,48c0-6.1,0-16.1,0-21.5h-6.7c0,5.6,0,16.1,0,21.5c-1.5,1.1-2.5,3-2.5,5.1c0,3.4,2.6,6.2,5.9,6.2
	s5.9-2.8,5.9-6.2C30.1,51,29.1,49.1,27.6,48z"/>
<path class="st4" d="M76.4,51.8c0,1.7-1.3,3.1-2.9,3.1c-1.6,0-2.9-1.4-2.9-3.1c0-2.2,2.9-8.4,2.9-8.4S76.4,49.6,76.4,51.8z"/>
<path class="st4" d="M69.7,38.5c0,1.7-1.3,3.1-2.9,3.1s-2.9-1.4-2.9-3.1c0-2.2,2.9-8.4,2.9-8.4S69.7,36.3,69.7,38.5z"/>
<g>
	<path class="st5" d="M50.7,68.6c-2.8,0-4.1-1.9-4.1-2c-0.1-0.2-0.1-0.5,0.1-0.6c0.2-0.1,0.5-0.1,0.6,0.1l0,0c0,0.1,1.1,1.6,3.4,1.6
		s3.4-1.5,3.4-1.6c0.1-0.2,0.4-0.3,0.6-0.1c0.2,0.1,0.2,0.4,0.1,0.6C54.8,66.7,53.6,68.6,50.7,68.6z"/>
	<path class="st5" d="M41.4,48.2c-1.2,0-2.1,1.1-2.4,2.6c0.2-0.5,0.6-0.8,1.2-0.8c0.7,0,1.3,0.6,1.3,1.3c0,0.7-0.6,1.3-1.3,1.3
		c-0.6,0-1.2-0.5-1.2-1.1c0,0.1,0,0.2,0,0.3c0,2,1.1,3.5,2.5,3.5s2.5-1.6,2.5-3.5S42.8,48.2,41.4,48.2z"/>
	<path class="st5" d="M60,48.2c-1.2,0-2.1,1.1-2.4,2.6c0.2-0.5,0.6-0.8,1.2-0.8c0.7,0,1.3,0.6,1.3,1.3c0,0.7-0.6,1.3-1.3,1.3
		c-0.6,0-1.2-0.5-1.2-1.1c0,0.1,0,0.2,0,0.3c0,2,1.1,3.5,2.5,3.5c1.4,0,2.5-1.6,2.5-3.5S61.4,48.2,60,48.2z"/>
	<path class="st5" d="M39.5,45.6c-1.9,0-2.8-0.3-2.9-0.3l0.5-1.7c0,0,1.8,0.5,5.2,0c3.4-0.5,4.9-1.5,5-1.6l0.9,1.5
		c-0.1,0.1-1.9,1.3-5.6,1.8C41.3,45.5,40.3,45.6,39.5,45.6z"/>
	<path class="st5" d="M36.5,27.9c-0.2,0-0.3-0.1-0.4-0.3c-0.5-1.1-1.1-2.9-1.3-4.9l0,0c-0.1-0.2,0-0.4,0.2-0.5
		c0.2-0.1,0.5-0.1,0.6,0.1c0.1,0.1,0.1,0.2,0.1,0.3c0.2,1.9,0.8,3.6,1.2,4.6c0.1,0.2,0,0.5-0.2,0.6C36.7,27.9,36.6,27.9,36.5,27.9z"
		/>
	<path class="st5" d="M53.2,33.2c-5.3,0-9.5-1.9-11.6-3.7c-0.2-0.2-0.2-0.4-0.1-0.6c0.1-0.2,0.4-0.2,0.6-0.1c1.9,1.6,6,3.5,11.1,3.5
		c2.8,0,5.1-0.3,7-0.9c0.2-0.1,0.5,0.1,0.5,0.3c0.1,0.2-0.1,0.5-0.3,0.5C58.5,32.9,56.1,33.2,53.2,33.2z"/>
	<path class="st5" d="M39.3,23.2c-0.1,0-0.2-0.1-0.3-0.2c-0.2-0.2-0.1-0.5,0-0.6c1.4-1.3,5.5-4.3,13.3-4.3c2.6,0,5,0.5,7.3,1.5
		c0.2,0.1,0.3,0.4,0.2,0.6c-0.1,0.2-0.3,0.3-0.6,0.2c-2.2-1-4.5-1.4-7-1.4c-7.5,0-11.4,2.9-12.8,4.1C39.5,23.2,39.4,23.2,39.3,23.2z
		"/>
	<path class="st5" d="M64.6,23.6c-0.1,0-0.2,0-0.2-0.1c-0.5-0.4-1.1-0.8-1.7-1.2c-0.2-0.1-0.3-0.4-0.1-0.6c0.1-0.2,0.4-0.3,0.6-0.1
		c0.6,0.4,1.1,0.8,1.7,1.2c0.2,0.1,0.2,0.4,0.1,0.6C64.9,23.5,64.7,23.6,64.6,23.6z"/>
	<path class="st5" d="M67.1,25.4c-0.1,0-0.2,0-0.2-0.1c-0.3-0.2-0.6-0.4-0.8-0.6c-0.2-0.1-0.2-0.4-0.1-0.6c0.1-0.2,0.4-0.2,0.6-0.1
		c0.3,0.2,0.6,0.4,0.8,0.6c0.2,0.1,0.2,0.4,0.1,0.6C67.4,25.4,67.3,25.4,67.1,25.4z"/>
	<path class="st5" d="M62,45.6c-0.8,0-1.8-0.1-3-0.2c-3.8-0.6-5.6-1.8-5.6-1.8l0.9-1.5c0,0,1.6,1,5,1.6c3.4,0.5,5.2,0,5.2,0l0.5,1.7
		C64.8,45.3,63.8,45.6,62,45.6z"/>
	<path class="st5" d="M42.4,75.8c1-1.3,2.3-2.2,3.8-2.8c1.5-0.6,3-0.9,4.6-0.9c1.5,0,3.1,0.3,4.6,0.9c1.4,0.6,2.8,1.5,3.8,2.8
		c0.1,0.2,0.1,0.5-0.1,0.6c-0.2,0.1-0.4,0.1-0.5,0l0,0c-1-0.9-2.3-1.5-3.6-1.9c-1.3-0.4-2.7-0.6-4.1-0.6c-1.4,0-2.7,0.2-4.1,0.6
		c-1.3,0.4-2.6,1-3.6,1.9l0,0c-0.2,0.2-0.4,0.1-0.6-0.1C42.3,76.2,42.3,76,42.4,75.8z"/>
	<path class="st5" d="M24.2,59.7c-3.5,0-6.3-3-6.3-6.6c0-2.1,0.9-4.1,2.5-5.3V23c0-2.2,1.7-4,3.8-4s3.8,1.8,3.8,4v24.8
		c1.6,1.3,2.5,3.2,2.5,5.3C30.5,56.8,27.7,59.7,24.2,59.7z M24.2,19.9c-1.6,0-2.9,1.4-2.9,3.1v25c0,0.1-0.1,0.3-0.2,0.4
		c-1.5,1.1-2.3,2.8-2.3,4.7c0,3.2,2.5,5.8,5.5,5.8s5.5-2.6,5.5-5.8c0-1.9-0.9-3.6-2.3-4.7c-0.1-0.1-0.2-0.2-0.2-0.4V23
		C27.1,21.3,25.8,19.9,24.2,19.9z"/>
	<path class="st5" d="M20.8,24.3h-4.2c-0.2,0-0.4-0.2-0.4-0.4c0-0.2,0.2-0.4,0.4-0.4h4.2c0.2,0,0.4,0.2,0.4,0.4
		C21.2,24.1,21,24.3,20.8,24.3z"/>
	<path class="st5" d="M20.8,35h-4.2c-0.2,0-0.4-0.2-0.4-0.4s0.2-0.4,0.4-0.4h4.2c0.2,0,0.4,0.2,0.4,0.4S21,35,20.8,35z"/>
	<path class="st5" d="M20.8,29.6h-2.5c-0.2,0-0.4-0.2-0.4-0.4c0-0.2,0.2-0.4,0.4-0.4h2.5c0.2,0,0.4,0.2,0.4,0.4
		C21.2,29.4,21,29.6,20.8,29.6z"/>
	<path class="st5" d="M20.8,45.6h-4.2c-0.2,0-0.4-0.2-0.4-0.4s0.2-0.4,0.4-0.4h4.2c0.2,0,0.4,0.2,0.4,0.4S21,45.6,20.8,45.6z"/>
	<path class="st5" d="M20.8,40.3h-2.5c-0.2,0-0.4-0.2-0.4-0.4s0.2-0.4,0.4-0.4h2.5c0.2,0,0.4,0.2,0.4,0.4S21,40.3,20.8,40.3z"/>
	<path class="st5" d="M27.6,27h-6.7c-0.2,0-0.4-0.2-0.4-0.4c0-0.2,0.2-0.4,0.4-0.4h6.7c0.2,0,0.4,0.2,0.4,0.4
		C28,26.8,27.8,27,27.6,27z"/>
	<path class="st5" d="M73.4,55.3c-1.9,0-3.4-1.6-3.4-3.5c0-2.3,2.9-8.4,3-8.6c0.1-0.3,0.6-0.3,0.8,0c0.1,0.3,3,6.3,3,8.6
		C76.8,53.7,75.3,55.3,73.4,55.3z M73.4,44.4c-0.9,2.1-2.5,5.9-2.5,7.4c0,1.5,1.1,2.7,2.5,2.7c1.4,0,2.5-1.2,2.5-2.7
		C76,50.3,74.4,46.5,73.4,44.4z"/>
	<path class="st5" d="M66.7,42c-1.9,0-3.4-1.6-3.4-3.5c0-2.3,2.9-8.4,3-8.6c0.1-0.3,0.6-0.3,0.8,0c0.1,0.3,3,6.3,3,8.6
		C70.1,40.4,68.6,42,66.7,42z M66.7,31.1c-0.9,2.1-2.5,5.9-2.5,7.4c0,1.5,1.1,2.7,2.5,2.7s2.5-1.2,2.5-2.7
		C69.2,37,67.7,33.2,66.7,31.1z"/>
	<path class="st5" d="M31.3,46.9c-0.1,0-0.1,0-0.2,0c-0.5-0.1-0.7-0.6-0.6-1.1c1-4.4,2.6-7.9,3.9-10.7c1.1-2.4,2-4.2,2-5.5
		c0-0.4,0.2-0.7,0.6-0.8c0.4-0.1,0.7,0,0.9,0.4c2.3,3.9,8.8,6.7,15.3,6.7c2.5,0,4.6-0.2,6.6-0.7c0.5-0.1,0.9,0.2,1,0.7
		c0.1,0.5-0.2,0.9-0.6,1.1c-2.1,0.5-4.3,0.7-6.9,0.7c-6.2,0-12.3-2.4-15.5-5.9c-0.4,1.2-1,2.6-1.8,4.3c-1.3,2.7-2.9,6.1-3.8,10.3
		C32.1,46.7,31.7,46.9,31.3,46.9z"/>
	<path class="st5" d="M50.7,86.3c-11.6,0-21.1-12.7-21.1-16.8v-4.6c-0.9-0.3-1.6-1-2.2-2c-0.2-0.4-0.1-1,0.3-1.2
		c0.4-0.3,0.9-0.1,1.2,0.3c0.4,0.7,0.8,1.1,1.4,1.3l0.4,0.1c0.4,0.1,0.7,0.4,0.7,0.9v5.3c0,2.9,8.7,15,19.4,15s19.4-12.1,19.4-15
		v-5.3c0-0.4,0.3-0.8,0.7-0.9l0.4-0.1c1.4-0.4,1.9-2.4,2.5-4.4l0-0.2c0.1-0.5,0.6-0.7,1-0.6c0.4,0.1,0.7,0.6,0.6,1.1l0,0.2
		c-0.6,2.3-1.3,4.8-3.5,5.6v4.6C71.8,73.6,62.3,86.3,50.7,86.3z"/>
	<path class="st5" d="M76,41.1c-0.5,0-0.8-0.4-0.8-0.9c0-6.6-3.9-9.9-3.9-9.9c-0.2-0.2-0.3-0.5-0.3-0.8c0-0.3,0.2-0.6,0.5-0.7
		c1.1-0.6,2.4-2.3,2.8-3.7c-2.2-0.3-4.2-1.8-6.3-3.6c-3.5-2.7-7.8-6.1-15.4-6.1c-11.6,0-16.3,5.9-16.9,7.4c-0.1,0.2-0.2,0.4-0.5,0.5
		c-1.1,0.5-2.1,1.2-3.1,2.1c-0.4,0.3-0.9,0.3-1.2-0.1c-0.3-0.4-0.3-0.9,0.1-1.2c1-0.9,2.2-1.7,3.3-2.2c1.1-2.2,6.4-8.2,18.3-8.2
		c8.2,0,12.8,3.6,16.5,6.5c2.3,1.8,4.2,3.3,6.3,3.3c0.5,0,0.8,0.4,0.8,0.9c0,1.8-1.3,4.1-2.9,5.4c1.3,1.5,3.7,5,3.7,10.5
		C76.8,40.8,76.4,41.1,76,41.1z"/>
</g>
</svg>
