<?xml version="1.0" encoding="utf-8"?>
<!-- Generator: Adobe Illustrator 24.1.2, SVG Export Plug-In . SVG Version: 6.00 Build 0)  -->
<svg version="1.0" id="Layer_1" xmlns="http://www.w3.org/2000/svg" xmlns:xlink="http://www.w3.org/1999/xlink" x="0px" y="0px"
	 viewBox="0 0 100 100" style="enable-background:new 0 0 100 100;" xml:space="preserve">
<style type="text/css">
	.st0{fill:#CCCCCC;}
	.st1{fill:#666666;}
	.st2{fill:#FFFFFF;}
</style>
<path class="st0" d="M95,50c0,1.5-0.1,3.1-0.2,4.6c-1,10.5-5.7,20-12.6,27.2c0,0-0.1-0.1-0.2-0.1c-3.4-2.4-7.5-3.9-11.2-5.2
	c-4.5-1.6-8.7-3.1-9.9-5.7c-0.2-2.2-0.2-4-0.2-5.9l0-0.8c1.9-1.8,4.3-5.7,5.1-9.2c1.4-0.8,3.1-2.6,3.7-6.9c0.3-2.2-0.3-3.8-1.2-5
	c1.2-4,3.5-14.1-0.6-20.7c-1.7-2.8-4.3-4.5-7.7-5.2c-1.9-2.4-5.5-3.7-10.3-3.7c-7.3,0.1-12.6,2.4-15.9,6.7
	c-3.8,5.1-4.5,12.7-2.2,22.8c-0.9,1.1-1.5,2.8-1.3,5c0.5,4.4,2.2,6.2,3.7,7c0.8,3.5,3.2,7.4,5.1,9.2l0,0.8c0,2,0,3.7-0.2,6
	c-1.2,2.6-5.4,4.1-9.9,5.7c-3.7,1.3-7.8,2.8-11.2,5.2c-0.1,0-0.1,0.1-0.2,0.1c-7-7.2-11.6-16.6-12.7-27.2C5.1,53.1,5,51.5,5,50
	c0-1.5,0.1-3,0.2-4.5c0-0.4,0.1-0.8,0.1-1.1c0.3-2.6,0.9-5.2,1.7-7.7C12.7,18.2,29.8,4.8,50,4.8s37.3,13.4,43,31.8
	c0.8,2.5,1.3,5,1.7,7.7c0,0.4,0.1,0.8,0.1,1.1C94.9,47,95,48.5,95,50z"/>
<path class="st1" d="M50,1C23,1,1,23,1,50c0,25.8,20,46.9,45.3,48.8c0.1,0,0.1,0,0.2,0c1.2,0.1,2.4,0.1,3.6,0.1s2.4-0.1,3.6-0.1
	c0,0,0.1,0,0.2,0C79,96.9,99,75.8,99,50C99,23,77,1,50,1z M82,81.7C73.8,89.9,62.5,95,50,95s-23.8-5.1-32-13.3
	C11,74.6,6.3,65.1,5.2,54.6C5.1,53.1,5,51.5,5,50c0-1.5,0.1-3,0.2-4.5c0-0.4,0.1-0.8,0.1-1.1c0.3-2.6,0.9-5.2,1.7-7.7
	C12.7,18.3,29.8,5,50,5s37.3,13.3,43,31.6c0.8,2.5,1.3,5,1.7,7.7c0,0.4,0.1,0.8,0.1,1.1c0.1,1.5,0.2,3,0.2,4.5
	c0,1.5-0.1,3.1-0.2,4.6C93.7,65.1,89,74.6,82,81.7z"/>
<path class="st2" d="M82,81.7C73.8,89.9,62.5,95,50,95s-23.8-5.1-32-13.3c3.4-2.4,7.5-3.9,11.2-5.2c4.5-1.6,8.7-3.1,9.9-5.7
	c0.2-2.2,0.2-4,0.2-6l0-0.8c-1.9-1.8-4.3-5.7-5.1-9.2c-1.4-0.8-3.1-2.6-3.7-7c-0.3-2.2,0.4-3.9,1.3-5c-2.4-10-1.7-17.7,2.2-22.8
	c3.2-4.3,8.6-6.5,15.9-6.7c4.8,0,8.4,1.3,10.3,3.7c3.4,0.7,6,2.4,7.7,5.2c4,6.5,1.7,16.7,0.6,20.7c0.9,1.1,1.5,2.8,1.2,5
	c-0.5,4.4-2.2,6.2-3.7,6.9c-0.8,3.5-3.2,7.4-5.1,9.2l0,0.8c0,2,0,3.7,0.2,5.9c1.2,2.6,5.4,4.1,9.9,5.7C74.5,77.8,78.6,79.2,82,81.7z
	"/>
</svg>
