<?xml version="1.0" encoding="utf-8"?>
<!-- Generator: Adobe Illustrator 24.1.2, SVG Export Plug-In . SVG Version: 6.00 Build 0)  -->
<svg version="1.1" id="Layer_1" xmlns="http://www.w3.org/2000/svg" xmlns:xlink="http://www.w3.org/1999/xlink" x="0px" y="0px"
	 viewBox="0 0 512 512" style="enable-background:new 0 0 512 512;" xml:space="preserve">
<style type="text/css">
	.st0{fill:#505050;}
	.st1{fill:#FEFEFE;}
</style>
<path d="M349.8,149.1c-0.7-6.2-3.9-11.1-9.5-14c-17.1-8.8-35.2-14.5-54.5-15.7c-29-1.8-54.7,7-77.7,24.3c-4.4,3.3-8.5,6.9-12.9,10.5
	c0.5-4.1,0.9-7.9,1.4-11.7c2.2-18.1,1.3-36.3,1.8-54.5c0.2-8.5-3.4-13.9-10.6-17.2c-16.8-7.6-34.1-7.8-51.3-1.7
	c-12.2,4.3-15.3,9.5-14.8,21.4c0.4,11.5,1.2,23.2-1.4,34.7c-1.9,8.6-4.7,16.7-12.3,22.3c-20.3,14.8-30.2,34.8-29.5,60
	c0,1.9-0.3,3.6-1.1,5.4c-5,9.8-8.3,20.2-10.7,30.9c-1,4.4-0.7,9-2.4,13.3v2.2c0.6,6.5,0.6,13,0,19.5v3.8c0.9,5.3,0.5,10.6,1.5,15.9
	c7.5,40.2,26.1,74.2,56.9,101.3c23.1,20.3,50.6,32.5,79.2,42.4c9.4,3.3,19.2,5.2,29.2,5.8h18c0.3-0.8,1-0.6,1.5-0.7
	c16.4-2.1,29.9-9.6,40.6-22.2c2.9-3.4,2.8-7.1,0-9.6c-2.9-2.6-6.8-2.1-9.8,1.5c-13,15.6-30.1,19.8-49.4,17.8
	c-17.4-1.8-33.6-7.7-49.5-14.6c-19.7-8.6-38.5-18.8-54.2-33.7c-31.4-29.7-48.4-66-51-109.2c-1.3-22,3-42.6,13.3-62.3
	c19-36.3,77.7-52.8,111.4-12.4c10.4,12.5,18.1,26.4,23.3,41.8c1.4,4.2,4.8,6.1,8.3,4.9c3.5-1.2,5.3-4.6,4-8.5
	c-7.7-22.8-19.4-43-38.3-58.5c-2.3-1.9-6.8-2.9-6.5-5.7c0.2-2.5,3.6-4.8,5.8-7c26.9-27.8,58.7-42.2,98.1-35.9
	c8.1,1.3,16,3.4,23.8,6.7c-7.9,8.3-11.9,17.9-11.8,29c0,3.3-0.9,3.6-3.7,3c-12.3-2.5-24.7-3.1-37.1-0.5c-10,2.1-19.2,6-26.5,13.5
	c-1.8,1.9-3,4-2.3,6.7c1.3,5,7.4,6.6,10.9,2.5c4.5-5.2,9.5-5.1,15.2-3.2c4.2,1.4,7.9,3.6,11.4,6.2c4.1,3.1,7.5,6.9,10.9,10.8
	c2.5,2.9,6.3,3.2,9,1c2.8-2.3,3.2-5.9,0.8-9c-4.3-5.7-9.5-10.5-15.4-14.6c-0.9-0.7-2.3-0.9-2.8-2.6c13.3-0.4,26.2,1.1,38.7,5.3
	c8.7,2.9,15.7,0.6,21.6-5.7C347.7,173.3,351.3,162,349.8,149.1z M137.4,82.5c7-3.6,14.7-4.4,20.9-4.5c9.3,0.1,17,0.9,24,4.5
	c1.1,0.5,2.7,1.1,2.7,2.3c0,1.2-1.6,1.8-2.7,2.3c-8.8,4.2-18.1,5-27.7,4.3c-6-0.4-11.8-1.5-17.3-4.3c-1.1-0.5-2.7-1-2.7-2.3
	C134.7,83.6,136.3,83.1,137.4,82.5z M179.1,168c-0.4,1.7-0.6,2.7-3.1,2c-30.4-8.4-57.5-2-81.1,18.8c-0.4,0.3-0.7,0.6-1.9,1.7
	c3.3-13,9.3-23.4,19.5-30.3c13.8-9.4,19-23,21.3-38.5c1.1-7.1,0.7-14.3,0.8-21.8c17.1,6.2,33.9,6.1,50.7,0
	C186.3,123.1,184.5,145.7,179.1,168z M328.3,175.2c-3.8,3.4-6.3,2.4-7-2.6c-1.2-9.1,1.8-16.9,8.1-23.4c1.4-1.5,3.1-3,5.1-2.4
	c2.3,0.7,2.5,3.2,2.7,5.3c0.1,1,0.1,2,0.2,3.4C336.9,163,334.3,169.9,328.3,175.2z"/>
<path d="M400.8,258.7c-2.8-3.1-6.6-3-10.1,0.4c-10.1,10-20.1,20.1-30.1,30.2c-1.7,1.7-2.9,2.5-5.6,1.3c-9.3-4.4-20.3-2.2-27.6,4.9
	c-7.5,7.3-9.9,18.1-6,27.8c3.8,9.6,13.2,16,23.5,16.1c18.4,0.1,31-19,23.4-35.8c-1-2.2-0.8-3.3,0.9-5c10.2-10,20.3-20.2,30.5-30.4
	C402.8,265,403.2,261.5,400.8,258.7z M345.1,326.6c-7,0.1-12.8-5.8-12.9-12.8c0-7.1,5.7-12.7,12.8-12.7c7.1,0,12.7,5.7,12.6,12.8
	C357.6,320.9,352,326.6,345.1,326.6z"/>
<path d="M446.3,300.1c-7.7-57.2-61.8-96.9-118.8-87c-53.2,9.3-90.1,58-83.9,111.9c4.4,37.8,24.7,64.9,58.9,81.6
	c3.4,1.7,8.4,2.1,10.1,4.8c1.8,2.7,0.5,7.5,0.5,11.3c0.2,10.5,6.5,19.6,16.2,23.4c1.6,0.6,3.4,0.5,4.8,1.7h21
	c0.3-0.2,0.5-0.6,0.8-0.6c10.1-1.7,17.9-9,20.3-18.9c1.1-4.6,0.7-9.2,0.6-13.8c-0.1-2.7,0.6-4,3.4-5
	C425.2,393.2,452.7,347.6,446.3,300.1z M364.2,416.8c-0.2,1.9,0,3.7-0.1,5.6c-0.2,7.3-5.5,12.6-12.8,12.8c-2.1,0.1-4.2,0-6.4,0
	c-2.2,0-4.5,0.1-6.7,0c-6.9-0.3-12.1-5.6-12.3-12.6c-0.3-8.5-0.3-8.3,8-7.3c9.2,1.2,18.4,1,27.5-0.8
	C363.7,414.1,364.4,414.5,364.2,416.8z M433.8,323.2c-1.8,16.4-7.5,31.2-17.5,44.2c-15.8,20.6-36.8,32.3-62.6,35.3
	c-1.8,0.2-2.5,0-2.4-2c0.2-2.7,0-5.5,0-8.2c0-5.5-2.1-8.3-6.3-8.4c-4.2,0-6.4,2.8-6.5,8.2c0,2.7-0.1,5.5,0,8.2
	c0.1,2.1-0.7,2.3-2.6,2.1c-41.3-4.5-73.7-35.7-79.6-76.7c-0.8-5.8-0.8-5.8,5.1-5.9c2.2,0,4.5,0.1,6.7,0c3.7-0.2,6.3-2.6,6.4-6
	c0.2-3.5-2.4-6.4-6.2-6.7c-3.2-0.2-6.5-0.2-9.7,0c-2.4,0.1-2.9-0.6-2.6-2.9c3.4-28.3,17.1-50.3,40.9-66
	c11.4-7.5,24.1-11.7,37.6-13.5c2.8-0.4,4.4-0.2,4,3.4c-0.3,2.8-0.1,5.7,0,8.6c0.1,3.8,2.8,6.5,6.3,6.6c3.5,0,6.2-2.6,6.4-6.4
	c0.1-1.7,0-3.5,0-5.2c0-7.3,0-7.3,7.1-6.3c37.1,5,68.9,36.2,74.5,73.2c1.3,8.6,1.3,8.5-7.3,8.6c-1.9,0-3.8,0-5.6,0.3
	c-3.2,0.7-5.1,3.6-4.9,6.6c0.3,3.1,2.6,5.5,5.9,5.7c3.2,0.2,6.5,0.2,9.7,0C433.4,320,434.1,320.7,433.8,323.2z"/>
<path class="st0" d="M64.1,259.4c0.9,0.3,0.8,1.1,0.8,1.8c0,5.4,0,10.8,0,16.2c0,0.6-0.1,1.2-0.8,1.5
	C64.1,272.3,64.1,265.9,64.1,259.4z"/>
<path d="M90.1,260.4c1.9-19.2,7.1-37.1,20.8-51.5c5.7-6,12.4-10.3,20.2-13.1c3.9-1.4,7.2,0,8.6,3.4c1.3,3.3,0.1,6.9-3.6,8.3
	c-19.5,7.4-27.3,23.5-31.6,42.2c-0.9,3.9-1.2,7.9-1.6,11.8c-0.6,5.1-3.2,8-7.3,7.5C91.6,268.7,89.8,265.8,90.1,260.4z"/>
<path class="st1" d="M400.8,258.7c-2.8-3.1-6.6-3-10.1,0.4c-10.1,10-20.1,20.1-30.1,30.2c-1.7,1.7-2.9,2.5-5.6,1.3
	c-9.3-4.4-20.3-2.2-27.6,4.9c-7.5,7.3-9.9,18.1-6,27.8c3.8,9.6,13.2,16,23.5,16.1c18.4,0.1,31-19,23.4-35.8c-1-2.2-0.8-3.3,0.9-5
	c10.2-10,20.3-20.2,30.5-30.4C402.8,265,403.2,261.5,400.8,258.7z M345.1,326.6c-7,0.1-12.8-5.8-12.9-12.8c0-7.1,5.7-12.7,12.8-12.7
	c7.1,0,12.7,5.7,12.6,12.8C357.6,320.9,352,326.6,345.1,326.6z"/>
<path d="M400.8,258.7c-2.8-3.1-6.6-3-10.1,0.4c-10.1,10-20.1,20.1-30.1,30.2c-1.7,1.7-2.9,2.5-5.6,1.3c-9.3-4.4-20.3-2.2-27.6,4.9
	c-7.5,7.3-9.9,18.1-6,27.8c3.8,9.6,13.2,16,23.5,16.1c18.4,0.1,31-19,23.4-35.8c-1-2.2-0.8-3.3,0.9-5c10.2-10,20.3-20.2,30.5-30.4
	C402.8,265,403.2,261.5,400.8,258.7z M345.1,326.6c-7,0.1-12.8-5.8-12.9-12.8c0-7.1,5.7-12.7,12.8-12.7c7.1,0,12.7,5.7,12.6,12.8
	C357.6,320.9,352,326.6,345.1,326.6z"/>
</svg>
