<?xml version="1.0"?>
<svg xmlns="http://www.w3.org/2000/svg" xmlns:xlink="http://www.w3.org/1999/xlink" xmlns:svgjs="http://svgjs.com/svgjs" version="1.1" width="512" height="512" x="0" y="0" viewBox="0 0 512 512" style="enable-background:new 0 0 512 512" xml:space="preserve" class=""><g><g xmlns="http://www.w3.org/2000/svg" id="Eye_Examination_1_"><g><path d="m152 8.789-81.211 81.211h81.211z" fill="#ffffff" data-original="#000000" style="" class=""/><path d="m182 0v120h-120v231.213c25.585-12.542 50.874-19.213 75-19.213h-15v-30h90v30h-75c39.858 0 77.142 17.844 105 36.002v-66.002h90v30h-60v30h60v30h-57.708c7.537 6.414 12.792 11.451 14.524 13.184l31.817 31.816-31.816 31.816c-4.032 4.032-25.82 24.769-56.689 43.184h279.872v-512zm30 212h-60v30h60v30h-90v-90h90zm120 45h-30v-45h-30v45h-30v-75h90zm0-107h-90v-90h30v60h30v-60h30zm120 242h-90v-30h60v-30h-60v-30h90zm0-120h-90v-30h60v-30h-60v-30h90z" fill="#ffffff" data-original="#000000" style="" class=""/></g><path d="m137 362c-52.094 0-99.857 38.042-137 75 37.583 37.206 84.002 75 137 75 53.047 0 103.696-37.862 141.211-75-37.584-37.206-88.213-75-141.211-75zm15 90h-30v-30h30z" fill="#ffffff" data-original="#000000" style="" class=""/></g></g></svg>
