<?xml version="1.0" encoding="utf-8"?>
<!-- Generator: Adobe Illustrator 24.1.2, SVG Export Plug-In . SVG Version: 6.00 Build 0)  -->
<svg version="1.1" id="Layer_1" xmlns="http://www.w3.org/2000/svg" xmlns:xlink="http://www.w3.org/1999/xlink" x="0px" y="0px"
	 viewBox="0 0 512 512" style="enable-background:new 0 0 512 512;" xml:space="preserve">
<style type="text/css">
	.st0{fill:#FEFEFE;}
	.st1{fill:#010101;}
</style>
<path d="M203,264.2c-11.9,0.1-21.7,9.9-21.8,21.8c-0.1,12,9.8,22,21.9,22c12,0,22-9.9,22-21.9C225.1,274,215,264.1,203,264.2z
	 M203.4,295.9c-5.3,0.1-9.7-4.1-9.9-9.4c-0.2-5.3,4.4-10,9.7-10c5.2,0,9.7,4.4,9.7,9.6C213,291.3,208.6,295.8,203.4,295.9z"/>
<path d="M215.6,164.1c-8.4,0-15.2,6.8-15.1,15.2c0.1,8.3,6.7,14.8,14.9,14.9c8.5,0.1,15.2-6.5,15.2-14.9
	C230.7,170.8,224,164.1,215.6,164.1z M215.7,182.1c-2,0.1-3.1-1.1-3.1-3c0-1.7,1.1-2.8,2.9-2.7c1.8,0,2.7,1.1,2.9,2.7
	C218.4,181,217.5,182,215.7,182.1z"/>
<path d="M228,215.5c-10-0.1-18.3,8.2-18.4,18.3c-0.1,10.1,8.1,18.3,18.2,18.3c10.1,0,18.3-8.1,18.4-18.2
	C246.3,224,238,215.6,228,215.5z M227.8,240c-3.3,0-6.1-2.7-6.1-5.9c-0.1-3.3,2.9-6.3,6.2-6.3c3.3,0,6,2.7,6.1,6
	C234,237.2,231.3,240,227.8,240z"/>
<path d="M334.4,271.5c-8.7-0.2-15.6,6.3-15.9,14.8c-0.3,8.7,6.3,15.6,14.8,15.9c8.6,0.3,15.7-6.3,15.9-14.8
	C349.4,278.7,342.8,271.7,334.4,271.5z M333.8,290c-1.9,0-3-1.1-3-3c0-2.1,1.1-3.3,3.2-3.3c1.9,0,2.9,1.2,3.1,3
	C337,288.8,335.9,290,333.8,290z M347.6,198.7c-8.4,0.1-15.3,7.2-15.2,15.7c0.1,8.4,7.2,15.4,15.6,15.3c8.5-0.1,15.4-7.3,15.3-15.7
	C363.1,205.5,356,198.6,347.6,198.7z M347.5,217.5c-1.8-0.2-3.1-1.4-3-3.3c0.1-2.1,1.5-3.3,3.5-3.2c1.9,0.1,2.9,1.4,3,3.4
	C350.7,216.3,349.6,217.7,347.5,217.5z M362.6,311.2c-9.5,0-17.3,7.9-17.3,17.5c0,9.7,7.7,17.4,17.3,17.4c9.6,0,17.5-7.7,17.6-17.2
	C380.3,319.3,372.2,311.2,362.6,311.2z M362.7,333.9c-3,0.1-5.3-2.2-5.3-5.1c0-2.9,2.3-5.4,5.1-5.4c2.8,0,5.3,2.5,5.4,5.2
	C368,331.4,365.6,333.8,362.7,333.9z M397.5,306.8c-5.5-6.3-11.8-11.5-19.3-15.2c-2.9-1.4-5.8-0.6-7.6,2.3c-1.8,2.9-1.4,6,1.4,7.8
	c6.1,3.9,11.8,8.3,16.9,13.4c1.7,1.7,4.1,1.8,6.4,0.7c2.2-1.1,3.4-3,3.3-5.8C398.8,309,398.3,307.8,397.5,306.8z M411.1,330.6
	c-0.9-3.8-2.4-7.5-4.7-10.6c-2.2-3-7-3-9.2-0.1c-3.8,5.1,1,8.9,2.1,13.3c0.7,2.7,2.8,4.1,5.5,4.4C408.6,337.7,412,334.1,411.1,330.6
	z M411.1,330.6c-0.9-3.8-2.4-7.5-4.7-10.6c-2.2-3-7-3-9.2-0.1c-3.8,5.1,1,8.9,2.1,13.3c0.7,2.7,2.8,4.1,5.5,4.4
	C408.6,337.7,412,334.1,411.1,330.6z M397.5,306.8c-5.5-6.3-11.8-11.5-19.3-15.2c-2.9-1.4-5.8-0.6-7.6,2.3c-1.8,2.9-1.4,6,1.4,7.8
	c6.1,3.9,11.8,8.3,16.9,13.4c1.7,1.7,4.1,1.8,6.4,0.7c2.2-1.1,3.4-3,3.3-5.8C398.8,309,398.3,307.8,397.5,306.8z M362.6,311.2
	c-9.5,0-17.3,7.9-17.3,17.5c0,9.7,7.7,17.4,17.3,17.4c9.6,0,17.5-7.7,17.6-17.2C380.3,319.3,372.2,311.2,362.6,311.2z M362.7,333.9
	c-3,0.1-5.3-2.2-5.3-5.1c0-2.9,2.3-5.4,5.1-5.4c2.8,0,5.3,2.5,5.4,5.2C368,331.4,365.6,333.8,362.7,333.9z M347.6,198.7
	c-8.4,0.1-15.3,7.2-15.2,15.7c0.1,8.4,7.2,15.4,15.6,15.3c8.5-0.1,15.4-7.3,15.3-15.7C363.1,205.5,356,198.6,347.6,198.7z
	 M347.5,217.5c-1.8-0.2-3.1-1.4-3-3.3c0.1-2.1,1.5-3.3,3.5-3.2c1.9,0.1,2.9,1.4,3,3.4C350.7,216.3,349.6,217.7,347.5,217.5z
	 M334.4,271.5c-8.7-0.2-15.6,6.3-15.9,14.8c-0.3,8.7,6.3,15.6,14.8,15.9c8.6,0.3,15.7-6.3,15.9-14.8
	C349.4,278.7,342.8,271.7,334.4,271.5z M333.8,290c-1.9,0-3-1.1-3-3c0-2.1,1.1-3.3,3.2-3.3c1.9,0,2.9,1.2,3.1,3
	C337,288.8,335.9,290,333.8,290z M334.4,271.5c-8.7-0.2-15.6,6.3-15.9,14.8c-0.3,8.7,6.3,15.6,14.8,15.9c8.6,0.3,15.7-6.3,15.9-14.8
	C349.4,278.7,342.8,271.7,334.4,271.5z M333.8,290c-1.9,0-3-1.1-3-3c0-2.1,1.1-3.3,3.2-3.3c1.9,0,2.9,1.2,3.1,3
	C337,288.8,335.9,290,333.8,290z M347.6,198.7c-8.4,0.1-15.3,7.2-15.2,15.7c0.1,8.4,7.2,15.4,15.6,15.3c8.5-0.1,15.4-7.3,15.3-15.7
	C363.1,205.5,356,198.6,347.6,198.7z M347.5,217.5c-1.8-0.2-3.1-1.4-3-3.3c0.1-2.1,1.5-3.3,3.5-3.2c1.9,0.1,2.9,1.4,3,3.4
	C350.7,216.3,349.6,217.7,347.5,217.5z M362.6,311.2c-9.5,0-17.3,7.9-17.3,17.5c0,9.7,7.7,17.4,17.3,17.4c9.6,0,17.5-7.7,17.6-17.2
	C380.3,319.3,372.2,311.2,362.6,311.2z M362.7,333.9c-3,0.1-5.3-2.2-5.3-5.1c0-2.9,2.3-5.4,5.1-5.4c2.8,0,5.3,2.5,5.4,5.2
	C368,331.4,365.6,333.8,362.7,333.9z M397.5,306.8c-5.5-6.3-11.8-11.5-19.3-15.2c-2.9-1.4-5.8-0.6-7.6,2.3c-1.8,2.9-1.4,6,1.4,7.8
	c6.1,3.9,11.8,8.3,16.9,13.4c1.7,1.7,4.1,1.8,6.4,0.7c2.2-1.1,3.4-3,3.3-5.8C398.8,309,398.3,307.8,397.5,306.8z M411.1,330.6
	c-0.9-3.8-2.4-7.5-4.7-10.6c-2.2-3-7-3-9.2-0.1c-3.8,5.1,1,8.9,2.1,13.3c0.7,2.7,2.8,4.1,5.5,4.4C408.6,337.7,412,334.1,411.1,330.6
	z M411.1,330.6c-0.9-3.8-2.4-7.5-4.7-10.6c-2.2-3-7-3-9.2-0.1c-3.8,5.1,1,8.9,2.1,13.3c0.7,2.7,2.8,4.1,5.5,4.4
	C408.6,337.7,412,334.1,411.1,330.6z M398.6,310c0.2-1-0.3-2.2-1.1-3.2c-5.5-6.3-11.8-11.5-19.3-15.2c-2.9-1.4-5.8-0.6-7.6,2.3
	c-1.8,2.9-1.4,6,1.4,7.8c6.1,3.9,11.8,8.3,16.9,13.4c1.7,1.7,4.1,1.8,6.4,0.7C397.5,314.8,398.7,312.9,398.6,310z M362.6,311.2
	c-9.5,0-17.3,7.9-17.3,17.5c0,9.7,7.7,17.4,17.3,17.4c9.6,0,17.5-7.7,17.6-17.2C380.3,319.3,372.2,311.2,362.6,311.2z M362.7,333.9
	c-3,0.1-5.3-2.2-5.3-5.1c0-2.9,2.3-5.4,5.1-5.4c2.8,0,5.3,2.5,5.4,5.2C368,331.4,365.6,333.8,362.7,333.9z M348,229.7
	c8.5-0.1,15.4-7.3,15.3-15.7c-0.1-8.5-7.2-15.4-15.6-15.3c-8.4,0.1-15.3,7.2-15.2,15.7C332.5,222.8,339.6,229.8,348,229.7z M348,211
	c1.9,0.1,2.9,1.4,3,3.4c-0.4,1.9-1.5,3.3-3.5,3.1c-1.8-0.2-3.1-1.4-3-3.3C344.7,212.2,346,210.9,348,211z M334.4,271.5
	c-8.7-0.2-15.6,6.3-15.9,14.8c-0.3,8.7,6.3,15.6,14.8,15.9c8.6,0.3,15.7-6.3,15.9-14.8C349.4,278.7,342.8,271.7,334.4,271.5z
	 M333.8,290c-1.9,0-3-1.1-3-3c0-2.1,1.1-3.3,3.2-3.3c1.9,0,2.9,1.2,3.1,3C337,288.8,335.9,290,333.8,290z M443.9,422.9
	c-4.8-0.1-9.6,0-14.4,0h-24.6c1.3-1.2,2-1.9,2.8-2.5c30.8-28.6,38.1-74.4,17.9-111.2c-8.4-15.2-20.1-27.2-35.3-35.7
	c-7.1-4-11.3-9.7-11.4-17.9c-0.1-22.9,0-45.8-0.1-68.8c0-1.6,0.4-2.4,1.9-3.2c8.8-4.7,12.8-13,10.7-21.6
	c-2.3-9.1-9.6-14.7-19.6-14.7c-17.6-0.1-35.2-0.1-52.8,0c-9.9,0-17.6,5.8-19.7,14.6c-2.1,8.8,1.8,16.9,10.6,21.7
	c1.4,0.7,2,1.5,2,3.1c-0.1,22.9,0,45.9-0.1,68.8c0,7.8-3.8,13.7-10.7,17.6c-2.1,1.3-3,0.9-4.3-1.2c-6.7-11.9-13.5-23.7-20.4-35.4
	c-6.8-11.5-10-23.9-10-37.2c0.1-24.3,0.1-48.6,0-72.9c0-2.4,0.4-3.7,2.8-4.9c8.4-4,12.7-13.3,10.6-22.2c-2-8.9-9.9-15.3-19.2-15.3
	c-26.2-0.1-52.4-0.1-78.6,0c-9.6,0-17.1,6.3-19.3,15.7c-2,8.7,2.2,17.7,10.5,21.8c2.1,1.1,2.8,2.2,2.8,4.5
	c-0.1,23.8-0.3,47.6,0,71.4c0.2,14.9-3.6,28.3-11,41.1c-28,48.1-55.7,96.5-83.6,144.7c-4.2,7.3-6.2,14.9-5,23.2
	c0.8,6,3.5,11.2,7.3,16.6c-5.4,0-10.1-0.1-14.9,0c-4.1,0.1-6.8,2.5-6.8,6.1c0,3.6,2.6,5.9,6.8,6.1c1,0,2,0,3,0H441c1,0,2,0,3,0
	c4.7-0.1,6.2-1.6,6.2-6.1C450.2,424.7,448.4,423,443.9,422.9z M311.1,164.3c1.2-3.9,4.3-4.9,8.1-4.9c17.3,0,34.7,0,52,0
	c0.3,0,0.5,0,0.8,0c4.6,0.2,7.5,2.8,7.6,6.8c0.1,4.1-2.9,7-7.6,7.1c-9,0.1-18,0-26.9,0c-8.7,0-17.5,0.1-26.2,0
	C313,173.2,309.6,169.1,311.1,164.3z M307.2,283.2c11.3-6.4,16.5-16.3,16.5-29.1c0-21.7,0.1-43.3-0.1-65c0-2.9,0.7-3.8,3.7-3.8
	c12,0.2,24.1,0.1,36.1,0c2.4,0,3.2,0.5,3.2,3.1c-0.1,11.5-0.1,23-0.1,34.6c0,10.3,0.1,20.5,0,30.8c-0.1,13.3,5.6,23.3,17.2,29.9
	c20,11.5,32.9,28.3,38.7,50.7c0.7,2.8,0.7,3.8-2.7,4.2c-11.1,1.4-21.3,6.1-31.7,10c-14,5.2-28.1,5.6-42.5,2.6
	c-2.2-0.5-3.7-1.5-4.9-3.6c-11.4-20-22.9-39.9-34.5-59.7C304.6,285.6,304.7,284.6,307.2,283.2z M174.4,105.1c-0.7-3.2,1-6.7,4-8.3
	c1.4-0.8,2.9-0.9,4.4-0.9c25.7,0,51.3,0,77,0c4.9,0,8.2,3.1,8.2,7.5c0.1,4.6-3.2,7.8-8.3,7.8c-12.9,0-25.8,0-38.7,0
	c-12.9,0-25.8,0-38.7,0C178.2,111.3,175.2,108.8,174.4,105.1z M134.5,315.2c14.1-23.9,27.8-48.1,41.8-72.1
	c7.9-13.5,11.9-28,11.8-43.7c-0.2-23.9,0-47.9-0.2-71.8c0-3.5,1-4.1,4.2-4.1c19.2,0.2,38.5,0.2,57.7,0c3.3,0,4.5,0.6,4.4,4.3
	c-0.2,23.5,0,47.1-0.1,70.7c-0.1,16.2,3.9,31.2,12.2,45.1c8,13.5,15.7,27.1,23.5,40.7c0.5,1,1,2,1.7,3.2c-20,2.7-36.2,12.8-52,24
	c-10.6,7.5-21,15.4-32.7,21.3c-18.9,9.6-37.3,7.7-55.4-2.2c-1.9-1-1.5-1.8-0.7-3.2c4.7-8.1,9.4-16.2,14.1-24.3
	c1.5-2.6,1.9-5.3,0-7.8c-2.8-3.6-7.7-2.9-10.3,1.5c-4.4,7.5-8.7,15.1-13.2,22.6c-0.7,1.1-0.8,4.7-3.6,2.4
	C136,320.2,131.8,319.9,134.5,315.2z M349.8,414.5c-3.9,5.3-9.3,8.1-15.9,8.3c-0.5,0-1,0-1.5,0c-74.2,0-148.4,0-222.6,0
	c-9.5,0-16-4.7-19.9-13.2c-2.5-5.6-2.8-11.5,0.2-16.9c12-21.3,24.3-42.5,36.5-63.8c7,4,7,4,3.2,10.4c-3.7,6.3-7.4,12.7-11,19
	c-2.3,4.1-1.7,7.7,1.7,9.5c3.3,1.8,6.5,0.6,8.8-3.4c3.9-6.8,8-13.5,11.6-20.4c1.8-3.5,3.2-4.2,6.9-2.1c9.9,5.5,20.7,8.8,32.1,9.2
	c15.4,0.5,28.9-5,41.8-12.8c13-7.9,24.7-17.6,37.6-25.6c10.9-6.8,22.5-12,35.4-13.6c2.2-0.3,3.8-0.3,5.2,2.2
	c16.8,29.5,33.8,58.9,50.8,88.3C355.8,398.3,355.6,406.5,349.8,414.5z M384.9,422c-0.7,0.4-1.6,0.8-2.5,0.8c-7.7,0.1-15.4,0-23.6,0
	c3.4-4.7,5.8-9.3,6.9-14.5c1.9-8.6,0.3-16.6-4.1-24.1c-3.7-6.4-7.4-12.9-11.5-20c19.5,3.4,36.9-1.7,54.1-8.7c5.6-2.3,11.4-4,17.4-5
	c2-0.3,2.9,0,2.9,2.4C424,383.3,410.6,406.2,384.9,422z M397.2,319.9c-3.8,5.1,1,8.9,2.1,13.3c0.7,2.7,2.8,4.1,5.5,4.4
	c3.7,0.1,7.1-3.4,6.3-6.9c-0.9-3.8-2.4-7.5-4.7-10.6C404.3,317,399.4,317,397.2,319.9z M372,301.8c6.1,3.9,11.8,8.3,16.9,13.4
	c1.7,1.7,4.1,1.8,6.4,0.7c2.2-1.1,3.4-3,3.3-5.8c0.2-1-0.3-2.2-1.1-3.2c-5.5-6.3-11.8-11.5-19.3-15.2c-2.9-1.4-5.8-0.6-7.6,2.3
	C368.9,296.9,369.3,300,372,301.8z M345.3,328.7c0,9.7,7.7,17.4,17.3,17.4c9.6,0,17.5-7.7,17.6-17.2c0.1-9.6-8-17.7-17.6-17.7
	C353,311.3,345.3,319.1,345.3,328.7z M368,328.6c0.1,2.8-2.3,5.2-5.2,5.3c-3,0.1-5.3-2.2-5.3-5.1c0-2.9,2.3-5.4,5.1-5.4
	C365.3,323.3,367.9,325.8,368,328.6z M348,229.7c8.5-0.1,15.4-7.3,15.3-15.7c-0.1-8.5-7.2-15.4-15.6-15.3
	c-8.4,0.1-15.3,7.2-15.2,15.7C332.5,222.8,339.6,229.8,348,229.7z M348,211c1.9,0.1,2.9,1.4,3,3.4c-0.4,1.9-1.5,3.3-3.5,3.1
	c-1.8-0.2-3.1-1.4-3-3.3C344.7,212.2,346,210.9,348,211z M333.3,302.2c8.6,0.3,15.7-6.3,15.9-14.8c0.2-8.7-6.3-15.7-14.8-15.9
	c-8.7-0.2-15.6,6.3-15.9,14.8C318.2,295,324.7,301.9,333.3,302.2z M334,283.7c1.9,0,2.9,1.2,3.1,3c-0.1,2.1-1.2,3.3-3.3,3.3
	c-1.9,0-3-1.1-3-3C330.8,284.9,331.9,283.7,334,283.7z M114.6,376.7c-2.5-1-5.2-0.8-6.8,1.6c-2.2,3.2-4.1,6.6-5.8,10.1
	c-1.2,2.5-0.2,4.8,1.7,6.5c2.1,1.8,4.8,2.4,6.9,0.6c4-3.4,5.9-8.2,7.6-12C118.3,379.6,117,377.6,114.6,376.7z M334.4,271.5
	c-8.7-0.2-15.6,6.3-15.9,14.8c-0.3,8.7,6.3,15.6,14.8,15.9c8.6,0.3,15.7-6.3,15.9-14.8C349.4,278.7,342.8,271.7,334.4,271.5z
	 M333.8,290c-1.9,0-3-1.1-3-3c0-2.1,1.1-3.3,3.2-3.3c1.9,0,2.9,1.2,3.1,3C337,288.8,335.9,290,333.8,290z M347.6,198.7
	c-8.4,0.1-15.3,7.2-15.2,15.7c0.1,8.4,7.2,15.4,15.6,15.3c8.5-0.1,15.4-7.3,15.3-15.7C363.1,205.5,356,198.6,347.6,198.7z
	 M347.5,217.5c-1.8-0.2-3.1-1.4-3-3.3c0.1-2.1,1.5-3.3,3.5-3.2c1.9,0.1,2.9,1.4,3,3.4C350.7,216.3,349.6,217.7,347.5,217.5z
	 M362.6,311.2c-9.5,0-17.3,7.9-17.3,17.5c0,9.7,7.7,17.4,17.3,17.4c9.6,0,17.5-7.7,17.6-17.2C380.3,319.3,372.2,311.2,362.6,311.2z
	 M362.7,333.9c-3,0.1-5.3-2.2-5.3-5.1c0-2.9,2.3-5.4,5.1-5.4c2.8,0,5.3,2.5,5.4,5.2C368,331.4,365.6,333.8,362.7,333.9z
	 M397.5,306.8c-5.5-6.3-11.8-11.5-19.3-15.2c-2.9-1.4-5.8-0.6-7.6,2.3c-1.8,2.9-1.4,6,1.4,7.8c6.1,3.9,11.8,8.3,16.9,13.4
	c1.7,1.7,4.1,1.8,6.4,0.7c2.2-1.1,3.4-3,3.3-5.8C398.8,309,398.3,307.8,397.5,306.8z M411.1,330.6c-0.9-3.8-2.4-7.5-4.7-10.6
	c-2.2-3-7-3-9.2-0.1c-3.8,5.1,1,8.9,2.1,13.3c0.7,2.7,2.8,4.1,5.5,4.4C408.6,337.7,412,334.1,411.1,330.6z M411.1,330.6
	c-0.9-3.8-2.4-7.5-4.7-10.6c-2.2-3-7-3-9.2-0.1c-3.8,5.1,1,8.9,2.1,13.3c0.7,2.7,2.8,4.1,5.5,4.4C408.6,337.7,412,334.1,411.1,330.6
	z M397.5,306.8c-5.5-6.3-11.8-11.5-19.3-15.2c-2.9-1.4-5.8-0.6-7.6,2.3c-1.8,2.9-1.4,6,1.4,7.8c6.1,3.9,11.8,8.3,16.9,13.4
	c1.7,1.7,4.1,1.8,6.4,0.7c2.2-1.1,3.4-3,3.3-5.8C398.8,309,398.3,307.8,397.5,306.8z M362.6,311.2c-9.5,0-17.3,7.9-17.3,17.5
	c0,9.7,7.7,17.4,17.3,17.4c9.6,0,17.5-7.7,17.6-17.2C380.3,319.3,372.2,311.2,362.6,311.2z M362.7,333.9c-3,0.1-5.3-2.2-5.3-5.1
	c0-2.9,2.3-5.4,5.1-5.4c2.8,0,5.3,2.5,5.4,5.2C368,331.4,365.6,333.8,362.7,333.9z M347.6,198.7c-8.4,0.1-15.3,7.2-15.2,15.7
	c0.1,8.4,7.2,15.4,15.6,15.3c8.5-0.1,15.4-7.3,15.3-15.7C363.1,205.5,356,198.6,347.6,198.7z M347.5,217.5c-1.8-0.2-3.1-1.4-3-3.3
	c0.1-2.1,1.5-3.3,3.5-3.2c1.9,0.1,2.9,1.4,3,3.4C350.7,216.3,349.6,217.7,347.5,217.5z M334.4,271.5c-8.7-0.2-15.6,6.3-15.9,14.8
	c-0.3,8.7,6.3,15.6,14.8,15.9c8.6,0.3,15.7-6.3,15.9-14.8C349.4,278.7,342.8,271.7,334.4,271.5z M333.8,290c-1.9,0-3-1.1-3-3
	c0-2.1,1.1-3.3,3.2-3.3c1.9,0,2.9,1.2,3.1,3C337,288.8,335.9,290,333.8,290z M334.4,271.5c-8.7-0.2-15.6,6.3-15.9,14.8
	c-0.3,8.7,6.3,15.6,14.8,15.9c8.6,0.3,15.7-6.3,15.9-14.8C349.4,278.7,342.8,271.7,334.4,271.5z M333.8,290c-1.9,0-3-1.1-3-3
	c0-2.1,1.1-3.3,3.2-3.3c1.9,0,2.9,1.2,3.1,3C337,288.8,335.9,290,333.8,290z M347.6,198.7c-8.4,0.1-15.3,7.2-15.2,15.7
	c0.1,8.4,7.2,15.4,15.6,15.3c8.5-0.1,15.4-7.3,15.3-15.7C363.1,205.5,356,198.6,347.6,198.7z M347.5,217.5c-1.8-0.2-3.1-1.4-3-3.3
	c0.1-2.1,1.5-3.3,3.5-3.2c1.9,0.1,2.9,1.4,3,3.4C350.7,216.3,349.6,217.7,347.5,217.5z M362.6,311.2c-9.5,0-17.3,7.9-17.3,17.5
	c0,9.7,7.7,17.4,17.3,17.4c9.6,0,17.5-7.7,17.6-17.2C380.3,319.3,372.2,311.2,362.6,311.2z M362.7,333.9c-3,0.1-5.3-2.2-5.3-5.1
	c0-2.9,2.3-5.4,5.1-5.4c2.8,0,5.3,2.5,5.4,5.2C368,331.4,365.6,333.8,362.7,333.9z M397.5,306.8c-5.5-6.3-11.8-11.5-19.3-15.2
	c-2.9-1.4-5.8-0.6-7.6,2.3c-1.8,2.9-1.4,6,1.4,7.8c6.1,3.9,11.8,8.3,16.9,13.4c1.7,1.7,4.1,1.8,6.4,0.7c2.2-1.1,3.4-3,3.3-5.8
	C398.8,309,398.3,307.8,397.5,306.8z M411.1,330.6c-0.9-3.8-2.4-7.5-4.7-10.6c-2.2-3-7-3-9.2-0.1c-3.8,5.1,1,8.9,2.1,13.3
	c0.7,2.7,2.8,4.1,5.5,4.4C408.6,337.7,412,334.1,411.1,330.6z M411.1,330.6c-0.9-3.8-2.4-7.5-4.7-10.6c-2.2-3-7-3-9.2-0.1
	c-3.8,5.1,1,8.9,2.1,13.3c0.7,2.7,2.8,4.1,5.5,4.4C408.6,337.7,412,334.1,411.1,330.6z M397.5,306.8c-5.5-6.3-11.8-11.5-19.3-15.2
	c-2.9-1.4-5.8-0.6-7.6,2.3c-1.8,2.9-1.4,6,1.4,7.8c6.1,3.9,11.8,8.3,16.9,13.4c1.7,1.7,4.1,1.8,6.4,0.7c2.2-1.1,3.4-3,3.3-5.8
	C398.8,309,398.3,307.8,397.5,306.8z M362.6,311.2c-9.5,0-17.3,7.9-17.3,17.5c0,9.7,7.7,17.4,17.3,17.4c9.6,0,17.5-7.7,17.6-17.2
	C380.3,319.3,372.2,311.2,362.6,311.2z M362.7,333.9c-3,0.1-5.3-2.2-5.3-5.1c0-2.9,2.3-5.4,5.1-5.4c2.8,0,5.3,2.5,5.4,5.2
	C368,331.4,365.6,333.8,362.7,333.9z M347.6,198.7c-8.4,0.1-15.3,7.2-15.2,15.7c0.1,8.4,7.2,15.4,15.6,15.3
	c8.5-0.1,15.4-7.3,15.3-15.7C363.1,205.5,356,198.6,347.6,198.7z M347.5,217.5c-1.8-0.2-3.1-1.4-3-3.3c0.1-2.1,1.5-3.3,3.5-3.2
	c1.9,0.1,2.9,1.4,3,3.4C350.7,216.3,349.6,217.7,347.5,217.5z M334.4,271.5c-8.7-0.2-15.6,6.3-15.9,14.8
	c-0.3,8.7,6.3,15.6,14.8,15.9c8.6,0.3,15.7-6.3,15.9-14.8C349.4,278.7,342.8,271.7,334.4,271.5z M333.8,290c-1.9,0-3-1.1-3-3
	c0-2.1,1.1-3.3,3.2-3.3c1.9,0,2.9,1.2,3.1,3C337,288.8,335.9,290,333.8,290z"/>
<path class="st0" d="M118.1,383.3c-1.7,3.8-3.6,8.6-7.6,12c-2.1,1.8-4.8,1.3-6.9-0.6c-1.9-1.7-2.9-4-1.7-6.5
	c1.8-3.5,3.6-6.9,5.8-10.1c1.6-2.3,4.3-2.6,6.8-1.6C117,377.6,118.3,379.6,118.1,383.3z"/>
<path class="st0" d="M203,264.2c-11.9,0.1-21.7,9.9-21.8,21.8c-0.1,12,9.8,22,21.9,22c12,0,22-9.9,22-21.9
	C225.1,274,215,264.1,203,264.2z M203.4,295.9c-5.3,0.1-9.7-4.1-9.9-9.4c-0.2-5.3,4.4-10,9.7-10c5.2,0,9.7,4.4,9.7,9.6
	C213,291.3,208.6,295.8,203.4,295.9z"/>
<path class="st0" d="M215.6,164.1c-8.4,0-15.2,6.8-15.1,15.2c0.1,8.3,6.7,14.8,14.9,14.9c8.5,0.1,15.2-6.5,15.2-14.9
	C230.7,170.8,224,164.1,215.6,164.1z M215.7,182.1c-2,0.1-3.1-1.1-3.1-3c0-1.7,1.1-2.8,2.9-2.7c1.8,0,2.7,1.1,2.9,2.7
	C218.4,181,217.5,182,215.7,182.1z"/>
<path class="st0" d="M228,215.5c-10-0.1-18.3,8.2-18.4,18.3c-0.1,10.1,8.1,18.3,18.2,18.3c10.1,0,18.3-8.1,18.4-18.2
	C246.3,224,238,215.6,228,215.5z M227.8,240c-3.3,0-6.1-2.7-6.1-5.9c-0.1-3.3,2.9-6.3,6.2-6.3c3.3,0,6,2.7,6.1,6
	C234,237.2,231.3,240,227.8,240z"/>
<path class="st0" d="M411.1,330.6c-0.9-3.8-2.4-7.5-4.7-10.6c-2.2-3-7-3-9.2-0.1c-3.8,5.1,1,8.9,2.1,13.3c0.7,2.7,2.8,4.1,5.5,4.4
	C408.6,337.7,412,334.1,411.1,330.6z M397.5,306.8c-5.5-6.3-11.8-11.5-19.3-15.2c-2.9-1.4-5.8-0.6-7.6,2.3c-1.8,2.9-1.4,6,1.4,7.8
	c6.1,3.9,11.8,8.3,16.9,13.4c1.7,1.7,4.1,1.8,6.4,0.7c2.2-1.1,3.4-3,3.3-5.8C398.8,309,398.3,307.8,397.5,306.8z M362.6,311.2
	c-9.5,0-17.3,7.9-17.3,17.5c0,9.7,7.7,17.4,17.3,17.4c9.6,0,17.5-7.7,17.6-17.2C380.3,319.3,372.2,311.2,362.6,311.2z M362.7,333.9
	c-3,0.1-5.3-2.2-5.3-5.1c0-2.9,2.3-5.4,5.1-5.4c2.8,0,5.3,2.5,5.4,5.2C368,331.4,365.6,333.8,362.7,333.9z M347.6,198.7
	c-8.4,0.1-15.3,7.2-15.2,15.7c0.1,8.4,7.2,15.4,15.6,15.3c8.5-0.1,15.4-7.3,15.3-15.7C363.1,205.5,356,198.6,347.6,198.7z
	 M347.5,217.5c-1.8-0.2-3.1-1.4-3-3.3c0.1-2.1,1.5-3.3,3.5-3.2c1.9,0.1,2.9,1.4,3,3.4C350.7,216.3,349.6,217.7,347.5,217.5z
	 M334.4,271.5c-8.7-0.2-15.6,6.3-15.9,14.8c-0.3,8.7,6.3,15.6,14.8,15.9c8.6,0.3,15.7-6.3,15.9-14.8
	C349.4,278.7,342.8,271.7,334.4,271.5z M333.8,290c-1.9,0-3-1.1-3-3c0-2.1,1.1-3.3,3.2-3.3c1.9,0,2.9,1.2,3.1,3
	C337,288.8,335.9,290,333.8,290z"/>
<path class="st1" d="M118.1,383.3c-1.7,3.8-3.6,8.6-7.6,12c-2.1,1.8-4.8,1.3-6.9-0.6c-1.9-1.7-2.9-4-1.7-6.5
	c1.8-3.5,3.6-6.9,5.8-10.1c1.6-2.3,4.3-2.6,6.8-1.6C117,377.6,118.3,379.6,118.1,383.3z"/>
<path d="M203,264.2c-11.9,0.1-21.7,9.9-21.8,21.8c-0.1,12,9.8,22,21.9,22c12,0,22-9.9,22-21.9C225.1,274,215,264.1,203,264.2z
	 M203.4,295.9c-5.3,0.1-9.7-4.1-9.9-9.4c-0.2-5.3,4.4-10,9.7-10c5.2,0,9.7,4.4,9.7,9.6C213,291.3,208.6,295.8,203.4,295.9z"/>
<path d="M228,215.5c-10-0.1-18.3,8.2-18.4,18.3c-0.1,10.1,8.1,18.3,18.2,18.3c10.1,0,18.3-8.1,18.4-18.2
	C246.3,224,238,215.6,228,215.5z M227.8,240c-3.3,0-6.1-2.7-6.1-5.9c-0.1-3.3,2.9-6.3,6.2-6.3c3.3,0,6,2.7,6.1,6
	C234,237.2,231.3,240,227.8,240z"/>
<path d="M215.6,164.1c-8.4,0-15.2,6.8-15.1,15.2c0.1,8.3,6.7,14.8,14.9,14.9c8.5,0.1,15.2-6.5,15.2-14.9
	C230.7,170.8,224,164.1,215.6,164.1z M215.7,182.1c-2,0.1-3.1-1.1-3.1-3c0-1.7,1.1-2.8,2.9-2.7c1.8,0,2.7,1.1,2.9,2.7
	C218.4,181,217.5,182,215.7,182.1z"/>
<path d="M362.6,311.2c-9.5,0-17.3,7.9-17.3,17.5c0,9.7,7.7,17.4,17.3,17.4c9.6,0,17.5-7.7,17.6-17.2
	C380.3,319.3,372.2,311.2,362.6,311.2z M362.7,333.9c-3,0.1-5.3-2.2-5.3-5.1c0-2.9,2.3-5.4,5.1-5.4c2.8,0,5.3,2.5,5.4,5.2
	C368,331.4,365.6,333.8,362.7,333.9z"/>
<path d="M347.6,198.7c-8.4,0.1-15.3,7.2-15.2,15.7c0.1,8.4,7.2,15.4,15.6,15.3c8.5-0.1,15.4-7.3,15.3-15.7
	C363.1,205.5,356,198.6,347.6,198.7z M347.5,217.5c-1.8-0.2-3.1-1.4-3-3.3c0.1-2.1,1.5-3.3,3.5-3.2c1.9,0.1,2.9,1.4,3,3.4
	C350.7,216.3,349.6,217.7,347.5,217.5z"/>
<path d="M334.4,271.5c-8.7-0.2-15.6,6.3-15.9,14.8c-0.3,8.7,6.3,15.6,14.8,15.9c8.6,0.3,15.7-6.3,15.9-14.8
	C349.4,278.7,342.8,271.7,334.4,271.5z M333.8,290c-1.9,0-3-1.1-3-3c0-2.1,1.1-3.3,3.2-3.3c1.9,0,2.9,1.2,3.1,3
	C337,288.8,335.9,290,333.8,290z"/>
<path d="M398.6,310c0,2.9-1.1,4.7-3.3,5.8c-2.3,1.1-4.7,1.1-6.4-0.7c-5.1-5.2-10.8-9.5-16.9-13.4c-2.8-1.8-3.2-4.9-1.4-7.8
	c1.8-2.9,4.7-3.8,7.6-2.3c7.5,3.7,13.8,8.9,19.3,15.2C398.3,307.8,398.8,309,398.6,310z"/>
<path class="st1" d="M404.8,337.6c-2.6-0.3-4.7-1.7-5.5-4.4c-1.2-4.3-6-8.2-2.1-13.3c2.2-2.9,7-2.9,9.2,0.1
	c2.3,3.2,3.8,6.8,4.7,10.6C412,334.1,408.6,337.7,404.8,337.6z"/>
</svg>
