<?xml version="1.0" encoding="utf-8"?>
<!-- Generator: Adobe Illustrator 24.1.2, SVG Export Plug-In . SVG Version: 6.00 Build 0)  -->
<svg version="1.1" id="Layer_1" xmlns="http://www.w3.org/2000/svg" xmlns:xlink="http://www.w3.org/1999/xlink" x="0px" y="0px"
	 viewBox="0 0 512 512" style="enable-background:new 0 0 512 512;" xml:space="preserve">
<style type="text/css">
	.st0{fill:#FFFFFF;}
</style>
<g>
	<path class="st0" d="M446,0H338c-36.4,0-66,29.6-66,66v108c0,36.4,29.6,66,66,66h108c36.4,0,66-29.6,66-66V66
		C512,29.6,482.4,0,446,0z M480,174c0,8.8-7.2,16-16,16s-16-7.2-16-16V66c0-1.1-0.9-2-2-2c-8.8,0-16-7.2-16-16s7.2-16,16-16
		c18.7,0,34,15.3,34,34V174z"/>
	<path class="st0" d="M174,0H66C29.6,0,0,29.6,0,66v108c0,36.4,29.6,66,66,66h108c36.4,0,66-29.6,66-66V66C240,29.6,210.4,0,174,0z
		 M208,174c0,8.8-7.2,16-16,16s-16-7.2-16-16V66c0-1.1-0.9-2-2-2c-8.8,0-16-7.2-16-16s7.2-16,16-16c18.7,0,34,15.3,34,34V174z"/>
	<path class="st0" d="M174,272H66c-36.4,0-66,29.6-66,66v108c0,36.4,29.6,66,66,66h108c36.4,0,66-29.6,66-66V338
		C240,301.6,210.4,272,174,272z M208,446c0,8.8-7.2,16-16,16s-16-7.2-16-16V338c0-1.1-0.9-2-2-2c-8.8,0-16-7.2-16-16s7.2-16,16-16
		c18.7,0,34,15.3,34,34V446z"/>
	<path class="st0" d="M392,272c-66.2,0-120,53.8-120,120s53.8,120,120,120s120-53.8,120-120S458.2,272,392,272z M475.1,429.9
		c-2.7,5.8-8.5,9.2-14.5,9.2c-2.3,0-4.6-0.5-6.8-1.5c-8-3.7-11.5-13.3-7.7-21.3c6.3-13.6,7-28.8,1.9-42.8
		c-5.1-14.1-15.4-25.3-29-31.6c-8-3.7-11.5-13.3-7.7-21.3c3.7-8,13.3-11.5,21.3-7.7c21.3,9.9,37.5,27.6,45.5,49.7
		C486.1,384.7,485.1,408.6,475.1,429.9L475.1,429.9z"/>
</g>
</svg>
