<?xml version="1.0" encoding="utf-8"?>
<!-- Generator: Adobe Illustrator 24.1.2, SVG Export Plug-In . SVG Version: 6.00 Build 0)  -->
<svg version="1.1" id="livetype" xmlns="http://www.w3.org/2000/svg" xmlns:xlink="http://www.w3.org/1999/xlink" x="0px" y="0px"
	 viewBox="0 0 151.3 40" style="enable-background:new 0 0 151.3 40;" xml:space="preserve">
<style type="text/css">
	.st0{fill:#FFFFFF;fill-opacity:0;}
	.st1{fill:#FFFFFF;}
	.st2{fill:url(#SVGID_1_);}
	.st3{fill:url(#SVGID_2_);}
	.st4{fill:url(#SVGID_3_);}
	.st5{fill:url(#SVGID_4_);}
	.st6{opacity:0.2;enable-background:new    ;}
	.st7{opacity:0.12;enable-background:new    ;}
	.st8{opacity:0.25;fill:#FFFFFF;enable-background:new    ;}
</style>
<g>
	<rect x="-8" y="-10" class="st0" width="168" height="60"/>
	<path class="st1" d="M143.7,40H8.3c-3,0-5.4-2.3-5.4-5V5c0-2.7,2.5-5,5.4-5h135.5c3,0,5.4,2.3,5.4,5v30
		C149.2,37.7,146.8,40,143.7,40z"/>
	<g>
		<g>
			<path d="M143.7,0.8c2.5,0,4.6,1.9,4.6,4.2v30c0,2.3-2.1,4.2-4.6,4.2H8.3c-2.5,0-4.6-1.9-4.6-4.2V5c0-2.3,2.1-4.2,4.6-4.2
				L143.7,0.8 M143.7,0H8.3c-3,0-5.4,2.3-5.4,5v30c0,2.8,2.5,5,5.4,5h135.5c3,0,5.4-2.3,5.4-5V5C149.2,2.3,146.8,0,143.7,0L143.7,0z
				"/>
		</g>
	</g>
	<path d="M73,12.8c-2.3,0-4,1.6-4,3.7s1.8,3.7,4,3.7c2.3,0,4-1.6,4-3.7C77.1,14.4,75.2,12.8,73,12.8z M73,18.8
		c-1.2,0-2.3-0.9-2.3-2.3c0-1.3,1.1-2.3,2.3-2.3c1.2,0,2.3,0.9,2.3,2.3C75.2,17.8,74.3,18.8,73,18.8z M64.2,12.8c-2.3,0-4,1.6-4,3.7
		s1.8,3.7,4,3.7c2.2,0,4-1.6,4-3.7C68.2,14.4,66.4,12.8,64.2,12.8z M64.2,18.8c-1.2,0-2.3-0.9-2.3-2.3c0-1.3,1.1-2.3,2.3-2.3
		c1.2,0,2.3,0.9,2.3,2.3C66.5,17.8,65.4,18.8,64.2,18.8z M53.7,13.9v1.6h4.1c-0.1,0.9-0.4,1.5-1,2s-1.5,1.2-3.1,1.2
		c-2.5,0-4.4-1.9-4.4-4.2s2-4.2,4.4-4.2c1.4,0,2.4,0.5,3,1.1l1.2-1.1c-1-0.9-2.4-1.6-4.3-1.6c-3.5,0-6.4,2.6-6.4,5.8
		s2.9,5.8,6.4,5.8c1.8,0,3.3-0.6,4.3-1.6s1.5-2.5,1.5-3.7c0-0.4,0-0.7-0.1-1h-5.6C53.7,14,53.7,13.9,53.7,13.9z M96.6,15.2
		c-0.3-0.8-1.4-2.4-3.5-2.4c-2.1,0-3.8,1.5-3.8,3.7c0,2.1,1.7,3.7,4,3.7c1.8,0,2.9-1,3.4-1.6l-1.4-0.8c-0.4,0.6-1.1,1-2,1
		c-0.9,0-1.5-0.4-2-1.1l5.4-2.1L96.6,15.2z M91.1,16.4c0-1.4,1.2-2.2,2.1-2.2c0.7,0,1.3,0.3,1.5,0.8L91.1,16.4z M86.7,20h1.7V9.1
		h-1.7V20z M83.8,13.6L83.8,13.6c-0.4-0.4-1.2-0.8-2.2-0.8c-2.1,0-3.9,1.6-3.9,3.7s1.8,3.7,3.9,3.7c1,0,1.7-0.4,2.2-0.8h0.1v0.5
		c0,1.4-0.9,2.2-2.2,2.2c-1.1,0-1.7-0.7-2.1-1.3l-1.5,0.6c0.4,1,1.6,2.2,3.6,2.2c2.1,0,3.8-1.1,3.8-3.9V13h-1.6L83.8,13.6L83.8,13.6
		z M81.7,18.8c-1.2,0-2.3-0.9-2.3-2.2s1-2.3,2.3-2.3c1.2,0,2.2,1,2.2,2.3C83.9,17.8,83,18.8,81.7,18.8z M104.9,9.1h-4.2V20h1.7v-4.1
		h2.5c2,0,3.9-1.3,3.9-3.4S106.9,9.1,104.9,9.1z M104.9,14.3h-2.5v-3.7h2.5c1.3,0,2.1,1,2.1,1.9C107,13.3,106.2,14.3,104.9,14.3z
		 M115.9,12.8c-1.3,0-2.6,0.5-3.1,1.7l1.5,0.6c0.3-0.6,1-0.8,1.6-0.8c0.9,0,1.8,0.5,1.8,1.4v0.1c-0.3-0.2-1-0.4-1.8-0.4
		c-1.7,0-3.4,0.9-3.4,2.5c0,1.5,1.4,2.4,2.9,2.4c1.2,0,1.8-0.5,2.3-1.1h0.1V20h1.7v-4.2C119.5,13.9,117.8,12.8,115.9,12.8z
		 M115.7,18.8c-0.5,0-1.4-0.3-1.4-0.9c0-0.8,1-1.2,1.8-1.2c0.8,0,1.2,0.2,1.6,0.4C117.6,18,116.6,18.8,115.7,18.8z M125.6,13
		l-2.1,4.7h-0.1l-2-4.7h-2l3.1,6.6l-1.8,3.7h1.8l4.9-10.3C127.6,13,125.6,13,125.6,13z M109.7,20h1.7V9.1h-1.7V20z"/>
	<g>
		
			<linearGradient id="SVGID_1_" gradientUnits="userSpaceOnUse" x1="26.4788" y1="-174.2056" x2="8.9915" y2="-191.6929" gradientTransform="matrix(1 0 0 -1 0 -166)">
			<stop  offset="0" style="stop-color:#00A0FF"/>
			<stop  offset="6.574450e-03" style="stop-color:#00A1FF"/>
			<stop  offset="0.2601" style="stop-color:#00BEFF"/>
			<stop  offset="0.5122" style="stop-color:#00D2FF"/>
			<stop  offset="0.7604" style="stop-color:#00DFFF"/>
			<stop  offset="1" style="stop-color:#00E3FF"/>
		</linearGradient>
		<path class="st2" d="M14.1,7.5c-0.3,0.3-0.5,0.8-0.5,1.4V31c0,0.6,0.2,1.1,0.5,1.4l0.1,0.1l13.4-12.4V20v-0.1L14.1,7.5L14.1,7.5z"
			/>
		
			<linearGradient id="SVGID_2_" gradientUnits="userSpaceOnUse" x1="39.5108" y1="-186.05" x2="13.2845" y2="-186.05" gradientTransform="matrix(1 0 0 -1 0 -166)">
			<stop  offset="0" style="stop-color:#FFE000"/>
			<stop  offset="0.4087" style="stop-color:#FFBD00"/>
			<stop  offset="0.7754" style="stop-color:#FFA500"/>
			<stop  offset="1" style="stop-color:#FF9C00"/>
		</linearGradient>
		<path class="st3" d="M32.1,24.3l-4.4-4.1V20v-0.1l4.4-4.1l0.1,0.1l5.3,2.8c1.5,0.8,1.5,2.1,0,2.9L32.1,24.3L32.1,24.3z"/>
		
			<linearGradient id="SVGID_3_" gradientUnits="userSpaceOnUse" x1="29.5666" y1="-187.9447" x2="5.5332" y2="-211.9781" gradientTransform="matrix(1 0 0 -1 0 -166)">
			<stop  offset="0" style="stop-color:#FF3A44"/>
			<stop  offset="1" style="stop-color:#C31162"/>
		</linearGradient>
		<path class="st4" d="M32.2,24.2L27.7,20L14.1,32.5c0.5,0.5,1.3,0.5,2.3,0.1L32.2,24.2"/>
		
			<linearGradient id="SVGID_4_" gradientUnits="userSpaceOnUse" x1="11.0268" y1="-165.5656" x2="21.761" y2="-176.2997" gradientTransform="matrix(1 0 0 -1 0 -166)">
			<stop  offset="0" style="stop-color:#32A071"/>
			<stop  offset="6.850000e-02" style="stop-color:#2DA771"/>
			<stop  offset="0.4762" style="stop-color:#15CF74"/>
			<stop  offset="0.8009" style="stop-color:#06E775"/>
			<stop  offset="1" style="stop-color:#00F076"/>
		</linearGradient>
		<path class="st5" d="M32.2,15.8L16.4,7.5c-1-0.5-1.7-0.4-2.3,0.1L27.7,20L32.2,15.8z"/>
		<g>
			<path class="st6" d="M32.1,24.1l-15.7,8.3c-0.9,0.5-1.6,0.4-2.2,0l0,0l-0.1,0.1l0,0l0.1,0.1l0,0c0.5,0.4,1.3,0.5,2.2,0L32.1,24.1
				L32.1,24.1z"/>
			<path class="st7" d="M14.1,32.3c-0.3-0.3-0.5-0.8-0.5-1.4V31c0,0.6,0.2,1.1,0.5,1.4V32.3L14.1,32.3z"/>
		</g>
		<path class="st7" d="M37.5,21.3l-5.4,2.8l0.1,0.1l5.3-2.8c0.8-0.4,1.1-0.9,1.1-1.4l0,0C38.6,20.5,38.2,20.9,37.5,21.3z"/>
		<path class="st8" d="M16.4,7.6l21.1,11.1c0.7,0.4,1.1,0.8,1.1,1.3l0,0c0-0.5-0.3-1-1.1-1.4L16.4,7.6c-1.5-0.9-2.7-0.2-2.7,1.4v0.1
			C13.7,7.5,14.9,6.8,16.4,7.6z"/>
	</g>
</g>
<g>
	<path d="M48.1,28.9h-0.8V27h0.8V28.9z"/>
	<path d="M49.6,33v-6.1h2.1c1,0,1.8,0.3,2.4,0.8c0.7,0.6,0.9,1.3,0.9,2.2c0,0.9-0.3,1.6-0.9,2.2c-0.7,0.6-1.4,0.8-2.4,0.8h-2.1V33z
		 M50.4,32.3h1.2c0.8,0,1.4-0.2,1.8-0.6c0.4-0.4,0.7-1,0.7-1.7s-0.2-1.3-0.7-1.7c-0.4-0.4-1.1-0.6-1.8-0.6h-1.2V32.3z"/>
	<path d="M60,27.7h-3v1.9h2.7v0.7h-2.7v1.9h3V33h-3.9v-6.1H60V27.7z"/>
	<path d="M61.2,33v-6.1h1.1l3.3,4.7l0,0v-1.2v-3.6h0.8V33h-0.9L62,28l0,0v1.2V33H61.2z"/>
	<path d="M69.1,33l2.5-6.1h1l2.4,6.1h-1l-0.7-1.6h-2.7L69.9,33H69.1z M70.9,30.6h2.2L72,27.9l0,0L70.9,30.6z"/>
	<path d="M75.8,33v-6.1h0.9v5.3h2.8V33H75.8z"/>
	<path d="M80.4,33v-6.1h0.9V33H80.4z"/>
	<path d="M82.8,33v-6.1h1.1l3.3,4.7l0,0v-1.2v-3.6h0.8V33h-0.9l-3.4-5l0,0v1.2V33H82.8z"/>
</g>
</svg>
